<?xml version="1.0" standalone="no"?>
<!DOCTYPE svg PUBLIC "-//W3C//DTD SVG 1.1//EN" "http://www.w3.org/Graphics/SVG/1.1/DTD/svg11.dtd" >
<svg>
<metadata>
Created by FontForge 20090622 at Fri Mar  8 18:48:39 2019
 By deploy user
Copyright (c) 2015 by Volkswagen AG. All rights reserved.
</metadata>
<defs>
<font id="VWText" horiz-adv-x="550" >
  <font-face 
    font-family="VW Text"
    font-weight="400"
    font-stretch="normal"
    units-per-em="1000"
    panose-1="2 11 5 4 4 2 0 0 0 3"
    ascent="787"
    descent="-213"
    x-height="482"
    cap-height="680"
    bbox="-201 -221 1032 961"
    underline-thickness="65"
    underline-position="-110"
    unicode-range="U+000D-U+FB02"
  />
<missing-glyph horiz-adv-x="513" 
d="M50 0v680h413v-680h-413zM108 58h297v564h-297v-564z" />
    <glyph glyph-name=".notdef" horiz-adv-x="513" 
d="M50 0v680h413v-680h-413zM108 58h297v564h-297v-564z" />
    <glyph glyph-name=".null" horiz-adv-x="0" 
 />
    <glyph glyph-name=".null" horiz-adv-x="0" 
 />
    <glyph glyph-name="nonmarkingreturn" horiz-adv-x="333" 
 />
    <glyph glyph-name="CR" unicode="&#xd;" horiz-adv-x="245" 
 />
    <glyph glyph-name="space" unicode=" " horiz-adv-x="245" 
 />
    <glyph glyph-name="exclam" unicode="!" horiz-adv-x="265" 
d="M174 507l-15 -300h-53l-16 300v173h84v-173zM75 48q0 27 16 44.5t42 17.5q27 0 42.5 -17.5t15.5 -44.5q0 -28 -15.5 -45.5t-42.5 -17.5q-26 0 -42 17.5t-16 45.5z" />
    <glyph glyph-name="quotedbl" unicode="&#x22;" horiz-adv-x="364" 
d="M293 579l-16 -175h-52l-16 175v101h84v-101zM155 579l-16 -175h-52l-16 175v101h84v-101z" />
    <glyph glyph-name="numbersign" unicode="#" horiz-adv-x="647" 
d="M166 0h-75v10l43 168h-89v66h106l51 197h-91v66h108l45 173h75v-10l-42 -163h137l45 173h75v-10l-42 -163h90v-66h-107l-51 -197h92v-66h-109l-46 -178h-75v10l43 168h-137zM280 441l-51 -197h137l51 197h-137z" />
    <glyph glyph-name="dollar" unicode="$" 
d="M71 57l39 66q59 -54 135 -61v250l-16 7q-144 62 -144 182q0 71 43 124.5t117 65.5v79h66v-76q81 -5 149 -51l-36 -66q-52 34 -113 40v-240l4 -2q80 -35 120 -79.5t40 -114.5q0 -78 -44.5 -129.5t-119.5 -63.5v-116h-66v114q-100 10 -174 71zM170 507q0 -35 16.5 -59.5
t59.5 -44.5v212q-76 -22 -76 -108zM390 176q0 39 -18 63.5t-61 45.5v-221q79 21 79 112z" />
    <glyph glyph-name="percent" unicode="%" horiz-adv-x="748" 
d="M116 508q0 -115 70 -115q69 0 69 115t-69 115q-70 0 -70 -115zM322 508q0 -81 -35 -128.5t-101 -47.5q-67 0 -102 47.5t-35 128.5t35 128.5t102 47.5q66 0 101 -47.5t35 -128.5zM492 168q0 -115 70 -115q69 0 69 115t-69 115q-70 0 -70 -115zM698 168q0 -81 -35 -128.5
t-101 -47.5q-67 0 -102 47.5t-35 128.5t35 128.5t102 47.5q66 0 101 -47.5t35 -128.5zM192 0h-76v10l447 670h76v-10z" />
    <glyph glyph-name="ampersand" unicode="&#x26;" horiz-adv-x="659" 
d="M541 352l63 -43l-35 -61q-34 -59 -66 -102l124 -136v-10h-96l-78 86q-99 -101 -203 -101q-90 0 -140.5 49.5t-50.5 127.5q0 103 125 181l24 15l-9 11q-77 82 -77 154q0 71 45 121.5t125 50.5q76 0 122 -51.5t46 -119.5q0 -89 -97 -150l-43 -29l130 -142q7 10 53 85z
M253 61q81 0 151 80l-146 162l-22 -14q-90 -59 -90 -128q0 -44 28 -72t79 -28zM209 526q0 -59 57 -121l5 -6l45 28q57 36 57 100q0 40 -20.5 65.5t-60.5 25.5q-43 0 -63 -25.5t-20 -66.5z" />
    <glyph glyph-name="quotesingle" unicode="'" horiz-adv-x="226" 
d="M155 579l-16 -175h-52l-16 175v101h84v-101z" />
    <glyph glyph-name="parenleft" unicode="(" horiz-adv-x="281" 
d="M58 251q0 251 115 465l59 -30q-87 -203 -87 -436q0 -234 87 -437l-59 -29q-115 214 -115 467z" />
    <glyph glyph-name="parenright" unicode=")" horiz-adv-x="280" 
d="M222 251q0 -253 -115 -467l-59 29q87 196 87 437q0 240 -87 436l59 30q115 -214 115 -465z" />
    <glyph glyph-name="asterisk" unicode="*" horiz-adv-x="431" 
d="M186 484l-1 1l-91 -61l-35 61l96 50v2l-96 50l34 62l90 -61l2 1l-5 111h70l-7 -111l2 -1l91 61l35 -61l-96 -50v-2l96 -50l-34 -62l-93 62l-1 -1l7 -112h-70z" />
    <glyph glyph-name="plus" unicode="+" 
d="M312 501v-194h181v-74h-181v-195h-77v195h-179v74h179v194h77z" />
    <glyph glyph-name="comma" unicode="," horiz-adv-x="243" 
d="M43 -161v10l38 249h93v-10l-66 -249h-65z" />
    <glyph glyph-name="hyphen" unicode="-" horiz-adv-x="414" 
d="M339 233h-264v74h264v-74z" />
    <glyph glyph-name="period" unicode="." horiz-adv-x="248" 
d="M64 48q0 27 17 44.5t43 17.5q27 0 43.5 -17.5t16.5 -44.5q0 -28 -16.5 -45.5t-43.5 -17.5q-26 0 -43 17.5t-17 45.5z" />
    <glyph glyph-name="slash" unicode="/" horiz-adv-x="373" 
d="M107 0h-76v10l237 670h75v-10z" />
    <glyph glyph-name="zero" unicode="0" 
d="M129 340q0 -137 33 -208t114 -71q79 0 111.5 71t32.5 208t-32.5 208t-111.5 71q-81 0 -114 -71t-33 -208zM507 340q0 -355 -231 -355q-234 0 -234 355t234 355q231 0 231 -355z" />
    <glyph glyph-name="one" unicode="1" 
d="M125 550h-13v75l153 55h71v-606h131v-74h-365v74h147v517h-2z" />
    <glyph glyph-name="two" unicode="2" 
d="M183 76v-2h288v-74h-398v70l226 254l41 50t24.5 45.5t13.5 63.5q0 58 -33 97t-92 39q-76 0 -143 -63l-42 59q87 80 190 80q89 0 148 -59t59 -153q0 -61 -23 -104t-74 -101z" />
    <glyph glyph-name="three" unicode="3" 
d="M148 309v76h109q57 0 85 32.5t28 82.5q0 49 -30 84t-83 35q-77 0 -155 -35l-26 66q78 45 182 45q95 0 147 -51t52 -139q0 -51 -26.5 -94t-59.5 -58v-2q46 -19 73.5 -63.5t27.5 -105.5q0 -89 -61.5 -143t-158.5 -54q-115 0 -192 51l29 66q74 -41 162 -41q58 0 96 34t38 92
q0 122 -133 122h-104z" />
    <glyph glyph-name="four" unicode="4" 
d="M347 222v258h84v-258h77v-74h-77v-148h-84v148h-313v61l192 471h85l-184 -456v-2h220z" />
    <glyph glyph-name="five" unicode="5" 
d="M117 332l-12 14l37 334h308v-74h-240l-21 -195q40 2 63 2q221 0 221 -210q0 -105 -65 -161.5t-173 -56.5q-39 0 -88 12t-82 28l22 71q80 -35 148 -35q151 0 151 142q0 134 -142 134q-69 0 -127 -5z" />
    <glyph glyph-name="six" unicode="6" 
d="M354 680v-10l-156 -260l2 -2q14 13 42.5 24.5t55.5 11.5q88 0 143 -62t55 -164t-58.5 -167.5t-160.5 -65.5q-103 0 -161.5 65.5t-58.5 167.5q0 96 52 185l154 277h91zM409 218q0 69 -36 109.5t-96 40.5q-61 0 -97 -40.5t-36 -109.5q0 -70 36.5 -113.5t96.5 -43.5t96 43.5
t36 113.5z" />
    <glyph glyph-name="seven" unicode="7" 
d="M165 0v10l216 594v2h-303v74h394v-67l-218 -613h-89z" />
    <glyph glyph-name="eight" unicode="8" 
d="M275 61q67 0 101 34.5t34 93.5t-34 94t-101 35q-69 0 -102.5 -35t-33.5 -94t34.5 -93.5t101.5 -34.5zM275 695q99 0 148.5 -51.5t49.5 -136.5q0 -96 -86 -148v-2q47 -23 78.5 -68.5t31.5 -103.5q0 -90 -57.5 -145t-164.5 -55q-108 0 -165.5 55t-57.5 145q0 58 31.5 103.5
t79.5 68.5v2q-88 53 -88 148q0 85 50.5 136.5t149.5 51.5zM275 394q54 0 82.5 29.5t28.5 82.5t-28.5 83t-82.5 30q-55 0 -84 -30t-29 -83t29 -82.5t84 -29.5z" />
    <glyph glyph-name="nine" unicode="9" 
d="M195 0v10l156 260q-1 1 -1 2q-14 -13 -43 -24.5t-56 -11.5q-88 0 -143 62t-55 164t58.5 167.5t160.5 65.5q103 0 161.5 -65.5t58.5 -167.5q0 -92 -52 -185l-154 -277h-91zM140 462q0 -69 36 -109.5t96 -40.5q62 0 97.5 40.5t35.5 109.5q0 70 -36 113.5t-97 43.5
q-59 0 -95.5 -44t-36.5 -113z" />
    <glyph glyph-name="colon" unicode=":" horiz-adv-x="270" 
d="M75 435q0 27 17 44.5t43 17.5q27 0 43.5 -17.5t16.5 -44.5q0 -28 -16.5 -45.5t-43.5 -17.5q-26 0 -43 17.5t-17 45.5zM75 48q0 27 17 44.5t43 17.5q27 0 43.5 -17.5t16.5 -44.5q0 -28 -16.5 -45.5t-43.5 -17.5q-26 0 -43 17.5t-17 45.5z" />
    <glyph glyph-name="semicolon" unicode=";" horiz-adv-x="280" 
d="M57 -161v10l38 249h93v-10l-66 -249h-65zM86 435q0 27 17 44.5t43 17.5q27 0 43.5 -17.5t16.5 -44.5q0 -28 -16.5 -45.5t-43.5 -17.5q-26 0 -43 17.5t-17 45.5z" />
    <glyph glyph-name="less" unicode="&#x3c;" 
d="M482 25h-8l-429 211v69l429 211h8v-84l-349 -160v-3l349 -160v-84z" />
    <glyph glyph-name="equal" unicode="=" 
d="M493 343h-437v74h437v-74zM56 200h437v-74h-437v74z" />
    <glyph glyph-name="greater" unicode="&#x3e;" 
d="M75 25h-8v84l349 160v3l-349 160v84h8l429 -211v-69z" />
    <glyph glyph-name="question" unicode="?" horiz-adv-x="438" 
d="M230 207h-65v139q72 30 106 63t34 92q0 52 -27.5 85t-75.5 33q-67 0 -134 -52l-36 58q84 70 170 70q90 0 139.5 -52.5t49.5 -142.5q0 -128 -150 -200zM138 48q0 27 16 44.5t43 17.5q26 0 42 -17.5t16 -44.5q0 -28 -16 -45.5t-42 -17.5q-27 0 -43 17.5t-16 45.5z" />
    <glyph glyph-name="at" unicode="@" horiz-adv-x="903" 
d="M609 -43l22 -57q-86 -40 -194 -40q-172 0 -277.5 110.5t-105.5 293.5q0 122 49 223t149.5 164.5t235.5 63.5q171 0 270 -106t99 -263q0 -140 -64 -219t-148 -79q-71 0 -101 64h-1q-73 -52 -136 -52q-69 0 -111 45.5t-42 129.5q0 108 55 189.5t145 81.5q67 0 129 -48h1
l18 36h56l-50 -286q-7 -38 2.5 -67t40.5 -29q51 0 92 60.5t41 174.5q0 128 -77.5 216t-219.5 88q-110 0 -192.5 -54.5t-123 -141t-40.5 -190.5q0 -148 85 -244.5t223 -96.5q89 0 170 33zM522 160l39 244q-34 32 -90 32q-59 0 -97 -62t-38 -141q0 -48 23 -76t65 -28
q52 0 98 31z" />
    <glyph glyph-name="A" unicode="A" horiz-adv-x="595" 
d="M340 680l236 -680h-88l-57 176h-267l-58 -176h-87l236 680h85zM299 595h-2l-53 -184l-55 -165h216l-53 165z" />
    <glyph glyph-name="B" unicode="B" horiz-adv-x="593" 
d="M180 303v-229h146q124 0 124 115q0 61 -32 87.5t-93 26.5h-145zM96 680h205q210 0 210 -174q0 -58 -23.5 -99t-58.5 -54v-2q108 -37 108 -168q0 -87 -53 -135t-149 -48h-239v680zM180 606v-229h115q66 0 97.5 24.5t31.5 89.5t-30.5 90t-98.5 25h-115z" />
    <glyph glyph-name="C" unicode="C" horiz-adv-x="569" 
d="M62 340q0 162 75.5 258.5t213.5 96.5q79 0 167 -44l-23 -64q-67 32 -144 32q-102 0 -152 -74t-50 -205t50 -205t152 -74q77 0 144 32l23 -64q-88 -44 -167 -44q-138 0 -213.5 96.5t-75.5 258.5z" />
    <glyph glyph-name="D" unicode="D" horiz-adv-x="652" 
d="M96 0v680h172q169 0 244.5 -85t75.5 -255t-75.5 -255t-244.5 -85h-172zM180 74h77q140 0 192 62t52 204t-52 204t-192 62h-77v-532z" />
    <glyph glyph-name="E" unicode="E" horiz-adv-x="557" 
d="M96 680h397v-74h-313v-222h284v-74h-284v-236h316v-74h-400v680z" />
    <glyph glyph-name="F" unicode="F" horiz-adv-x="535" 
d="M96 680h397v-74h-313v-235h284v-74h-284v-297h-84v680z" />
    <glyph glyph-name="G" unicode="G" horiz-adv-x="625" 
d="M346 334h208v-279q-94 -70 -212 -70q-140 0 -209.5 96.5t-69.5 258.5q0 164 70.5 259.5t217.5 95.5q97 0 201 -65l-30 -64q-87 53 -171 53q-201 0 -201 -279q0 -129 46 -204t146 -75q83 0 128 32v167l-124 20v54z" />
    <glyph glyph-name="H" unicode="H" horiz-adv-x="670" 
d="M490 0v310h-310v-310h-84v680h84v-296h310v296h84v-680h-84z" />
    <glyph glyph-name="I" unicode="I" horiz-adv-x="276" 
d="M180 680v-680h-84v680h84z" />
    <glyph glyph-name="J" unicode="J" horiz-adv-x="444" 
d="M25 58l42 55q1 -1 8 -7t8.5 -7.5t8 -7t9.5 -7.5t9.5 -6t10.5 -5.5t11 -4.5t13 -4t13 -2t15 -1q48 0 72 33t24 115v471h84v-478q0 -110 -47 -163.5t-133 -53.5q-83 0 -148 73z" />
    <glyph glyph-name="K" unicode="K" horiz-adv-x="571" 
d="M182 311h-2v-311h-84v680h84v-335h2l258 335h97v-10l-270 -337l282 -323v-10h-105z" />
    <glyph glyph-name="L" unicode="L" horiz-adv-x="500" 
d="M96 680h84v-606h286v-74h-370v680z" />
    <glyph glyph-name="M" unicode="M" horiz-adv-x="804" 
d="M401 258h1l55 128l171 294h80v-680h-84v427l10 117h-2l-199 -373h-62l-199 373h-2l10 -117v-427h-84v680h80l170 -294z" />
    <glyph glyph-name="N" unicode="N" horiz-adv-x="678" 
d="M504 126h2l-8 127v427h84v-680h-88l-320 554h-2l8 -127v-427h-84v680h88z" />
    <glyph glyph-name="O" unicode="O" horiz-adv-x="680" 
d="M150 340q0 -279 191 -279q189 0 189 279t-189 279q-191 0 -191 -279zM617 340q0 -104 -27 -181.5t-90.5 -125.5t-158.5 -48q-141 0 -209.5 97t-68.5 258t68.5 258t209.5 97q95 0 158.5 -48t90.5 -125.5t27 -181.5z" />
    <glyph glyph-name="P" unicode="P" horiz-adv-x="562" 
d="M181 0h-85v680h214q101 0 155 -54t54 -153q0 -98 -54.5 -152.5t-154.5 -54.5h-129v-266zM181 606v-266h122q64 0 96.5 36t32.5 97q0 60 -32.5 96.5t-96.5 36.5h-122z" />
    <glyph glyph-name="Q" unicode="Q" horiz-adv-x="680" 
d="M617 340q0 -244 -143 -324l164 -77l-37 -76l-237 123q-3 0 -11 -0.5t-12 -0.5q-141 0 -209.5 97t-68.5 258t68.5 258t209.5 97q95 0 158.5 -48t90.5 -125.5t27 -181.5zM150 340q0 -279 191 -279q189 0 189 279t-189 279q-191 0 -191 -279z" />
    <glyph glyph-name="R" unicode="R" horiz-adv-x="611" 
d="M180 0h-84v680h235q97 0 151 -49.5t54 -143.5q0 -79 -39 -126.5t-110 -60.5l188 -284v-16h-92l-190 295h-113v-295zM180 369h146q60 0 91.5 30.5t31.5 87.5t-31.5 88t-91.5 31h-146v-237z" />
    <glyph glyph-name="S" unicode="S" horiz-adv-x="505" 
d="M49 57l39 66q68 -62 162 -62q53 0 84.5 30t31.5 85q0 42 -23.5 68.5t-78.5 50.5l-57 24q-144 62 -144 182q0 82 55 138t148 56q97 0 172 -52l-36 -66q-67 42 -140 42q-54 0 -83 -32t-29 -80q0 -36 19 -61.5t67 -45.5l57 -25q80 -35 120 -79.5t40 -114.5
q0 -87 -55.5 -141.5t-147.5 -54.5q-112 0 -201 72z" />
    <glyph glyph-name="T" unicode="T" horiz-adv-x="523" 
d="M36 680h451v-74h-183v-606h-86v606h-182v74z" />
    <glyph glyph-name="U" unicode="U" horiz-adv-x="662" 
d="M90 680h84v-428q0 -91 39 -141t119 -50q156 0 156 191v428h84v-439q0 -123 -59.5 -189.5t-180.5 -66.5q-242 0 -242 257v438z" />
    <glyph glyph-name="V" unicode="V" horiz-adv-x="593" 
d="M572 680v-10l-234 -670h-84l-233 670v10h88l136 -411l51 -186h2l51 187l134 410h89z" />
    <glyph glyph-name="W" unicode="W" horiz-adv-x="913" 
d="M882 680v-10l-181 -670h-85l-118 427l-40 171h-3l-40 -171l-117 -427h-86l-180 670v10h87l101 -410l36 -169h2l40 169l114 410h89l114 -410l40 -169h2l36 169l101 410h88z" />
    <glyph glyph-name="X" unicode="X" horiz-adv-x="553" 
d="M33 680h90l152 -279h2l153 279h90v-10l-191 -330l191 -330v-10h-90l-153 278h-2l-152 -278h-90v10l190 330l-190 330v10z" />
    <glyph glyph-name="Y" unicode="Y" horiz-adv-x="528" 
d="M15 680h90l158 -309h2l160 309h89v-10l-208 -382v-288h-84v288l-207 382v10z" />
    <glyph glyph-name="Z" unicode="Z" horiz-adv-x="521" 
d="M62 680h406v-71l-318 -533v-2h318v-74h-422v71l317 533v2h-301v74z" />
    <glyph glyph-name="bracketleft" unicode="[" horiz-adv-x="324" 
d="M88 700h195v-47l-111 -23v-758l111 -23v-47h-195v898z" />
    <glyph glyph-name="backslash" unicode="\" horiz-adv-x="373" 
d="M342 0h-76l-236 670v10h75l237 -670v-10z" />
    <glyph glyph-name="bracketright" unicode="]" horiz-adv-x="324" 
d="M41 700h195v-898h-195v47l111 23v758l-111 23v47z" />
    <glyph glyph-name="asciicircum" unicode="^" horiz-adv-x="472" 
d="M433 382v-10h-76l-118 242h-4l-118 -242h-76v10l166 318h61z" />
    <glyph glyph-name="underscore" unicode="_" horiz-adv-x="470" 
d="M395 -88h-320v66h320v-66z" />
    <glyph glyph-name="grave" unicode="`" horiz-adv-x="542" 
d="M196 700v10h91l59 -121v-10h-71z" />
    <glyph glyph-name="a" unicode="a" horiz-adv-x="494" 
d="M335 224h-91q-113 0 -113 -93q0 -76 79 -76q77 0 125 41v128zM417 0h-60l-8 44h-2q-73 -59 -155 -59q-67 0 -106 38.5t-39 107.5q0 151 190 151h98v31q0 52 -25.5 83t-77.5 31q-75 0 -128 -41l-34 57q69 54 165 54q90 0 136 -49t46 -137v-311z" />
    <glyph glyph-name="b" unicode="b" horiz-adv-x="546" 
d="M163 383v-284q47 -44 120 -44q66 0 95 52t29 134t-29 134t-95 52q-73 0 -120 -44zM81 700h82v-252h2q58 49 140 49q92 0 139 -72t47 -184t-47 -184t-139 -72q-76 0 -154 59h-1l-10 -44h-59v700z" />
    <glyph glyph-name="c" unicode="c" horiz-adv-x="463" 
d="M54 241q0 117 56.5 186.5t161.5 69.5q72 0 142 -36l-22 -61q-61 27 -117 27q-67 0 -102 -53.5t-35 -132.5q0 -78 35.5 -132t101.5 -54q56 0 117 27l22 -61q-70 -36 -142 -36q-105 0 -161.5 69.5t-56.5 186.5z" />
    <glyph glyph-name="d" unicode="d" horiz-adv-x="546" 
d="M383 99v284q-44 44 -120 44q-64 0 -94 -52.5t-30 -133.5t30 -133.5t94 -52.5q76 0 120 44zM383 700h82v-700h-58l-9 44h-2q-76 -59 -155 -59q-93 0 -139.5 72t-46.5 184t46.5 184t139.5 72q84 0 140 -49h2v252z" />
    <glyph glyph-name="e" unicode="e" horiz-adv-x="511" 
d="M455 220h-322q0 -68 41.5 -116.5t103.5 -48.5q72 0 133 44l31 -61q-74 -53 -171 -53q-108 0 -162.5 73t-54.5 185q0 105 54.5 179.5t153.5 74.5t148.5 -60t49.5 -148q0 -41 -5 -69zM137 282h242q1 7 1 23q0 53 -31 87.5t-87 34.5q-54 0 -87.5 -41.5t-37.5 -103.5z" />
    <glyph glyph-name="f" unicode="f" horiz-adv-x="350" 
d="M196 0h-82v415h-79v48l79 19v66q0 157 136 157q35 0 67 -6v-71q-28 7 -55 7q-66 0 -66 -77v-76h121v-67h-121v-415z" />
    <glyph glyph-name="g" unicode="g" horiz-adv-x="546" 
d="M383 103v280q-44 44 -120 44q-66 0 -95 -51t-29 -133q0 -184 124 -184q79 0 120 44zM465 482v-488q0 -93 -54 -150t-147 -57q-88 0 -161 35l22 60q57 -27 139 -27q55 0 87 34t32 96v52h-2q-61 -49 -139 -49q-93 0 -140 71.5t-47 183.5t47 183t140 71q82 0 153 -59h2
l11 44h57z" />
    <glyph glyph-name="h" unicode="h" horiz-adv-x="546" 
d="M469 0h-82v300q0 127 -100 127q-32 0 -68 -13t-56 -29v-385h-82v700h82v-251h2q68 48 143 48q77 0 119 -46t42 -137v-314z" />
    <glyph glyph-name="i" unicode="i" horiz-adv-x="244" 
d="M163 0h-82v482h82v-482zM70 633q0 25 14 40t38 15q25 0 39 -15t14 -40q0 -26 -14 -40.5t-39 -14.5q-24 0 -38 14.5t-14 40.5z" />
    <glyph glyph-name="j" unicode="j" horiz-adv-x="244" 
d="M81 482h82v-542q0 -73 -33 -113t-98 -40q-30 0 -63 7v65q20 -4 55 -4q57 0 57 83v544zM70 633q0 25 14 40t38 15q25 0 39 -15t14 -40q0 -26 -14 -40.5t-39 -14.5q-24 0 -38 14.5t-14 40.5z" />
    <glyph glyph-name="k" unicode="k" horiz-adv-x="483" 
d="M165 224h-2v-224h-82v700h82v-442h2l189 224h95v-7l-205 -232l212 -235v-8h-101z" />
    <glyph glyph-name="l" unicode="l" horiz-adv-x="252" 
d="M167 0h-82v700h82v-700z" />
    <glyph glyph-name="m" unicode="m" horiz-adv-x="844" 
d="M81 482h56l9 -44h3q79 59 157 59q95 0 132 -64h2q84 64 162 64q165 0 165 -183v-314h-82v300q0 66 -22.5 96.5t-78.5 30.5q-62 0 -124 -54q5 -25 5 -59v-314h-82v300q0 67 -20 97t-75 30q-64 0 -125 -43v-384h-82v482z" />
    <glyph glyph-name="n" unicode="n" horiz-adv-x="546" 
d="M81 482h58l10 -44h2q25 21 69.5 40t87.5 19q77 0 119 -46t42 -137v-314h-82v300q0 127 -100 127q-31 0 -67 -13.5t-57 -29.5v-384h-82v482z" />
    <glyph glyph-name="o" unicode="o" horiz-adv-x="545" 
d="M138 241q0 -83 31.5 -134.5t101.5 -51.5t103 52t33 134t-33 134t-103 52t-101.5 -51.5t-31.5 -134.5zM491 241q0 -113 -54.5 -184.5t-165.5 -71.5q-110 0 -163.5 71.5t-53.5 184.5t53.5 184.5t163.5 71.5q111 0 165.5 -71.5t54.5 -184.5z" />
    <glyph glyph-name="p" unicode="p" horiz-adv-x="546" 
d="M163 383v-284q44 -44 121 -44q65 0 94 52t29 134t-29 134t-94 52q-77 0 -121 -44zM81 482h58l10 -44h1q76 59 156 59q93 0 139 -71.5t46 -184.5t-46 -184.5t-139 -71.5q-81 0 -141 49h-2v-232h-82v680z" />
    <glyph glyph-name="q" unicode="q" horiz-adv-x="546" 
d="M383 99v284q-42 44 -120 44q-66 0 -95 -52t-29 -134t29 -134t95 -52q78 0 120 44zM465 482v-680h-82v232h-2q-60 -49 -140 -49q-94 0 -140 71.5t-46 184.5t46 184.5t140 71.5q76 0 155 -59h2l10 44h57z" />
    <glyph glyph-name="r" unicode="r" horiz-adv-x="349" 
d="M81 482h58l10 -51h2q43 66 124 66q26 0 47 -7l-12 -73q-22 6 -45 6q-70 0 -102 -64v-359h-82v482z" />
    <glyph glyph-name="s" unicode="s" horiz-adv-x="430" 
d="M48 31l29 65q64 -41 131 -41q44 0 66.5 20.5t22.5 53.5q0 25 -15.5 40.5t-49.5 27.5l-54 18q-58 20 -90 51.5t-32 84.5q0 62 45.5 104t120.5 42q77 0 150 -34l-27 -66q-60 30 -120 30q-42 0 -63.5 -21t-21.5 -53q0 -46 63 -67l53 -16q125 -37 125 -140q0 -63 -45.5 -104
t-122.5 -41q-94 0 -165 46z" />
    <glyph glyph-name="t" unicode="t" horiz-adv-x="365" 
d="M122 594h82v-112h128v-67h-128v-290q0 -70 58 -70q18 0 70 12v-68q-53 -14 -87 -14q-57 0 -90 33t-33 98v299h-89v48l89 19v112z" />
    <glyph glyph-name="u" unicode="u" horiz-adv-x="540" 
d="M77 482h82v-300q0 -64 23 -95.5t73 -31.5q32 0 67 13.5t55 29.5v384h82v-482h-58l-9 44h-2q-81 -59 -155 -59q-76 0 -117 46t-41 137v314z" />
    <glyph glyph-name="v" unicode="v" horiz-adv-x="481" 
d="M452 482v-10l-172 -472h-78l-173 472v10h81l103 -305l26 -93h2l26 93l104 305h81z" />
    <glyph glyph-name="w" unicode="w" horiz-adv-x="767" 
d="M735 482v-10l-151 -472h-79l-99 312l-22 90h-2l-22 -90l-98 -312h-79l-151 472v10h83l89 -305l20 -88h2l21 88l94 305h84l95 -305l21 -88h2l20 88l89 305h83z" />
    <glyph glyph-name="x" unicode="x" horiz-adv-x="469" 
d="M236 189h-2l-114 -189h-85v10l152 231l-152 231v10h85l114 -190h2l113 190h85v-10l-152 -231l152 -231v-10h-85z" />
    <glyph glyph-name="y" unicode="y" horiz-adv-x="481" 
d="M450 482v-10l-185 -537q-51 -148 -153 -148q-32 0 -81 13v67q46 -12 74 -12t45 21t33 64l22 65l-178 467v10h81l105 -305l28 -95h2l26 95l101 305h80z" />
    <glyph glyph-name="z" unicode="z" horiz-adv-x="427" 
d="M57 482h320v-50l-232 -364v-2h232v-66h-333v50l232 364v2h-219v66z" />
    <glyph glyph-name="braceleft" unicode="{" horiz-adv-x="328" 
d="M44 214v74q37 0 54 16.5t17 55.5v194q0 73 31 109.5t120 36.5h18v-52q-53 0 -70 -19.5t-17 -76.5v-183q0 -92 -71 -117v-2q71 -25 71 -117v-183q0 -57 17 -76.5t70 -19.5v-52h-18q-89 0 -120 36.5t-31 109.5v194q0 39 -17 55.5t-54 16.5z" />
    <glyph glyph-name="bar" unicode="|" horiz-adv-x="242" 
d="M154 700v-898h-66v898h66z" />
    <glyph glyph-name="braceright" unicode="}" horiz-adv-x="328" 
d="M284 288v-74q-37 0 -54 -16.5t-17 -55.5v-194q0 -73 -31 -109.5t-120 -36.5h-18v52q52 0 69.5 20t17.5 76v183q0 93 71 117v2q-71 24 -71 117v183q0 56 -17.5 76t-69.5 20v52h18q89 0 120 -36.5t31 -109.5v-194q0 -39 17 -55.5t54 -16.5z" />
    <glyph glyph-name="asciitilde" unicode="~" horiz-adv-x="489" 
d="M93 212l-33 47q43 80 112 80q30 0 80 -32.5t75 -32.5q41 0 70 40l33 -48q-45 -62 -108 -62q-28 0 -80 32.5t-72 32.5q-39 0 -77 -57z" />
    <glyph glyph-name="uni00A0" unicode="&#xa0;" horiz-adv-x="245" 
 />
    <glyph glyph-name="exclamdown" unicode="&#xa1;" horiz-adv-x="248" 
d="M83 -25l15 300h53l16 -300v-173h-84v173zM182 434q0 -27 -16 -44.5t-42 -17.5q-27 0 -42.5 17.5t-15.5 44.5q0 28 15.5 45.5t42.5 17.5q26 0 42 -17.5t16 -45.5z" />
    <glyph glyph-name="cent" unicode="&#xa2;" 
d="M96 241q0 105 46 173t133 80v84h66v-83q61 -6 115 -34l-22 -61q-36 19 -93 25v-369q55 6 93 26l22 -61q-50 -28 -115 -34v-83h-66v84q-88 12 -133.5 79.5t-45.5 173.5zM180 241q0 -65 24 -114t71 -66v359q-47 -16 -71 -65.5t-24 -113.5z" />
    <glyph glyph-name="sterling" unicode="&#xa3;" 
d="M402 300h-167q7 -68 7 -98q0 -41 -15.5 -75t-36.5 -51v-2h288v-74h-393v62l7 6q8 7 10.5 9.5l10 10t11 12.5l9.5 14t9.5 17t7 18t5 21t1.5 23q0 29 -8 107h-79v66h72q-10 67 -10 134q0 88 54.5 141.5t135.5 53.5q82 0 154 -43l-27 -64q-63 31 -127 31q-44 0 -74 -30.5
t-30 -85.5q0 -54 11 -137h174v-66z" />
    <glyph glyph-name="currency" unicode="&#xa4;" horiz-adv-x="569" 
d="M445 270q0 -57 -22 -100l89 -92l-49 -49l-85 86q-40 -30 -101 -30q-55 0 -91 24l-80 -81l-49 49l80 85q-25 46 -25 108q0 60 25 106l-82 88l49 49l81 -83q37 25 92 25q62 0 102 -31l85 88l49 -49l-89 -94q21 -45 21 -99zM188 270q0 -48 23.5 -80.5t65.5 -32.5
q44 0 68.5 32.5t24.5 80.5t-24.5 80.5t-68.5 32.5q-42 0 -65.5 -32.5t-23.5 -80.5z" />
    <glyph glyph-name="yen" unicode="&#xa5;" 
d="M496 374v-66h-181v-99h181v-66h-181v-143h-84v143h-178v66h178v99h-178v66h140l-169 296v10h90l158 -289h2l160 289h89v-10l-170 -296h143z" />
    <glyph glyph-name="brokenbar" unicode="&#xa6;" horiz-adv-x="248" 
d="M91 134h66v-332h-66v332zM157 368h-66v332h66v-332z" />
    <glyph glyph-name="section" unicode="&#xa7;" horiz-adv-x="524" 
d="M300 324l-88 39q-55 -28 -55 -87q0 -58 74 -89l90 -40q54 32 54 86q0 58 -75 91zM385 116v-2q77 -51 77 -126t-54 -121t-149 -46q-102 0 -200 60l36 73q83 -57 164 -57q52 0 83.5 24t31.5 64q0 25 -20 44.5t-61 38.5l-92 40q-131 56 -131 151q0 86 78 134v3
q-78 48 -78 127q0 75 53.5 123.5t149.5 48.5q91 0 171 -44l-33 -70q-74 38 -138 38q-55 0 -85.5 -25.5t-30.5 -62.5q0 -27 18.5 -46.5t67.5 -42.5l84 -39q135 -63 135 -156q0 -72 -77 -131z" />
    <glyph glyph-name="dieresis" unicode="&#xa8;" horiz-adv-x="542" 
d="M308 633q0 25 14 40t38 15q25 0 39 -15t14 -40q0 -26 -14 -40.5t-39 -14.5q-24 0 -38 14.5t-14 40.5zM125 633q0 25 14 40t38 15q25 0 39 -15t14 -40q0 -26 -14 -40.5t-39 -14.5q-24 0 -38 14.5t-14 40.5z" />
    <glyph glyph-name="copyright" unicode="&#xa9;" horiz-adv-x="828" 
d="M59 340q0 151 102 253t253 102t253 -102t102 -253t-102 -253t-253 -102t-253 102t-102 253zM115 340q0 -129 85 -215.5t214 -86.5t214 86.5t85 215.5t-85 215.5t-214 86.5t-214 -86.5t-85 -215.5zM230 340q0 90 48 142.5t137 52.5q55 0 108 -24l-19 -56q-42 19 -89 19
q-54 0 -83 -36t-29 -98t29 -98t83 -36q47 0 89 19l19 -56q-53 -24 -108 -24q-89 0 -137 52.5t-48 142.5z" />
    <glyph glyph-name="ordfeminine" unicode="&#xaa;" horiz-adv-x="410" 
d="M254 484h-38q-73 0 -73 -43q0 -41 43 -41q34 0 68 23v61zM323 350h-51l-9 27h-1q-44 -36 -92 -36q-44 0 -69.5 25.5t-25.5 69.5q0 96 132 96h47v15q0 57 -56 57q-47 0 -88 -23l-20 52q49 30 111 30q59 0 90.5 -32t31.5 -90v-191zM323 213h-244v59h244v-59z" />
    <glyph glyph-name="guillemotleft" unicode="&#xab;" horiz-adv-x="493" 
d="M47 264v12l141 209l57 -38l-106 -177l106 -177l-57 -38zM239 264v12l141 209l57 -38l-106 -177l106 -177l-57 -38z" />
    <glyph glyph-name="logicalnot" unicode="&#xac;" 
d="M423 106v127h-369v74h437v-201h-68z" />
    <glyph glyph-name="uni00AD" unicode="&#xad;" horiz-adv-x="414" 
d="M339 233h-264v74h264v-74z" />
    <glyph glyph-name="registered" unicode="&#xae;" horiz-adv-x="574" 
d="M59 561q0 97 65.5 163t162.5 66t162.5 -66t65.5 -163t-65.5 -162.5t-162.5 -65.5t-162.5 65.5t-65.5 162.5zM106 561q0 -78 51.5 -130.5t129.5 -52.5t129.5 52.5t51.5 130.5t-51.5 131t-129.5 53t-129.5 -53t-51.5 -131zM248 455h-47v218h93q38 0 57.5 -17t19.5 -48
q0 -55 -49 -65l63 -83v-5h-51l-61 85h-25v-85zM248 580h39q20 0 28.5 6t8.5 22q0 14 -8.5 19.5t-28.5 5.5h-39v-53z" />
    <glyph glyph-name="macron" unicode="&#xaf;" horiz-adv-x="542" 
d="M392 597h-243v74h243v-74z" />
    <glyph glyph-name="degree" unicode="&#xb0;" horiz-adv-x="418" 
d="M126 544q0 -38 24 -62.5t60 -24.5t60 24.5t24 62.5q0 36 -24 60t-60 24t-60 -24t-24 -60zM56 544q0 68 43.5 109.5t110.5 41.5q66 0 109 -41.5t43 -109.5q0 -69 -43 -111.5t-109 -42.5t-110 42.5t-44 111.5z" />
    <glyph glyph-name="plusminus" unicode="&#xb1;" 
d="M309 621v-194h184v-74h-184v-175h-71v175h-182v74h182v194h71zM56 74h437v-74h-437v74z" />
    <glyph glyph-name="twosuperior" unicode="&#xb2;" horiz-adv-x="301" 
d="M126 523v-1h138v-60h-230v51l127 117q32 29 32 64q0 27 -15.5 40t-38.5 13q-35 0 -72 -37l-34 48q50 50 111 50q50 0 83 -29t33 -79q0 -61 -52 -105z" />
    <glyph glyph-name="threesuperior" unicode="&#xb3;" horiz-adv-x="302" 
d="M78 602v60h56q56 0 56 42q0 43 -55 43q-43 0 -80 -17l-19 55q43 23 102 23q56 0 87.5 -25.5t31.5 -68.5q0 -30 -15 -49.5t-35 -25.5v-1q58 -21 58 -85q0 -46 -33.5 -72.5t-97.5 -26.5q-59 0 -106 26l17 57q46 -22 87 -22q67 0 67 47q0 40 -65 40h-56z" />
    <glyph glyph-name="acute" unicode="&#xb4;" horiz-adv-x="542" 
d="M346 710v-10l-79 -121h-71v10l59 121h91z" />
    <glyph glyph-name="mu" unicode="&#xb5;" horiz-adv-x="540" 
d="M170 -198h-82v680h82v-300q0 -64 23 -95.5t73 -31.5q32 0 67 13.5t55 29.5v384h82v-482h-58l-9 44h-2q-81 -59 -155 -59q-44 0 -84 28l8 -72v-139z" />
    <glyph glyph-name="paragraph" unicode="&#xb6;" horiz-adv-x="507" 
d="M164 -198v614q-56 0 -92.5 34.5t-36.5 96.5t36.5 97.5t92.5 35.5h308v-61h-86v-817h-67v817h-88v-817h-67z" />
    <glyph glyph-name="periodcentered" unicode="&#xb7;" horiz-adv-x="256" 
d="M68 288q0 27 17 44.5t43 17.5q27 0 43.5 -17.5t16.5 -44.5q0 -28 -16.5 -45.5t-43.5 -17.5q-26 0 -43 17.5t-17 45.5z" />
    <glyph glyph-name="cedilla" unicode="&#xb8;" horiz-adv-x="542" 
d="M231 -83l-5 10l27 80h62l-21 -55q65 -12 65 -72q0 -93 -108 -93q-39 0 -69 14l13 55q26 -11 48 -11q45 0 45 35q0 37 -57 37z" />
    <glyph glyph-name="onesuperior" unicode="&#xb9;" horiz-adv-x="245" 
d="M31 688h-7v58l118 54h48v-338h-64v266h-1z" />
    <glyph glyph-name="ordmasculine" unicode="&#xba;" horiz-adv-x="416" 
d="M132 502q0 -98 75 -98q77 0 77 98t-77 98q-75 0 -75 -98zM355 502q0 -70 -38 -115.5t-110 -45.5q-71 0 -108.5 45.5t-37.5 115.5t37.5 115.5t108.5 45.5q72 0 110 -45.5t38 -115.5zM329 213h-243v59h243v-59z" />
    <glyph glyph-name="guillemotright" unicode="&#xbb;" horiz-adv-x="493" 
d="M254 276v-12l-141 -209l-57 38l106 177l-106 177l57 38zM446 276v-12l-141 -209l-57 38l106 177l-106 177l57 38z" />
    <glyph glyph-name="onequarter" unicode="&#xbc;" horiz-adv-x="687" 
d="M535 131v108h65v-108h38v-59h-38v-72h-65v72h-164v52l89 214h69l-85 -206v-1h91zM51 568h-7v58l118 54h48v-338h-64v266h-1zM156 0h-76v10l447 670h76v-10z" />
    <glyph glyph-name="onehalf" unicode="&#xbd;" horiz-adv-x="702" 
d="M51 566h-7v58l118 54h48v-338h-64v266h-1zM508 61v-1h138v-60h-230v51l127 117q32 29 32 64q0 27 -15.5 40t-38.5 13q-35 0 -72 -37l-34 48q50 50 111 50q50 0 83 -29t33 -79q0 -61 -52 -105zM155 0h-76v10l447 670h76v-10z" />
    <glyph glyph-name="threequarters" unicode="&#xbe;" horiz-adv-x="732" 
d="M580 131v108h65v-108h38v-59h-38v-72h-65v72h-164v52l89 214h69l-85 -206v-1h91zM98 479v60h56q56 0 56 42q0 43 -55 43q-43 0 -80 -17l-19 55q43 23 102 23q56 0 87.5 -25.5t31.5 -68.5q0 -30 -15 -49.5t-35 -25.5v-1q58 -21 58 -85q0 -46 -33.5 -72.5t-97.5 -26.5
q-59 0 -106 26l17 57q46 -22 87 -22q67 0 67 47q0 40 -65 40h-56zM201 0h-76v10l447 670h76v-10z" />
    <glyph glyph-name="questiondown" unicode="&#xbf;" horiz-adv-x="432" 
d="M205 275h65v-139q-72 -30 -106 -63t-34 -92q0 -52 27.5 -85t75.5 -33q67 0 134 52l36 -58q-89 -70 -170 -70q-90 0 -139.5 52.5t-49.5 142.5q0 128 150 200zM297 434q0 -27 -16 -44.5t-43 -17.5q-26 0 -42 17.5t-16 44.5q0 28 16 45.5t42 17.5q27 0 43 -17.5t16 -45.5z
" />
    <glyph glyph-name="Agrave" unicode="&#xc0;" horiz-adv-x="595" 
d="M188 873v10h90l60 -121v-10h-71zM340 680l236 -680h-88l-57 176h-267l-58 -176h-87l236 680h85zM299 595h-2l-53 -184l-55 -165h216l-53 165z" />
    <glyph glyph-name="Aacute" unicode="&#xc1;" horiz-adv-x="595" 
d="M340 680l236 -680h-88l-57 176h-267l-58 -176h-87l236 680h85zM299 595h-2l-53 -184l-55 -165h216l-53 165zM408 883v-10l-79 -121h-71v10l60 121h90z" />
    <glyph glyph-name="Acircumflex" unicode="&#xc2;" horiz-adv-x="595" 
d="M340 680l236 -680h-88l-57 176h-267l-58 -176h-87l236 680h85zM299 595h-2l-53 -184l-55 -165h216l-53 165zM344 883l86 -121v-10h-75l-58 71l-58 -71h-75v10l86 121h94z" />
    <glyph glyph-name="Atilde" unicode="&#xc3;" horiz-adv-x="595" 
d="M340 680l236 -680h-88l-57 176h-267l-58 -176h-87l236 680h85zM299 595h-2l-53 -184l-55 -165h216l-53 165zM181 767l-25 50q36 57 83 57q20 0 60.5 -20t59.5 -20q30 0 54 35l25 -50q-40 -57 -83 -57q-21 0 -61 20t-60 20q-28 0 -53 -35z" />
    <glyph glyph-name="Adieresis" unicode="&#xc4;" horiz-adv-x="595" 
d="M340 680l236 -680h-88l-57 176h-267l-58 -176h-87l236 680h85zM299 595h-2l-53 -184l-55 -165h216l-53 165zM143 816q0 25 14 40t38 15q25 0 39 -15t14 -40q0 -26 -14 -40.5t-39 -14.5q-24 0 -38 14.5t-14 40.5zM346 816q0 25 14 40t38 15q25 0 39 -15t14 -40
q0 -26 -14 -40.5t-39 -14.5q-24 0 -38 14.5t-14 40.5z" />
    <glyph glyph-name="Aring" unicode="&#xc5;" horiz-adv-x="595" 
d="M205 721q0 44 25.5 68.5t68.5 24.5t68 -24.5t25 -68.5q0 -54 -39 -79l223 -642h-88l-57 176h-267l-58 -176h-87l223 642q-37 25 -37 79zM299 595h-2l-53 -184l-55 -165h216l-53 165zM259 721q0 -40 40 -40t40 40q0 39 -40 39t-40 -39z" />
    <glyph glyph-name="AE" unicode="&#xc6;" horiz-adv-x="850" 
d="M0 0v10l364 670h422v-74h-313v-222h284v-74h-284v-236h316v-74h-400v176h-212l-97 -176h-80zM399 595h-2l-71 -142l-111 -207h174v196z" />
    <glyph glyph-name="Ccedilla" unicode="&#xc7;" horiz-adv-x="569" 
d="M63 340q0 162 75.5 258.5t213.5 96.5q79 0 167 -44l-23 -64q-67 32 -144 32q-102 0 -152 -74t-50 -205t50 -205t152 -74q77 0 144 32l23 -64q-85 -42 -166 -44l-11 -33q65 -12 65 -72q0 -93 -108 -93q-43 0 -69 14l12 55q26 -11 49 -11t33.5 7.5t10.5 27.5q0 37 -56 37
l-5 10l19 63q-110 20 -170 113.5t-60 236.5z" />
    <glyph glyph-name="Egrave" unicode="&#xc8;" horiz-adv-x="557" 
d="M96 680h397v-74h-313v-222h284v-74h-284v-236h316v-74h-400v680zM183 873v10h90l60 -121v-10h-71z" />
    <glyph glyph-name="Eacute" unicode="&#xc9;" horiz-adv-x="557" 
d="M96 680h397v-74h-313v-222h284v-74h-284v-236h316v-74h-400v680zM407 883v-10l-79 -121h-71v10l60 121h90z" />
    <glyph glyph-name="Ecircumflex" unicode="&#xca;" horiz-adv-x="557" 
d="M96 680h397v-74h-313v-222h284v-74h-284v-236h316v-74h-400v680zM346 883l86 -121v-10h-75l-58 71l-58 -71h-75v10l86 121h94z" />
    <glyph glyph-name="Edieresis" unicode="&#xcb;" horiz-adv-x="557" 
d="M96 680h397v-74h-313v-222h284v-74h-284v-236h316v-74h-400v680zM137 816q0 25 14 40t38 15q25 0 39 -15t14 -40q0 -26 -14 -40.5t-39 -14.5q-24 0 -38 14.5t-14 40.5zM340 816q0 25 14 40t38 15q25 0 39 -15t14 -40q0 -26 -14 -40.5t-39 -14.5q-24 0 -38 14.5t-14 40.5z
" />
    <glyph glyph-name="Igrave" unicode="&#xcc;" horiz-adv-x="276" 
d="M180 680v-680h-84v680h84zM23 873v10h90l60 -121v-10h-71z" />
    <glyph glyph-name="Iacute" unicode="&#xcd;" horiz-adv-x="276" 
d="M180 680v-680h-84v680h84zM249 883v-10l-79 -121h-71v10l60 121h90z" />
    <glyph glyph-name="Icircumflex" unicode="&#xce;" horiz-adv-x="276" 
d="M180 680v-680h-84v680h84zM179 883l86 -121v-10h-75l-58 71l-58 -71h-75v10l86 121h94z" />
    <glyph glyph-name="Idieresis" unicode="&#xcf;" horiz-adv-x="276" 
d="M180 680v-680h-84v680h84zM-21 816q0 25 14 40t38 15q25 0 39 -15t14 -40q0 -26 -14 -40.5t-39 -14.5q-24 0 -38 14.5t-14 40.5zM182 816q0 25 14 40t38 15q25 0 39 -15t14 -40q0 -26 -14 -40.5t-39 -14.5q-24 0 -38 14.5t-14 40.5z" />
    <glyph glyph-name="Eth" unicode="&#xd0;" horiz-adv-x="655" 
d="M40 299v74h59v307h172q169 0 244.5 -85t75.5 -255t-75.5 -255t-244.5 -85h-172v299h-59zM183 74h77q140 0 192 62t52 204t-52 204t-192 62h-77v-233h138v-74h-138v-225z" />
    <glyph glyph-name="Ntilde" unicode="&#xd1;" horiz-adv-x="678" 
d="M504 126h2l-8 127v427h84v-680h-88l-320 554h-2l8 -127v-427h-84v680h88zM219 767l-25 50q36 57 83 57q20 0 60.5 -20t59.5 -20q30 0 54 35l25 -50q-40 -57 -83 -57q-21 0 -61 20t-60 20q-28 0 -53 -35z" />
    <glyph glyph-name="Ograve" unicode="&#xd2;" horiz-adv-x="680" 
d="M150 340q0 -279 191 -279q189 0 189 279t-189 279q-191 0 -191 -279zM617 340q0 -104 -27 -181.5t-90.5 -125.5t-158.5 -48q-141 0 -209.5 97t-68.5 258t68.5 258t209.5 97q95 0 158.5 -48t90.5 -125.5t27 -181.5zM237 873v10h90l60 -121v-10h-71z" />
    <glyph glyph-name="Oacute" unicode="&#xd3;" horiz-adv-x="680" 
d="M150 340q0 -279 191 -279q189 0 189 279t-189 279q-191 0 -191 -279zM617 340q0 -104 -27 -181.5t-90.5 -125.5t-158.5 -48q-141 0 -209.5 97t-68.5 258t68.5 258t209.5 97q95 0 158.5 -48t90.5 -125.5t27 -181.5zM454 883v-10l-79 -121h-71v10l60 121h90z" />
    <glyph glyph-name="Ocircumflex" unicode="&#xd4;" horiz-adv-x="680" 
d="M150 340q0 -279 191 -279q189 0 189 279t-189 279q-191 0 -191 -279zM617 340q0 -104 -27 -181.5t-90.5 -125.5t-158.5 -48q-141 0 -209.5 97t-68.5 258t68.5 258t209.5 97q95 0 158.5 -48t90.5 -125.5t27 -181.5zM392 883l86 -121v-10h-75l-58 71l-58 -71h-75v10l86 121
h94z" />
    <glyph glyph-name="Otilde" unicode="&#xd5;" horiz-adv-x="680" 
d="M150 340q0 -279 191 -279q189 0 189 279t-189 279q-191 0 -191 -279zM617 340q0 -104 -27 -181.5t-90.5 -125.5t-158.5 -48q-141 0 -209.5 97t-68.5 258t68.5 258t209.5 97q95 0 158.5 -48t90.5 -125.5t27 -181.5zM228 767l-25 50q36 57 83 57q20 0 60.5 -20t59.5 -20
q30 0 54 35l25 -50q-40 -57 -83 -57q-21 0 -61 20t-60 20q-28 0 -53 -35z" />
    <glyph glyph-name="Odieresis" unicode="&#xd6;" horiz-adv-x="680" 
d="M150 340q0 -279 191 -279q189 0 189 279t-189 279q-191 0 -191 -279zM617 340q0 -104 -27 -181.5t-90.5 -125.5t-158.5 -48q-141 0 -209.5 97t-68.5 258t68.5 258t209.5 97q95 0 158.5 -48t90.5 -125.5t27 -181.5zM190 816q0 25 14 40t38 15q25 0 39 -15t14 -40
q0 -26 -14 -40.5t-39 -14.5q-24 0 -38 14.5t-14 40.5zM393 816q0 25 14 40t38 15q25 0 39 -15t14 -40q0 -26 -14 -40.5t-39 -14.5q-24 0 -38 14.5t-14 40.5z" />
    <glyph glyph-name="multiply" unicode="&#xd7;" 
d="M122 476l152 -158l152 157l48 -49l-152 -157l154 -158l-48 -49l-153 158l-151 -155l-48 49l150 155l-152 158z" />
    <glyph glyph-name="Oslash" unicode="&#xd8;" horiz-adv-x="680" 
d="M153 -25l-53 35l38 63q-75 92 -75 267q0 161 68.5 258t209.5 97q89 0 153 -43l37 58l55 -33l-44 -70q75 -94 75 -267q0 -104 -27 -181.5t-90.5 -125.5t-158.5 -48q-93 0 -154 43zM530 340q0 121 -36 189l-265 -432q43 -36 112 -36q189 0 189 279zM150 340q0 -124 36 -189
l266 432q-44 36 -111 36q-191 0 -191 -279z" />
    <glyph glyph-name="Ugrave" unicode="&#xd9;" horiz-adv-x="662" 
d="M90 680h84v-428q0 -91 39 -141t119 -50q156 0 156 191v428h84v-439q0 -123 -59.5 -189.5t-180.5 -66.5q-242 0 -242 257v438zM217 873v10h90l60 -121v-10h-71z" />
    <glyph glyph-name="Uacute" unicode="&#xda;" horiz-adv-x="662" 
d="M90 680h84v-428q0 -91 39 -141t119 -50q156 0 156 191v428h84v-439q0 -123 -59.5 -189.5t-180.5 -66.5q-242 0 -242 257v438zM436 883v-10l-79 -121h-71v10l60 121h90z" />
    <glyph glyph-name="Ucircumflex" unicode="&#xdb;" horiz-adv-x="662" 
d="M90 680h84v-428q0 -91 39 -141t119 -50q156 0 156 191v428h84v-439q0 -123 -59.5 -189.5t-180.5 -66.5q-242 0 -242 257v438zM374 883l86 -121v-10h-75l-58 71l-58 -71h-75v10l86 121h94z" />
    <glyph glyph-name="Udieresis" unicode="&#xdc;" horiz-adv-x="662" 
d="M90 680h84v-428q0 -91 39 -141t119 -50q156 0 156 191v428h84v-439q0 -123 -59.5 -189.5t-180.5 -66.5q-242 0 -242 257v438zM173 816q0 25 14 40t38 15q25 0 39 -15t14 -40q0 -26 -14 -40.5t-39 -14.5q-24 0 -38 14.5t-14 40.5zM376 816q0 25 14 40t38 15q25 0 39 -15
t14 -40q0 -26 -14 -40.5t-39 -14.5q-24 0 -38 14.5t-14 40.5z" />
    <glyph glyph-name="Yacute" unicode="&#xdd;" horiz-adv-x="528" 
d="M15 680h90l158 -309h2l160 309h89v-10l-208 -382v-288h-84v288l-207 382v10zM379 883v-10l-79 -121h-71v10l60 121h90z" />
    <glyph glyph-name="Thorn" unicode="&#xde;" horiz-adv-x="571" 
d="M181 0h-85v680h85v-124h136q202 0 202 -207t-202 -207h-136v-142zM181 482v-266h129q62 0 92 36t30 97t-30 97t-92 36h-129z" />
    <glyph glyph-name="germandbls" unicode="&#xdf;" horiz-adv-x="571" 
d="M81 0v490q0 106 49 160.5t143 54.5q95 0 144 -49t49 -131q0 -98 -81 -147v-2q54 -14 94 -60t40 -118q0 -106 -58.5 -159.5t-160.5 -53.5q-35 0 -46 3v69q30 -2 46 -2q135 0 135 142q0 64 -35.5 100t-109.5 36h-14v74h19q44 0 65.5 31t21.5 82q0 52 -27 83.5t-79 31.5
q-59 0 -86 -37t-27 -115v-483h-82z" />
    <glyph glyph-name="agrave" unicode="&#xe0;" horiz-adv-x="494" 
d="M335 224h-91q-113 0 -113 -93q0 -76 79 -76q77 0 125 41v128zM417 0h-60l-8 44h-2q-73 -59 -155 -59q-67 0 -106 38.5t-39 107.5q0 151 190 151h98v31q0 52 -25.5 83t-77.5 31q-75 0 -128 -41l-34 57q69 54 165 54q90 0 136 -49t46 -137v-311zM134 700v10h91l59 -121v-10
h-71z" />
    <glyph glyph-name="aacute" unicode="&#xe1;" horiz-adv-x="494" 
d="M335 224h-91q-113 0 -113 -93q0 -76 79 -76q77 0 125 41v128zM417 0h-60l-8 44h-2q-73 -59 -155 -59q-67 0 -106 38.5t-39 107.5q0 151 190 151h98v31q0 52 -25.5 83t-77.5 31q-75 0 -128 -41l-34 57q69 54 165 54q90 0 136 -49t46 -137v-311zM355 710v-10l-79 -121h-71
v10l59 121h91z" />
    <glyph glyph-name="acircumflex" unicode="&#xe2;" horiz-adv-x="494" 
d="M335 224h-91q-113 0 -113 -93q0 -76 79 -76q77 0 125 41v128zM417 0h-60l-8 44h-2q-73 -59 -155 -59q-67 0 -106 38.5t-39 107.5q0 151 190 151h98v31q0 52 -25.5 83t-77.5 31q-75 0 -128 -41l-34 57q69 54 165 54q90 0 136 -49t46 -137v-311zM288 710l86 -121v-10h-75
l-58 84l-58 -84h-75v10l86 121h94z" />
    <glyph glyph-name="atilde" unicode="&#xe3;" horiz-adv-x="494" 
d="M335 224h-91q-113 0 -113 -93q0 -76 79 -76q77 0 125 41v128zM417 0h-60l-8 44h-2q-73 -59 -155 -59q-67 0 -106 38.5t-39 107.5q0 151 190 151h98v31q0 52 -25.5 83t-77.5 31q-75 0 -128 -41l-34 57q69 54 165 54q90 0 136 -49t46 -137v-311zM126 584l-25 50
q36 57 83 57q20 0 60.5 -20t59.5 -20q30 0 54 35l25 -50q-40 -57 -83 -57q-21 0 -61 20t-60 20q-28 0 -53 -35z" />
    <glyph glyph-name="adieresis" unicode="&#xe4;" horiz-adv-x="494" 
d="M335 224h-91q-113 0 -113 -93q0 -76 79 -76q77 0 125 41v128zM417 0h-60l-8 44h-2q-73 -59 -155 -59q-67 0 -106 38.5t-39 107.5q0 151 190 151h98v31q0 52 -25.5 83t-77.5 31q-75 0 -128 -41l-34 57q69 54 165 54q90 0 136 -49t46 -137v-311zM281 633q0 25 14 40t38 15
q25 0 39 -15t14 -40q0 -26 -14 -40.5t-39 -14.5q-24 0 -38 14.5t-14 40.5zM98 633q0 25 14 40t38 15q25 0 39 -15t14 -40q0 -26 -14 -40.5t-39 -14.5q-24 0 -38 14.5t-14 40.5z" />
    <glyph glyph-name="aring" unicode="&#xe5;" horiz-adv-x="494" 
d="M335 224h-91q-113 0 -113 -93q0 -76 79 -76q77 0 125 41v128zM417 0h-60l-8 44h-2q-73 -59 -155 -59q-67 0 -106 38.5t-39 107.5q0 151 190 151h98v31q0 52 -25.5 83t-77.5 31q-75 0 -128 -41l-34 57q69 54 165 54q90 0 136 -49t46 -137v-311zM203 638q0 -20 11 -31
t29 -11t29 11t11 31q0 41 -40 41t-40 -41zM149 638q0 44 25.5 68.5t68.5 24.5t68 -24.5t25 -68.5t-25 -69t-68 -25t-68.5 25t-25.5 69z" />
    <glyph glyph-name="ae" unicode="&#xe6;" horiz-adv-x="778" 
d="M341 222h-95q-116 0 -116 -87q0 -40 21.5 -60t58.5 -20q49 0 90 44.5t41 122.5zM378 92q-65 -107 -186 -107q-64 0 -104.5 39t-40.5 109q0 79 51.5 114t135.5 35h106v31q0 51 -27 82.5t-80 31.5q-75 0 -128 -41l-34 57q69 54 160 54q104 0 161 -85q56 85 145 85
q98 0 144 -59.5t46 -148.5q0 -41 -5 -69h-302q0 -69 36 -117t97 -48q41 0 68 11t57 33l31 -61q-74 -53 -163 -53q-64 0 -103 27.5t-65 79.5zM424 282h222q1 7 1 23q0 54 -28 88t-82 34q-53 0 -81 -40t-32 -105z" />
    <glyph glyph-name="ccedilla" unicode="&#xe7;" horiz-adv-x="463" 
d="M55 241q0 117 56.5 186.5t161.5 69.5q72 0 142 -36l-22 -61q-61 27 -117 27q-67 0 -102 -53.5t-35 -132.5q0 -78 35.5 -132t101.5 -54q56 0 117 27l22 -61q-55 -30 -127 -35l-12 -34q66 -12 66 -72q0 -93 -109 -93q-39 0 -69 14l13 55q26 -11 49 -11q44 0 44 35
q0 37 -56 37l-6 10l19 62q-83 14 -127.5 81.5t-44.5 170.5z" />
    <glyph glyph-name="egrave" unicode="&#xe8;" horiz-adv-x="511" 
d="M455 220h-322q0 -68 41.5 -116.5t103.5 -48.5q72 0 133 44l31 -61q-74 -53 -171 -53q-108 0 -162.5 73t-54.5 185q0 105 54.5 179.5t153.5 74.5t148.5 -60t49.5 -148q0 -41 -5 -69zM137 282h242q1 7 1 23q0 53 -31 87.5t-87 34.5q-54 0 -87.5 -41.5t-37.5 -103.5z
M163 700v10h91l59 -121v-10h-71z" />
    <glyph glyph-name="eacute" unicode="&#xe9;" horiz-adv-x="511" 
d="M455 220h-322q0 -68 41.5 -116.5t103.5 -48.5q72 0 133 44l31 -61q-74 -53 -171 -53q-108 0 -162.5 73t-54.5 185q0 105 54.5 179.5t153.5 74.5t148.5 -60t49.5 -148q0 -41 -5 -69zM137 282h242q1 7 1 23q0 53 -31 87.5t-87 34.5q-54 0 -87.5 -41.5t-37.5 -103.5z
M382 710v-10l-79 -121h-71v10l59 121h91z" />
    <glyph glyph-name="ecircumflex" unicode="&#xea;" horiz-adv-x="511" 
d="M455 220h-322q0 -68 41.5 -116.5t103.5 -48.5q72 0 133 44l31 -61q-74 -53 -171 -53q-108 0 -162.5 73t-54.5 185q0 105 54.5 179.5t153.5 74.5t148.5 -60t49.5 -148q0 -41 -5 -69zM137 282h242q1 7 1 23q0 53 -31 87.5t-87 34.5q-54 0 -87.5 -41.5t-37.5 -103.5z
M315 710l86 -121v-10h-75l-58 84l-58 -84h-75v10l86 121h94z" />
    <glyph glyph-name="edieresis" unicode="&#xeb;" horiz-adv-x="511" 
d="M455 220h-322q0 -68 41.5 -116.5t103.5 -48.5q72 0 133 44l31 -61q-74 -53 -171 -53q-108 0 -162.5 73t-54.5 185q0 105 54.5 179.5t153.5 74.5t148.5 -60t49.5 -148q0 -41 -5 -69zM137 282h242q1 7 1 23q0 53 -31 87.5t-87 34.5q-54 0 -87.5 -41.5t-37.5 -103.5z
M306 633q0 25 14 40t38 15q25 0 39 -15t14 -40q0 -26 -14 -40.5t-39 -14.5q-24 0 -38 14.5t-14 40.5zM123 633q0 25 14 40t38 15q25 0 39 -15t14 -40q0 -26 -14 -40.5t-39 -14.5q-24 0 -38 14.5t-14 40.5z" />
    <glyph glyph-name="igrave" unicode="&#xec;" horiz-adv-x="244" 
d="M163 0h-82v482h82v-482zM12 700v10h91l59 -121v-10h-71z" />
    <glyph glyph-name="iacute" unicode="&#xed;" horiz-adv-x="244" 
d="M163 0h-82v482h82v-482zM235 710v-10l-79 -121h-71v10l59 121h91z" />
    <glyph glyph-name="icircumflex" unicode="&#xee;" horiz-adv-x="244" 
d="M163 0h-82v482h82v-482zM170 710l86 -121v-10h-75l-58 84l-58 -84h-75v10l86 121h94z" />
    <glyph glyph-name="idieresis" unicode="&#xef;" horiz-adv-x="244" 
d="M163 0h-82v482h82v-482zM161 633q0 25 14 40t38 15q25 0 39 -15t14 -40q0 -26 -14 -40.5t-39 -14.5q-24 0 -38 14.5t-14 40.5zM-22 633q0 25 14 40t38 15q25 0 39 -15t14 -40q0 -26 -14 -40.5t-39 -14.5q-24 0 -38 14.5t-14 40.5z" />
    <glyph glyph-name="eth" unicode="&#xf0;" horiz-adv-x="558" 
d="M429 603l-62 -18q136 -185 136 -341q0 -117 -59.5 -188t-165.5 -71q-104 0 -164 70t-60 178q0 109 56 175.5t147 66.5q64 0 116 -41l2 2q-21 48 -83 126l-97 -28l-19 57l76 20q-21 27 -73 79v10h94q11 -11 31 -36t23 -29l85 25zM139 233q0 -80 38 -126t101 -46
q64 0 102 46t38 126q0 81 -37.5 123.5t-102.5 42.5q-64 0 -101.5 -42.5t-37.5 -123.5z" />
    <glyph glyph-name="ntilde" unicode="&#xf1;" horiz-adv-x="546" 
d="M81 482h58l10 -44h2q25 21 69.5 40t87.5 19q77 0 119 -46t42 -137v-314h-82v300q0 127 -100 127q-31 0 -67 -13.5t-57 -29.5v-384h-82v482zM163 584l-25 50q36 57 83 57q20 0 60.5 -20t59.5 -20q30 0 54 35l25 -50q-40 -57 -83 -57q-21 0 -61 20t-60 20q-28 0 -53 -35z
" />
    <glyph glyph-name="ograve" unicode="&#xf2;" horiz-adv-x="545" 
d="M138 241q0 -83 31.5 -134.5t101.5 -51.5t103 52t33 134t-33 134t-103 52t-101.5 -51.5t-31.5 -134.5zM491 241q0 -113 -54.5 -184.5t-165.5 -71.5q-110 0 -163.5 71.5t-53.5 184.5t53.5 184.5t163.5 71.5q111 0 165.5 -71.5t54.5 -184.5zM165 700v10h91l59 -121v-10h-71z
" />
    <glyph glyph-name="oacute" unicode="&#xf3;" horiz-adv-x="545" 
d="M138 241q0 -83 31.5 -134.5t101.5 -51.5t103 52t33 134t-33 134t-103 52t-101.5 -51.5t-31.5 -134.5zM491 241q0 -113 -54.5 -184.5t-165.5 -71.5q-110 0 -163.5 71.5t-53.5 184.5t53.5 184.5t163.5 71.5q111 0 165.5 -71.5t54.5 -184.5zM384 710v-10l-79 -121h-71v10
l59 121h91z" />
    <glyph glyph-name="ocircumflex" unicode="&#xf4;" horiz-adv-x="545" 
d="M138 241q0 -83 31.5 -134.5t101.5 -51.5t103 52t33 134t-33 134t-103 52t-101.5 -51.5t-31.5 -134.5zM491 241q0 -113 -54.5 -184.5t-165.5 -71.5q-110 0 -163.5 71.5t-53.5 184.5t53.5 184.5t163.5 71.5q111 0 165.5 -71.5t54.5 -184.5zM320 710l86 -121v-10h-75l-58 84
l-58 -84h-75v10l86 121h94z" />
    <glyph glyph-name="otilde" unicode="&#xf5;" horiz-adv-x="545" 
d="M138 241q0 -83 31.5 -134.5t101.5 -51.5t103 52t33 134t-33 134t-103 52t-101.5 -51.5t-31.5 -134.5zM491 241q0 -113 -54.5 -184.5t-165.5 -71.5q-110 0 -163.5 71.5t-53.5 184.5t53.5 184.5t163.5 71.5q111 0 165.5 -71.5t54.5 -184.5zM157 584l-25 50q36 57 83 57
q20 0 60.5 -20t59.5 -20q30 0 54 35l25 -50q-40 -57 -83 -57q-21 0 -61 20t-60 20q-28 0 -53 -35z" />
    <glyph glyph-name="odieresis" unicode="&#xf6;" horiz-adv-x="545" 
d="M138 241q0 -83 31.5 -134.5t101.5 -51.5t103 52t33 134t-33 134t-103 52t-101.5 -51.5t-31.5 -134.5zM491 241q0 -113 -54.5 -184.5t-165.5 -71.5q-110 0 -163.5 71.5t-53.5 184.5t53.5 184.5t163.5 71.5q111 0 165.5 -71.5t54.5 -184.5zM311 633q0 25 14 40t38 15
q25 0 39 -15t14 -40q0 -26 -14 -40.5t-39 -14.5q-24 0 -38 14.5t-14 40.5zM128 633q0 25 14 40t38 15q25 0 39 -15t14 -40q0 -26 -14 -40.5t-39 -14.5q-24 0 -38 14.5t-14 40.5z" />
    <glyph glyph-name="divide" unicode="&#xf7;" 
d="M213 70q0 27 17 44.5t43 17.5q27 0 43.5 -17.5t16.5 -44.5q0 -28 -16.5 -45.5t-43.5 -17.5q-26 0 -43 17.5t-17 45.5zM213 470q0 27 17 44.5t43 17.5q27 0 43.5 -17.5t16.5 -44.5q0 -28 -16.5 -45.5t-43.5 -17.5q-26 0 -43 17.5t-17 45.5zM56 307h437v-74h-437v74z" />
    <glyph glyph-name="oslash" unicode="&#xf8;" horiz-adv-x="545" 
d="M125 -29l-52 39l34 48q-52 68 -52 183q0 113 53.5 184.5t163.5 71.5q72 0 122 -33l32 45l54 -37l-38 -53q50 -67 50 -178q0 -113 -54.5 -184.5t-165.5 -71.5q-69 0 -116 29zM408 241q0 57 -18 104l-190 -269q31 -21 72 -21q70 0 103 52t33 134zM139 241q0 -66 19 -111
l192 272q-31 25 -78 25q-70 0 -101.5 -51.5t-31.5 -134.5z" />
    <glyph glyph-name="ugrave" unicode="&#xf9;" horiz-adv-x="540" 
d="M77 482h82v-300q0 -64 23 -95.5t73 -31.5q32 0 67 13.5t55 29.5v384h82v-482h-58l-9 44h-2q-81 -59 -155 -59q-76 0 -117 46t-41 137v314zM158 700v10h91l59 -121v-10h-71z" />
    <glyph glyph-name="uacute" unicode="&#xfa;" horiz-adv-x="540" 
d="M77 482h82v-300q0 -64 23 -95.5t73 -31.5q32 0 67 13.5t55 29.5v384h82v-482h-58l-9 44h-2q-81 -59 -155 -59q-76 0 -117 46t-41 137v314zM381 710v-10l-79 -121h-71v10l59 121h91z" />
    <glyph glyph-name="ucircumflex" unicode="&#xfb;" horiz-adv-x="540" 
d="M77 482h82v-300q0 -64 23 -95.5t73 -31.5q32 0 67 13.5t55 29.5v384h82v-482h-58l-9 44h-2q-81 -59 -155 -59q-76 0 -117 46t-41 137v314zM314 710l86 -121v-10h-75l-58 84l-58 -84h-75v10l86 121h94z" />
    <glyph glyph-name="udieresis" unicode="&#xfc;" horiz-adv-x="540" 
d="M77 482h82v-300q0 -64 23 -95.5t73 -31.5q32 0 67 13.5t55 29.5v384h82v-482h-58l-9 44h-2q-81 -59 -155 -59q-76 0 -117 46t-41 137v314zM305 633q0 25 14 40t38 15q25 0 39 -15t14 -40q0 -26 -14 -40.5t-39 -14.5q-24 0 -38 14.5t-14 40.5zM122 633q0 25 14 40t38 15
q25 0 39 -15t14 -40q0 -26 -14 -40.5t-39 -14.5q-24 0 -38 14.5t-14 40.5z" />
    <glyph glyph-name="yacute" unicode="&#xfd;" horiz-adv-x="481" 
d="M450 482v-10l-185 -537q-51 -148 -153 -148q-32 0 -81 13v67q46 -12 74 -12t45 21t33 64l22 65l-178 467v10h81l105 -305l28 -95h2l26 95l101 305h80zM361 710v-10l-79 -121h-71v10l59 121h91z" />
    <glyph glyph-name="thorn" unicode="&#xfe;" horiz-adv-x="546" 
d="M81 -198v898h82v-252h2q63 49 139 49q93 0 140 -72t47 -184q0 -113 -46 -184.5t-140 -71.5q-73 0 -140 49h-2v-232h-82zM163 383v-284q47 -44 120 -44q66 0 95 52t29 134t-29 134t-95 52q-73 0 -120 -44z" />
    <glyph glyph-name="ydieresis" unicode="&#xff;" horiz-adv-x="481" 
d="M450 482v-10l-185 -537q-51 -148 -153 -148q-32 0 -81 13v67q46 -12 74 -12t45 21t33 64l22 65l-178 467v10h81l105 -305l28 -95h2l26 95l101 305h80zM280 633q0 25 14 40t38 15q25 0 39 -15t14 -40q0 -26 -14 -40.5t-39 -14.5q-24 0 -38 14.5t-14 40.5zM97 633
q0 25 14 40t38 15q25 0 39 -15t14 -40q0 -26 -14 -40.5t-39 -14.5q-24 0 -38 14.5t-14 40.5z" />
    <glyph glyph-name="Amacron" unicode="&#x100;" horiz-adv-x="595" 
d="M340 680l236 -680h-88l-57 176h-267l-58 -176h-87l236 680h85zM299 595h-2l-53 -184l-55 -165h216l-53 165zM419 777h-243v74h243v-74z" />
    <glyph glyph-name="amacron" unicode="&#x101;" horiz-adv-x="494" 
d="M335 224h-91q-113 0 -113 -93q0 -76 79 -76q77 0 125 41v128zM417 0h-60l-8 44h-2q-73 -59 -155 -59q-67 0 -106 38.5t-39 107.5q0 151 190 151h98v31q0 52 -25.5 83t-77.5 31q-75 0 -128 -41l-34 57q69 54 165 54q90 0 136 -49t46 -137v-311zM364 597h-243v74h243v-74z
" />
    <glyph glyph-name="Abreve" unicode="&#x102;" horiz-adv-x="595" 
d="M340 680l236 -680h-88l-57 176h-267l-58 -176h-87l236 680h85zM299 595h-2l-53 -184l-55 -165h216l-53 165zM297 838q61 0 110 32l23 -52q-55 -55 -133 -55q-77 0 -132 55l23 52q49 -32 109 -32z" />
    <glyph glyph-name="abreve" unicode="&#x103;" horiz-adv-x="494" 
d="M335 224h-91q-113 0 -113 -93q0 -76 79 -76q77 0 125 41v128zM417 0h-60l-8 44h-2q-73 -59 -155 -59q-67 0 -106 38.5t-39 107.5q0 151 190 151h98v31q0 52 -25.5 83t-77.5 31q-75 0 -128 -41l-34 57q69 54 165 54q90 0 136 -49t46 -137v-311zM243 654q61 0 110 32
l23 -52q-55 -55 -133 -55q-77 0 -132 55l23 52q49 -32 109 -32z" />
    <glyph glyph-name="Aogonek" unicode="&#x104;" horiz-adv-x="595" 
d="M507 -213q-41 0 -68.5 23.5t-27.5 71.5q0 62 76 119l-56 175h-267l-58 -176h-87l236 680h85l236 -680q-93 -47 -93 -101q0 -43 43 -43q20 0 55 21l8 -62q-37 -28 -82 -28zM299 595h-2l-53 -184l-55 -165h216l-53 165z" />
    <glyph glyph-name="aogonek" unicode="&#x105;" horiz-adv-x="494" 
d="M352 -213q-41 0 -68.5 23.5t-27.5 71.5q0 69 98 134l-5 28h-2q-73 -59 -155 -59q-67 0 -106 38.5t-39 107.5q0 151 190 151h98v31q0 52 -25.5 83t-77.5 31q-75 0 -128 -41l-34 57q69 54 165 54q90 0 136 -49t46 -137v-311q-89 -49 -89 -101q0 -43 43 -43q20 0 55 21
l8 -62q-37 -28 -82 -28zM335 224h-91q-113 0 -113 -93q0 -76 79 -76q77 0 125 41v128z" />
    <glyph glyph-name="Cacute" unicode="&#x106;" horiz-adv-x="569" 
d="M62 340q0 162 75.5 258.5t213.5 96.5q79 0 167 -44l-23 -64q-67 32 -144 32q-102 0 -152 -74t-50 -205t50 -205t152 -74q77 0 144 32l23 -64q-88 -44 -167 -44q-138 0 -213.5 96.5t-75.5 258.5zM445 883v-10l-79 -121h-71v10l60 121h90z" />
    <glyph glyph-name="cacute" unicode="&#x107;" horiz-adv-x="463" 
d="M54 241q0 117 56.5 186.5t161.5 69.5q72 0 142 -36l-22 -61q-61 27 -117 27q-67 0 -102 -53.5t-35 -132.5q0 -78 35.5 -132t101.5 -54q56 0 117 27l22 -61q-70 -36 -142 -36q-105 0 -161.5 69.5t-56.5 186.5zM376 710v-10l-79 -121h-71v10l59 121h91z" />
    <glyph glyph-name="Ccircumflex" unicode="&#x108;" horiz-adv-x="569" 
d="M62 340q0 162 75.5 258.5t213.5 96.5q79 0 167 -44l-23 -64q-67 32 -144 32q-102 0 -152 -74t-50 -205t50 -205t152 -74q77 0 144 32l23 -64q-88 -44 -167 -44q-138 0 -213.5 96.5t-75.5 258.5zM387 883l86 -121v-10h-75l-58 71l-58 -71h-75v10l86 121h94z" />
    <glyph glyph-name="ccircumflex" unicode="&#x109;" horiz-adv-x="463" 
d="M54 241q0 117 56.5 186.5t161.5 69.5q72 0 142 -36l-22 -61q-61 27 -117 27q-67 0 -102 -53.5t-35 -132.5q0 -78 35.5 -132t101.5 -54q56 0 117 27l22 -61q-70 -36 -142 -36q-105 0 -161.5 69.5t-56.5 186.5zM308 710l86 -121v-10h-75l-58 84l-58 -84h-75v10l86 121h94z
" />
    <glyph glyph-name="Cdotaccent" unicode="&#x10a;" horiz-adv-x="569" 
d="M62 340q0 162 75.5 258.5t213.5 96.5q79 0 167 -44l-23 -64q-67 32 -144 32q-102 0 -152 -74t-50 -205t50 -205t152 -74q77 0 144 32l23 -64q-88 -44 -167 -44q-138 0 -213.5 96.5t-75.5 258.5zM286 816q0 25 14 40t38 15q25 0 39 -15t14 -40q0 -26 -14 -40.5t-39 -14.5
q-24 0 -38 14.5t-14 40.5z" />
    <glyph glyph-name="cdotaccent" unicode="&#x10b;" horiz-adv-x="463" 
d="M54 241q0 117 56.5 186.5t161.5 69.5q72 0 142 -36l-22 -61q-61 27 -117 27q-67 0 -102 -53.5t-35 -132.5q0 -78 35.5 -132t101.5 -54q56 0 117 27l22 -61q-70 -36 -142 -36q-105 0 -161.5 69.5t-56.5 186.5zM210 634q0 25 14 40t38 15q25 0 39 -15t14 -40
q0 -26 -14 -40.5t-39 -14.5q-24 0 -38 14.5t-14 40.5z" />
    <glyph glyph-name="Ccaron" unicode="&#x10c;" horiz-adv-x="569" 
d="M62 340q0 162 75.5 258.5t213.5 96.5q79 0 167 -44l-23 -64q-67 32 -144 32q-102 0 -152 -74t-50 -205t50 -205t152 -74q77 0 144 32l23 -64q-88 -44 -167 -44q-138 0 -213.5 96.5t-75.5 258.5zM286 752l-86 121v10h75l58 -71l58 71h75v-10l-86 -121h-94z" />
    <glyph glyph-name="ccaron" unicode="&#x10d;" horiz-adv-x="463" 
d="M54 241q0 117 56.5 186.5t161.5 69.5q72 0 142 -36l-22 -61q-61 27 -117 27q-67 0 -102 -53.5t-35 -132.5q0 -78 35.5 -132t101.5 -54q56 0 117 27l22 -61q-70 -36 -142 -36q-105 0 -161.5 69.5t-56.5 186.5zM215 579l-86 121v10h75l58 -84l58 84h75v-10l-86 -121h-94z
" />
    <glyph glyph-name="Dcaron" unicode="&#x10e;" horiz-adv-x="652" 
d="M96 0v680h172q169 0 244.5 -85t75.5 -255t-75.5 -255t-244.5 -85h-172zM180 74h77q140 0 192 62t52 204t-52 204t-192 62h-77v-532zM263 752l-86 121v10h75l58 -71l58 71h75v-10l-86 -121h-94z" />
    <glyph glyph-name="dcaron" unicode="&#x10f;" horiz-adv-x="546" 
d="M383 99v284q-44 44 -120 44q-64 0 -94 -52.5t-30 -133.5t30 -133.5t94 -52.5q76 0 120 44zM383 700h82v-700h-58l-9 44h-2q-76 -59 -155 -59q-93 0 -139.5 72t-46.5 184t46.5 184t139.5 72q84 0 140 -49h2v252zM513 529v10l18 141h85v-10l-38 -141h-65z" />
    <glyph glyph-name="Dcroat" unicode="&#x110;" horiz-adv-x="655" 
d="M40 299v74h59v307h172q169 0 244.5 -85t75.5 -255t-75.5 -255t-244.5 -85h-172v299h-59zM183 74h77q140 0 192 62t52 204t-52 204t-192 62h-77v-233h138v-74h-138v-225z" />
    <glyph glyph-name="dcroat" unicode="&#x111;" horiz-adv-x="546" 
d="M383 700h82v-75h58v-64h-58v-561h-58l-9 44h-2q-76 -59 -155 -59q-93 0 -139.5 72t-46.5 184t46.5 184t139.5 72q84 0 140 -49h2v113h-104v64h104v75zM383 99v284q-44 44 -120 44q-64 0 -94 -52.5t-30 -133.5t30 -133.5t94 -52.5q76 0 120 44z" />
    <glyph glyph-name="Emacron" unicode="&#x112;" horiz-adv-x="557" 
d="M96 680h397v-74h-313v-222h284v-74h-284v-236h316v-74h-400v680zM420 777h-243v74h243v-74z" />
    <glyph glyph-name="emacron" unicode="&#x113;" horiz-adv-x="511" 
d="M455 220h-322q0 -68 41.5 -116.5t103.5 -48.5q72 0 133 44l31 -61q-74 -53 -171 -53q-108 0 -162.5 73t-54.5 185q0 105 54.5 179.5t153.5 74.5t148.5 -60t49.5 -148q0 -41 -5 -69zM137 282h242q1 7 1 23q0 53 -31 87.5t-87 34.5q-54 0 -87.5 -41.5t-37.5 -103.5z
M390 597h-243v74h243v-74z" />
    <glyph glyph-name="Ebreve" unicode="&#x114;" horiz-adv-x="557" 
d="M96 680h397v-74h-313v-222h284v-74h-284v-236h316v-74h-400v680zM296 838q61 0 110 32l23 -52q-55 -55 -133 -55q-77 0 -132 55l23 52q49 -32 109 -32z" />
    <glyph glyph-name="ebreve" unicode="&#x115;" horiz-adv-x="511" 
d="M455 220h-322q0 -68 41.5 -116.5t103.5 -48.5q72 0 133 44l31 -61q-74 -53 -171 -53q-108 0 -162.5 73t-54.5 185q0 105 54.5 179.5t153.5 74.5t148.5 -60t49.5 -148q0 -41 -5 -69zM137 282h242q1 7 1 23q0 53 -31 87.5t-87 34.5q-54 0 -87.5 -41.5t-37.5 -103.5z
M273 654q61 0 110 32l23 -52q-55 -55 -133 -55q-77 0 -132 55l23 52q49 -32 109 -32z" />
    <glyph glyph-name="Edotaccent" unicode="&#x116;" horiz-adv-x="557" 
d="M96 680h397v-74h-313v-222h284v-74h-284v-236h316v-74h-400v680zM246 816q0 25 14 40t38 15q25 0 39 -15t14 -40q0 -26 -14 -40.5t-39 -14.5q-24 0 -38 14.5t-14 40.5z" />
    <glyph glyph-name="edotaccent" unicode="&#x117;" horiz-adv-x="511" 
d="M455 220h-322q0 -68 41.5 -116.5t103.5 -48.5q72 0 133 44l31 -61q-74 -53 -171 -53q-108 0 -162.5 73t-54.5 185q0 105 54.5 179.5t153.5 74.5t148.5 -60t49.5 -148q0 -41 -5 -69zM137 282h242q1 7 1 23q0 53 -31 87.5t-87 34.5q-54 0 -87.5 -41.5t-37.5 -103.5z
M216 634q0 25 14 40t38 15q25 0 39 -15t14 -40q0 -26 -14 -40.5t-39 -14.5q-24 0 -38 14.5t-14 40.5z" />
    <glyph glyph-name="Eogonek" unicode="&#x118;" horiz-adv-x="557" 
d="M419 -213q-41 0 -68.5 23.5t-27.5 71.5q0 65 75 118h-302v680h397v-74h-313v-222h284v-74h-284v-236h316v-74q-101 -47 -101 -101q0 -43 43 -43q20 0 55 21l8 -62q-37 -28 -82 -28z" />
    <glyph glyph-name="eogonek" unicode="&#x119;" horiz-adv-x="511" 
d="M300 -15v2q-18 -2 -29 -2q-108 0 -162.5 73t-54.5 185q0 105 54.5 179.5t153.5 74.5t148.5 -60t49.5 -148q0 -41 -5 -69h-322q0 -68 41.5 -116.5t103.5 -48.5q72 0 133 44l31 -61l-23 -15q-42 -24 -66 -57.5t-24 -66.5q0 -43 43 -43q20 0 55 21l8 -62q-37 -28 -82 -28
q-41 0 -68.5 23.5t-27.5 71.5q0 55 43 103zM137 282h242q1 7 1 23q0 53 -31 87.5t-87 34.5q-54 0 -87.5 -41.5t-37.5 -103.5z" />
    <glyph glyph-name="Ecaron" unicode="&#x11a;" horiz-adv-x="557" 
d="M96 680h397v-74h-313v-222h284v-74h-284v-236h316v-74h-400v680zM251 752l-86 121v10h75l58 -71l58 71h75v-10l-86 -121h-94z" />
    <glyph glyph-name="ecaron" unicode="&#x11b;" horiz-adv-x="511" 
d="M455 220h-322q0 -68 41.5 -116.5t103.5 -48.5q72 0 133 44l31 -61q-74 -53 -171 -53q-108 0 -162.5 73t-54.5 185q0 105 54.5 179.5t153.5 74.5t148.5 -60t49.5 -148q0 -41 -5 -69zM137 282h242q1 7 1 23q0 53 -31 87.5t-87 34.5q-54 0 -87.5 -41.5t-37.5 -103.5z
M221 579l-86 121v10h75l58 -84l58 84h75v-10l-86 -121h-94z" />
    <glyph glyph-name="Gcircumflex" unicode="&#x11c;" horiz-adv-x="625" 
d="M346 334h208v-279q-94 -70 -212 -70q-140 0 -209.5 96.5t-69.5 258.5q0 164 70.5 259.5t217.5 95.5q97 0 201 -65l-30 -64q-87 53 -171 53q-201 0 -201 -279q0 -129 46 -204t146 -75q83 0 128 32v167l-124 20v54zM387 883l86 -121v-10h-75l-58 71l-58 -71h-75v10l86 121
h94z" />
    <glyph glyph-name="gcircumflex" unicode="&#x11d;" horiz-adv-x="546" 
d="M383 103v280q-44 44 -120 44q-66 0 -95 -51t-29 -133q0 -184 124 -184q79 0 120 44zM465 482v-488q0 -93 -54 -150t-147 -57q-88 0 -161 35l22 60q57 -27 139 -27q55 0 87 34t32 96v52h-2q-61 -49 -139 -49q-93 0 -140 71.5t-47 183.5t47 183t140 71q82 0 153 -59h2
l11 44h57zM328 710l86 -121v-10h-75l-58 84l-58 -84h-75v10l86 121h94z" />
    <glyph glyph-name="Gbreve" unicode="&#x11e;" horiz-adv-x="625" 
d="M346 334h208v-279q-94 -70 -212 -70q-140 0 -209.5 96.5t-69.5 258.5q0 164 70.5 259.5t217.5 95.5q97 0 201 -65l-30 -64q-87 53 -171 53q-201 0 -201 -279q0 -129 46 -204t146 -75q83 0 128 32v167l-124 20v54zM342 838q61 0 110 32l23 -52q-55 -55 -133 -55
q-77 0 -132 55l23 52q49 -32 109 -32z" />
    <glyph glyph-name="gbreve" unicode="&#x11f;" horiz-adv-x="546" 
d="M383 103v280q-44 44 -120 44q-66 0 -95 -51t-29 -133q0 -184 124 -184q79 0 120 44zM465 482v-488q0 -93 -54 -150t-147 -57q-88 0 -161 35l22 60q57 -27 139 -27q55 0 87 34t32 96v52h-2q-61 -49 -139 -49q-93 0 -140 71.5t-47 183.5t47 183t140 71q82 0 153 -59h2
l11 44h57zM281 654q61 0 110 32l23 -52q-55 -55 -133 -55q-77 0 -132 55l23 52q49 -32 109 -32z" />
    <glyph glyph-name="Gdotaccent" unicode="&#x120;" horiz-adv-x="625" 
d="M346 334h208v-279q-94 -70 -212 -70q-140 0 -209.5 96.5t-69.5 258.5q0 164 70.5 259.5t217.5 95.5q97 0 201 -65l-30 -64q-87 53 -171 53q-201 0 -201 -279q0 -129 46 -204t146 -75q83 0 128 32v167l-124 20v54zM288 816q0 25 14 40t38 15q25 0 39 -15t14 -40
q0 -26 -14 -40.5t-39 -14.5q-24 0 -38 14.5t-14 40.5z" />
    <glyph glyph-name="gdotaccent" unicode="&#x121;" horiz-adv-x="546" 
d="M383 103v280q-44 44 -120 44q-66 0 -95 -51t-29 -133q0 -184 124 -184q79 0 120 44zM465 482v-488q0 -93 -54 -150t-147 -57q-88 0 -161 35l22 60q57 -27 139 -27q55 0 87 34t32 96v52h-2q-61 -49 -139 -49q-93 0 -140 71.5t-47 183.5t47 183t140 71q82 0 153 -59h2
l11 44h57zM229 634q0 25 14 40t38 15q25 0 39 -15t14 -40q0 -26 -14 -40.5t-39 -14.5q-24 0 -38 14.5t-14 40.5z" />
    <glyph glyph-name="Gcommaaccent" unicode="&#x122;" horiz-adv-x="625" 
d="M346 334h208v-279q-94 -70 -212 -70q-140 0 -209.5 96.5t-69.5 258.5q0 164 70.5 259.5t217.5 95.5q97 0 201 -65l-30 -64q-87 53 -171 53q-201 0 -201 -279q0 -129 46 -204t146 -75q83 0 128 32v167l-124 20v54zM281 -218v10l18 141h85v-10l-38 -141h-65z" />
    <glyph glyph-name="gcommaaccent" unicode="&#x123;" horiz-adv-x="546" 
d="M383 103v280q-44 44 -120 44q-66 0 -95 -51t-29 -133q0 -184 124 -184q79 0 120 44zM465 482v-488q0 -93 -54 -150t-147 -57q-88 0 -161 35l22 60q57 -27 139 -27q55 0 87 34t32 96v52h-2q-61 -49 -139 -49q-93 0 -140 71.5t-47 183.5t47 183t140 71q82 0 153 -59h2
l11 44h57zM343 720v-10l-18 -141h-85v10l38 141h65z" />
    <glyph glyph-name="Hcircumflex" unicode="&#x124;" horiz-adv-x="670" 
d="M490 0v310h-310v-310h-84v680h84v-296h310v296h84v-680h-84zM382 883l86 -121v-10h-75l-58 71l-58 -71h-75v10l86 121h94z" />
    <glyph glyph-name="hcircumflex" unicode="&#x125;" horiz-adv-x="546" 
d="M469 0h-82v300q0 127 -100 127q-32 0 -68 -13t-56 -29v-385h-82v700h82v-251h2q68 48 143 48q77 0 119 -46t42 -137v-314zM328 883l86 -121v-10h-75l-58 71l-58 -71h-75v10l86 121h94z" />
    <glyph glyph-name="Hbar" unicode="&#x126;" horiz-adv-x="672" 
d="M623 512h-48v-512h-84v310h-310v-310h-84v512h-47v74h47v94h84v-94h310v94h84v-94h48v-74zM181 384h310v128h-310v-128z" />
    <glyph glyph-name="hbar" unicode="&#x127;" horiz-adv-x="546" 
d="M469 0h-82v300q0 127 -100 127q-32 0 -68 -13t-56 -29v-385h-82v562h-58v64h58v74h82v-74h104v-64h-104v-113h2q68 48 143 48q77 0 119 -46t42 -137v-314z" />
    <glyph glyph-name="Itilde" unicode="&#x128;" horiz-adv-x="276" 
d="M180 680v-680h-84v680h84zM18 767l-25 50q36 57 83 57q20 0 60.5 -20t59.5 -20q30 0 54 35l25 -50q-40 -57 -83 -57q-21 0 -61 20t-60 20q-28 0 -53 -35z" />
    <glyph glyph-name="itilde" unicode="&#x129;" horiz-adv-x="244" 
d="M163 0h-82v482h82v-482zM7 584l-25 50q36 57 83 57q20 0 60.5 -20t59.5 -20q30 0 54 35l25 -50q-40 -57 -83 -57q-21 0 -61 20t-60 20q-28 0 -53 -35z" />
    <glyph glyph-name="Imacron" unicode="&#x12a;" horiz-adv-x="276" 
d="M180 680v-680h-84v680h84zM255 777h-243v74h243v-74z" />
    <glyph glyph-name="imacron" unicode="&#x12b;" horiz-adv-x="244" 
d="M163 0h-82v482h82v-482zM245 597h-243v74h243v-74z" />
    <glyph glyph-name="Ibreve" unicode="&#x12c;" horiz-adv-x="276" 
d="M180 680v-680h-84v680h84zM132 838q61 0 110 32l23 -52q-55 -55 -133 -55q-77 0 -132 55l23 52q49 -32 109 -32z" />
    <glyph glyph-name="ibreve" unicode="&#x12d;" horiz-adv-x="244" 
d="M163 0h-82v482h82v-482zM123 654q61 0 110 32l23 -52q-55 -55 -133 -55q-77 0 -132 55l23 52q49 -32 109 -32z" />
    <glyph glyph-name="Iogonek" unicode="&#x12e;" horiz-adv-x="276" 
d="M115 -213q-41 0 -68.5 23.5t-27.5 71.5q0 63 77 119v679h84v-680q-89 -49 -89 -101q0 -43 43 -43q20 0 55 21l8 -62q-37 -28 -82 -28z" />
    <glyph glyph-name="iogonek" unicode="&#x12f;" horiz-adv-x="245" 
d="M99 -213q-41 0 -68.5 23.5t-27.5 71.5q0 66 79 121v479h82v-482q-89 -49 -89 -101q0 -43 43 -43q20 0 55 21l8 -62q-37 -28 -82 -28zM71 633q0 25 14 40t38 15q25 0 39 -15t14 -40q0 -26 -14 -40.5t-39 -14.5q-24 0 -38 14.5t-14 40.5z" />
    <glyph glyph-name="Idotaccent" unicode="&#x130;" horiz-adv-x="276" 
d="M180 680v-680h-84v680h84zM82 816q0 25 14 40t38 15q25 0 39 -15t14 -40q0 -26 -14 -40.5t-39 -14.5q-24 0 -38 14.5t-14 40.5z" />
    <glyph glyph-name="dotlessi" unicode="&#x131;" horiz-adv-x="244" 
d="M163 0h-82v482h82v-482z" />
    <glyph glyph-name="IJ" unicode="&#x132;" horiz-adv-x="720" 
d="M180 680v-680h-84v680h84zM301 58l42 55q1 -1 8 -7t8.5 -7.5t8 -7t9.5 -7.5t9.5 -6t10.5 -5.5t11 -4.5t13 -4t13 -2t15 -1q48 0 72 33t24 115v471h84v-478q0 -110 -47 -163.5t-133 -53.5q-83 0 -148 73z" />
    <glyph glyph-name="ij" unicode="&#x133;" horiz-adv-x="488" 
d="M163 0h-82v482h82v-482zM70 633q0 25 14 40t38 15q25 0 39 -15t14 -40q0 -26 -14 -40.5t-39 -14.5q-24 0 -38 14.5t-14 40.5zM325 482h82v-542q0 -73 -33 -113t-98 -40q-30 0 -63 7v65q20 -4 55 -4q57 0 57 83v544zM314 633q0 25 14 40t38 15q25 0 39 -15t14 -40
q0 -26 -14 -40.5t-39 -14.5q-24 0 -38 14.5t-14 40.5z" />
    <glyph glyph-name="Jcircumflex" unicode="&#x134;" horiz-adv-x="444" 
d="M25 58l42 55q1 -1 8 -7t8.5 -7.5t8 -7t9.5 -7.5t9.5 -6t10.5 -5.5t11 -4.5t13 -4t13 -2t15 -1q48 0 72 33t24 115v471h84v-478q0 -110 -47 -163.5t-133 -53.5q-83 0 -148 73zM363 883l86 -121v-10h-75l-58 71l-58 -71h-75v10l86 121h94z" />
    <glyph glyph-name="jcircumflex" unicode="&#x135;" horiz-adv-x="244" 
d="M81 482h82v-542q0 -73 -33 -113t-98 -40q-30 0 -63 7v65q20 -4 55 -4q57 0 57 83v544zM167 710l86 -121v-10h-75l-58 84l-58 -84h-75v10l86 121h94z" />
    <glyph glyph-name="Kcommaaccent" unicode="&#x136;" horiz-adv-x="571" 
d="M182 311h-2v-311h-84v680h84v-335h2l258 335h97v-10l-270 -337l282 -323v-10h-105zM239 -218v10l18 141h85v-10l-38 -141h-65z" />
    <glyph glyph-name="kcommaaccent" unicode="&#x137;" horiz-adv-x="483" 
d="M165 224h-2v-224h-82v700h82v-442h2l189 224h95v-7l-205 -232l212 -235v-8h-101zM178 -218v10l18 141h85v-10l-38 -141h-65z" />
    <glyph glyph-name="kgreenlandic" unicode="&#x138;" horiz-adv-x="483" 
d="M165 221h-2v-221h-82v482h82v-227h2l189 227h95v-7l-205 -235l212 -232v-8h-101z" />
    <glyph glyph-name="Lacute" unicode="&#x139;" horiz-adv-x="500" 
d="M96 680h84v-606h286v-74h-370v680zM248 883v-10l-79 -121h-71v10l60 121h90z" />
    <glyph glyph-name="lacute" unicode="&#x13a;" horiz-adv-x="252" 
d="M167 0h-82v700h82v-700zM235 883v-10l-79 -121h-71v10l60 121h90z" />
    <glyph glyph-name="Lcommaaccent" unicode="&#x13b;" horiz-adv-x="500" 
d="M96 680h84v-606h286v-74h-370v680zM225 -218v10l18 141h85v-10l-38 -141h-65z" />
    <glyph glyph-name="lcommaaccent" unicode="&#x13c;" horiz-adv-x="252" 
d="M167 0h-82v700h82v-700zM64 -218v10l18 141h85v-10l-38 -141h-65z" />
    <glyph glyph-name="Lcaron" unicode="&#x13d;" horiz-adv-x="500" 
d="M96 680h84v-606h286v-74h-370v680zM275 529v10l18 141h85v-10l-38 -141h-65z" />
    <glyph glyph-name="lcaron" unicode="&#x13e;" horiz-adv-x="252" 
d="M167 0h-82v700h82v-700zM213 529v10l18 141h85v-10l-38 -141h-65z" />
    <glyph glyph-name="Ldot" unicode="&#x13f;" horiz-adv-x="501" 
d="M96 680h84v-606h286v-74h-370v680zM310 350q0 27 17 44.5t43 17.5q27 0 43.5 -17.5t16.5 -44.5q0 -28 -16.5 -45.5t-43.5 -17.5q-26 0 -43 17.5t-17 45.5z" />
    <glyph glyph-name="ldot" unicode="&#x140;" horiz-adv-x="315" 
d="M167 0h-82v700h82v-700zM224 350q0 27 17 44.5t43 17.5q27 0 43.5 -17.5t16.5 -44.5q0 -28 -16.5 -45.5t-43.5 -17.5q-26 0 -43 17.5t-17 45.5z" />
    <glyph glyph-name="Lslash" unicode="&#x141;" horiz-adv-x="504" 
d="M100 680h84v-259l86 52h9v-77l-95 -57v-265h286v-74h-370v288l-71 -42h-9v77l80 48v309z" />
    <glyph glyph-name="lslash" unicode="&#x142;" horiz-adv-x="311" 
d="M189 0h-82v276l-70 -40h-9v77l79 45v342h82v-292l82 47h9v-77l-91 -53v-325z" />
    <glyph glyph-name="Nacute" unicode="&#x143;" horiz-adv-x="678" 
d="M504 126h2l-8 127v427h84v-680h-88l-320 554h-2l8 -127v-427h-84v680h88zM440 883v-10l-79 -121h-71v10l60 121h90z" />
    <glyph glyph-name="nacute" unicode="&#x144;" horiz-adv-x="546" 
d="M81 482h58l10 -44h2q25 21 69.5 40t87.5 19q77 0 119 -46t42 -137v-314h-82v300q0 127 -100 127q-31 0 -67 -13.5t-57 -29.5v-384h-82v482zM388 710v-10l-79 -121h-71v10l59 121h91z" />
    <glyph glyph-name="Ncommaaccent" unicode="&#x145;" horiz-adv-x="678" 
d="M504 126h2l-8 127v427h84v-680h-88l-320 554h-2l8 -127v-427h-84v680h88zM277 -218v10l18 141h85v-10l-38 -141h-65z" />
    <glyph glyph-name="ncommaaccent" unicode="&#x146;" horiz-adv-x="546" 
d="M81 482h58l10 -44h2q25 21 69.5 40t87.5 19q77 0 119 -46t42 -137v-314h-82v300q0 127 -100 127q-31 0 -67 -13.5t-57 -29.5v-384h-82v482zM209 -218v10l18 141h85v-10l-38 -141h-65z" />
    <glyph glyph-name="Ncaron" unicode="&#x147;" horiz-adv-x="678" 
d="M504 126h2l-8 127v427h84v-680h-88l-320 554h-2l8 -127v-427h-84v680h88zM289 752l-86 121v10h75l58 -71l58 71h75v-10l-86 -121h-94z" />
    <glyph glyph-name="ncaron" unicode="&#x148;" horiz-adv-x="546" 
d="M81 482h58l10 -44h2q25 21 69.5 40t87.5 19q77 0 119 -46t42 -137v-314h-82v300q0 127 -100 127q-31 0 -67 -13.5t-57 -29.5v-384h-82v482zM230 579l-86 121v10h75l58 -84l58 84h75v-10l-86 -121h-94z" />
    <glyph glyph-name="napostrophe" unicode="&#x149;" horiz-adv-x="546" 
d="M81 482h58l10 -44h2q25 21 69.5 40t87.5 19q77 0 119 -46t42 -137v-314h-82v300q0 127 -100 127q-31 0 -67 -13.5t-57 -29.5v-384h-82v482zM2 529v10l18 141h85v-10l-38 -141h-65z" />
    <glyph glyph-name="Eng" unicode="&#x14a;" horiz-adv-x="678" 
d="M504 129h2l-8 124v427h84v-740q0 -73 -33 -113t-98 -40q-30 0 -63 7v65q20 -4 55 -4q55 0 55 83v67l-324 549h-2l8 -127v-427h-84v680h88z" />
    <glyph glyph-name="eng" unicode="&#x14b;" horiz-adv-x="546" 
d="M81 482h58l10 -44h2q25 21 69.5 40t87.5 19q77 0 119 -46t42 -137v-374q0 -73 -33 -113t-98 -40q-30 0 -63 7v65q20 -4 55 -4q57 0 57 83v362q0 127 -100 127q-31 0 -67 -13.5t-57 -29.5v-384h-82v482z" />
    <glyph glyph-name="Omacron" unicode="&#x14c;" horiz-adv-x="680" 
d="M150 340q0 -279 191 -279q189 0 189 279t-189 279q-191 0 -191 -279zM617 340q0 -104 -27 -181.5t-90.5 -125.5t-158.5 -48q-141 0 -209.5 97t-68.5 258t68.5 258t209.5 97q95 0 158.5 -48t90.5 -125.5t27 -181.5zM467 777h-243v74h243v-74z" />
    <glyph glyph-name="omacron" unicode="&#x14d;" horiz-adv-x="545" 
d="M138 241q0 -83 31.5 -134.5t101.5 -51.5t103 52t33 134t-33 134t-103 52t-101.5 -51.5t-31.5 -134.5zM491 241q0 -113 -54.5 -184.5t-165.5 -71.5q-110 0 -163.5 71.5t-53.5 184.5t53.5 184.5t163.5 71.5q111 0 165.5 -71.5t54.5 -184.5zM395 597h-243v74h243v-74z" />
    <glyph glyph-name="Obreve" unicode="&#x14e;" horiz-adv-x="680" 
d="M150 340q0 -279 191 -279q189 0 189 279t-189 279q-191 0 -191 -279zM617 340q0 -104 -27 -181.5t-90.5 -125.5t-158.5 -48q-141 0 -209.5 97t-68.5 258t68.5 258t209.5 97q95 0 158.5 -48t90.5 -125.5t27 -181.5zM344 838q61 0 110 32l23 -52q-55 -55 -133 -55
q-77 0 -132 55l23 52q49 -32 109 -32z" />
    <glyph glyph-name="obreve" unicode="&#x14f;" horiz-adv-x="545" 
d="M138 241q0 -83 31.5 -134.5t101.5 -51.5t103 52t33 134t-33 134t-103 52t-101.5 -51.5t-31.5 -134.5zM491 241q0 -113 -54.5 -184.5t-165.5 -71.5q-110 0 -163.5 71.5t-53.5 184.5t53.5 184.5t163.5 71.5q111 0 165.5 -71.5t54.5 -184.5zM273 654q61 0 110 32l23 -52
q-55 -55 -133 -55q-77 0 -132 55l23 52q49 -32 109 -32z" />
    <glyph glyph-name="Ohungarumlaut" unicode="&#x150;" horiz-adv-x="680" 
d="M150 340q0 -279 191 -279q189 0 189 279t-189 279q-191 0 -191 -279zM617 340q0 -104 -27 -181.5t-90.5 -125.5t-158.5 -48q-141 0 -209.5 97t-68.5 258t68.5 258t209.5 97q95 0 158.5 -48t90.5 -125.5t27 -181.5zM380 883v-10l-78 -121h-71v10l59 121h90zM535 883v-10
l-78 -121h-71v10l59 121h90z" />
    <glyph glyph-name="ohungarumlaut" unicode="&#x151;" horiz-adv-x="545" 
d="M138 241q0 -83 31.5 -134.5t101.5 -51.5t103 52t33 134t-33 134t-103 52t-101.5 -51.5t-31.5 -134.5zM491 241q0 -113 -54.5 -184.5t-165.5 -71.5q-110 0 -163.5 71.5t-53.5 184.5t53.5 184.5t163.5 71.5q111 0 165.5 -71.5t54.5 -184.5zM320 710v-10l-78 -121h-71v10
l59 121h90zM475 710v-10l-78 -121h-71v10l59 121h90z" />
    <glyph glyph-name="OE" unicode="&#x152;" horiz-adv-x="899" 
d="M341 695q55 0 97 -15h397v-74h-314v-222h284v-74h-284v-236h316v-74h-399q-38 -15 -97 -15q-141 0 -209.5 97t-68.5 258t68.5 258t209.5 97zM341 61q57 0 95 17v523q-40 18 -95 18q-191 0 -191 -279t191 -279z" />
    <glyph glyph-name="oe" unicode="&#x153;" horiz-adv-x="866" 
d="M810 220h-322q0 -68 41.5 -116.5t103.5 -48.5q73 0 133 44l31 -61q-74 -53 -171 -53q-121 0 -177 101q-60 -101 -178 -101q-110 0 -163.5 71.5t-53.5 184.5t53.5 184.5t163.5 71.5q118 0 179 -103q25 47 68.5 75t98.5 28q99 0 148.5 -60t49.5 -148q0 -41 -5 -69zM139 241
q0 -83 31.5 -134.5t101.5 -51.5t103 52t33 134t-33 134t-103 52t-101.5 -51.5t-31.5 -134.5zM492 282h242q1 7 1 23q0 53 -31 87.5t-87 34.5q-54 0 -87.5 -41.5t-37.5 -103.5z" />
    <glyph glyph-name="Racute" unicode="&#x154;" horiz-adv-x="611" 
d="M180 0h-84v680h235q97 0 151 -49.5t54 -143.5q0 -79 -39 -126.5t-110 -60.5l188 -284v-16h-92l-190 295h-113v-295zM180 369h146q60 0 91.5 30.5t31.5 87.5t-31.5 88t-91.5 31h-146v-237zM398 883v-10l-79 -121h-71v10l60 121h90z" />
    <glyph glyph-name="racute" unicode="&#x155;" horiz-adv-x="349" 
d="M81 482h58l10 -51h2q43 66 124 66q26 0 47 -7l-12 -73q-22 6 -45 6q-70 0 -102 -64v-359h-82v482zM296 710v-10l-79 -121h-71v10l59 121h91z" />
    <glyph glyph-name="Rcommaaccent" unicode="&#x156;" horiz-adv-x="611" 
d="M180 0h-84v680h235q97 0 151 -49.5t54 -143.5q0 -79 -39 -126.5t-110 -60.5l188 -284v-16h-92l-190 295h-113v-295zM180 369h146q60 0 91.5 30.5t31.5 87.5t-31.5 88t-91.5 31h-146v-237zM237 -218v10l18 141h85v-10l-38 -141h-65z" />
    <glyph glyph-name="rcommaaccent" unicode="&#x157;" horiz-adv-x="349" 
d="M81 482h58l10 -51h2q43 66 124 66q26 0 47 -7l-12 -73q-22 6 -45 6q-70 0 -102 -64v-359h-82v482zM59 -218v10l18 141h85v-10l-38 -141h-65z" />
    <glyph glyph-name="Rcaron" unicode="&#x158;" horiz-adv-x="611" 
d="M180 0h-84v680h235q97 0 151 -49.5t54 -143.5q0 -79 -39 -126.5t-110 -60.5l188 -284v-16h-92l-190 295h-113v-295zM180 369h146q60 0 91.5 30.5t31.5 87.5t-31.5 88t-91.5 31h-146v-237zM234 752l-86 121v10h75l58 -71l58 71h75v-10l-86 -121h-94z" />
    <glyph glyph-name="rcaron" unicode="&#x159;" horiz-adv-x="349" 
d="M81 482h58l10 -51h2q43 66 124 66q26 0 47 -7l-12 -73q-22 6 -45 6q-70 0 -102 -64v-359h-82v482zM148 579l-86 121v10h75l58 -84l58 84h75v-10l-86 -121h-94z" />
    <glyph glyph-name="Sacute" unicode="&#x15a;" horiz-adv-x="505" 
d="M49 57l39 66q68 -62 162 -62q53 0 84.5 30t31.5 85q0 42 -23.5 68.5t-78.5 50.5l-57 24q-144 62 -144 182q0 82 55 138t148 56q97 0 172 -52l-36 -66q-67 42 -140 42q-54 0 -83 -32t-29 -80q0 -36 19 -61.5t67 -45.5l57 -25q80 -35 120 -79.5t40 -114.5
q0 -87 -55.5 -141.5t-147.5 -54.5q-112 0 -201 72zM372 883v-10l-79 -121h-71v10l60 121h90z" />
    <glyph glyph-name="sacute" unicode="&#x15b;" horiz-adv-x="430" 
d="M48 31l29 65q64 -41 131 -41q44 0 66.5 20.5t22.5 53.5q0 25 -15.5 40.5t-49.5 27.5l-54 18q-58 20 -90 51.5t-32 84.5q0 62 45.5 104t120.5 42q77 0 150 -34l-27 -66q-60 30 -120 30q-42 0 -63.5 -21t-21.5 -53q0 -46 63 -67l53 -16q125 -37 125 -140q0 -63 -45.5 -104
t-122.5 -41q-94 0 -165 46zM331 710v-10l-79 -121h-71v10l59 121h91z" />
    <glyph glyph-name="Scircumflex" unicode="&#x15c;" horiz-adv-x="505" 
d="M49 57l39 66q68 -62 162 -62q53 0 84.5 30t31.5 85q0 42 -23.5 68.5t-78.5 50.5l-57 24q-144 62 -144 182q0 82 55 138t148 56q97 0 172 -52l-36 -66q-67 42 -140 42q-54 0 -83 -32t-29 -80q0 -36 19 -61.5t67 -45.5l57 -25q80 -35 120 -79.5t40 -114.5
q0 -87 -55.5 -141.5t-147.5 -54.5q-112 0 -201 72zM309 883l86 -121v-10h-75l-58 71l-58 -71h-75v10l86 121h94z" />
    <glyph glyph-name="scircumflex" unicode="&#x15d;" horiz-adv-x="430" 
d="M48 31l29 65q64 -41 131 -41q44 0 66.5 20.5t22.5 53.5q0 25 -15.5 40.5t-49.5 27.5l-54 18q-58 20 -90 51.5t-32 84.5q0 62 45.5 104t120.5 42q77 0 150 -34l-27 -66q-60 30 -120 30q-42 0 -63.5 -21t-21.5 -53q0 -46 63 -67l53 -16q125 -37 125 -140q0 -63 -45.5 -104
t-122.5 -41q-94 0 -165 46zM270 710l86 -121v-10h-75l-58 84l-58 -84h-75v10l86 121h94z" />
    <glyph glyph-name="Scedilla" unicode="&#x15e;" horiz-adv-x="506" 
d="M49 57l39 66q68 -62 162 -62q53 0 84.5 30t31.5 85q0 42 -23.5 68.5t-78.5 50.5l-57 24q-144 62 -144 182q0 82 55 138t148 56q97 0 172 -52l-36 -66q-67 42 -140 42q-54 0 -83 -32t-29 -80q0 -36 19 -61.5t67 -45.5l57 -25q80 -35 120 -79.5t40 -114.5q0 -80 -47.5 -133
t-126.5 -61l-13 -35q65 -12 65 -72q0 -93 -108 -93q-43 0 -69 14l12 55q26 -11 49 -11t33.5 7.5t10.5 27.5q0 37 -56 37l-5 10l19 60q-95 10 -168 70z" />
    <glyph glyph-name="scedilla" unicode="&#x15f;" horiz-adv-x="431" 
d="M48 31l29 65q64 -41 131 -41q44 0 66.5 20.5t22.5 53.5q0 25 -15.5 40.5t-49.5 27.5l-54 18q-58 20 -90 51.5t-32 84.5q0 62 45.5 104t120.5 42q77 0 150 -34l-27 -66q-60 30 -120 30q-42 0 -63.5 -21t-21.5 -53q0 -46 63 -67l53 -16q125 -37 125 -140q0 -57 -37 -95.5
t-100 -47.5l-13 -35q66 -12 66 -72q0 -93 -109 -93q-39 0 -69 14l13 55q26 -11 49 -11q44 0 44 35q0 37 -56 37l-6 10l20 59q-69 5 -135 45z" />
    <glyph glyph-name="Scaron" unicode="&#x160;" horiz-adv-x="505" 
d="M49 57l39 66q68 -62 162 -62q53 0 84.5 30t31.5 85q0 42 -23.5 68.5t-78.5 50.5l-57 24q-144 62 -144 182q0 82 55 138t148 56q97 0 172 -52l-36 -66q-67 42 -140 42q-54 0 -83 -32t-29 -80q0 -36 19 -61.5t67 -45.5l57 -25q80 -35 120 -79.5t40 -114.5
q0 -87 -55.5 -141.5t-147.5 -54.5q-112 0 -201 72zM217 752l-86 121v10h75l58 -71l58 71h75v-10l-86 -121h-94z" />
    <glyph glyph-name="scaron" unicode="&#x161;" horiz-adv-x="430" 
d="M48 31l29 65q64 -41 131 -41q44 0 66.5 20.5t22.5 53.5q0 25 -15.5 40.5t-49.5 27.5l-54 18q-58 20 -90 51.5t-32 84.5q0 62 45.5 104t120.5 42q77 0 150 -34l-27 -66q-60 30 -120 30q-42 0 -63.5 -21t-21.5 -53q0 -46 63 -67l53 -16q125 -37 125 -140q0 -63 -45.5 -104
t-122.5 -41q-94 0 -165 46zM170 579l-86 121v10h75l58 -84l58 84h75v-10l-86 -121h-94z" />
    <glyph glyph-name="Tcommaaccent" unicode="&#x162;" horiz-adv-x="523" 
d="M36 680h451v-74h-183v-606h-12l-21 -48q65 -12 65 -72q0 -93 -108 -93q-39 0 -69 14l13 55q26 -11 48 -11q45 0 45 35q0 37 -57 37l-5 10l27 73h-12v606h-182v74z" />
    <glyph glyph-name="tcommaaccent" unicode="&#x163;" horiz-adv-x="367" 
d="M123 594h82v-112h128v-69h-128v-288q0 -70 58 -70q18 0 70 12v-68q-44 -13 -82 -14l-13 -33q65 -12 65 -72q0 -93 -108 -93q-39 0 -69 14l13 55q26 -11 48 -11q45 0 45 35q0 37 -57 37l-5 10l21 68q-68 25 -68 121v297h-89v50l89 19v112z" />
    <glyph glyph-name="Tcaron" unicode="&#x164;" horiz-adv-x="523" 
d="M36 680h451v-74h-183v-606h-86v606h-182v74zM214 752l-86 121v10h75l58 -71l58 71h75v-10l-86 -121h-94z" />
    <glyph glyph-name="tcaron" unicode="&#x165;" horiz-adv-x="365" 
d="M122 594h82v-112h128v-67h-128v-290q0 -70 58 -70q18 0 70 12v-68q-53 -14 -87 -14q-57 0 -90 33t-33 98v299h-89v48l89 19v112zM279 529v10l18 141h85v-10l-38 -141h-65z" />
    <glyph glyph-name="Tbar" unicode="&#x166;" horiz-adv-x="523" 
d="M36 680h451v-74h-183v-199h117v-73h-117v-334h-86v334h-114v73h114v199h-182v74z" />
    <glyph glyph-name="tbar" unicode="&#x167;" horiz-adv-x="367" 
d="M124 594h82v-112h128v-69h-128v-110h95v-64h-95v-114q0 -70 58 -70q18 0 70 12v-68q-53 -14 -87 -14q-57 0 -90 33t-33 98v123h-67v64h67v110h-89v50l89 19v112z" />
    <glyph glyph-name="Utilde" unicode="&#x168;" horiz-adv-x="662" 
d="M90 680h84v-428q0 -91 39 -141t119 -50q156 0 156 191v428h84v-439q0 -123 -59.5 -189.5t-180.5 -66.5q-242 0 -242 257v438zM212 767l-25 50q36 57 83 57q20 0 60.5 -20t59.5 -20q30 0 54 35l25 -50q-40 -57 -83 -57q-21 0 -61 20t-60 20q-28 0 -53 -35z" />
    <glyph glyph-name="utilde" unicode="&#x169;" horiz-adv-x="540" 
d="M77 482h82v-300q0 -64 23 -95.5t73 -31.5q32 0 67 13.5t55 29.5v384h82v-482h-58l-9 44h-2q-81 -59 -155 -59q-76 0 -117 46t-41 137v314zM151 584l-25 50q36 57 83 57q20 0 60.5 -20t59.5 -20q30 0 54 35l25 -50q-40 -57 -83 -57q-21 0 -61 20t-60 20q-28 0 -53 -35z
" />
    <glyph glyph-name="Umacron" unicode="&#x16a;" horiz-adv-x="662" 
d="M90 680h84v-428q0 -91 39 -141t119 -50q156 0 156 191v428h84v-439q0 -123 -59.5 -189.5t-180.5 -66.5q-242 0 -242 257v438zM450 777h-243v74h243v-74z" />
    <glyph glyph-name="umacron" unicode="&#x16b;" horiz-adv-x="540" 
d="M77 482h82v-300q0 -64 23 -95.5t73 -31.5q32 0 67 13.5t55 29.5v384h82v-482h-58l-9 44h-2q-81 -59 -155 -59q-76 0 -117 46t-41 137v314zM389 597h-243v74h243v-74z" />
    <glyph glyph-name="Ubreve" unicode="&#x16c;" horiz-adv-x="662" 
d="M90 680h84v-428q0 -91 39 -141t119 -50q156 0 156 191v428h84v-439q0 -123 -59.5 -189.5t-180.5 -66.5q-242 0 -242 257v438zM327 838q61 0 110 32l23 -52q-55 -55 -133 -55q-77 0 -132 55l23 52q49 -32 109 -32z" />
    <glyph glyph-name="ubreve" unicode="&#x16d;" horiz-adv-x="540" 
d="M77 482h82v-300q0 -64 23 -95.5t73 -31.5q32 0 67 13.5t55 29.5v384h82v-482h-58l-9 44h-2q-81 -59 -155 -59q-76 0 -117 46t-41 137v314zM269 654q61 0 110 32l23 -52q-55 -55 -133 -55q-77 0 -132 55l23 52q49 -32 109 -32z" />
    <glyph glyph-name="Uring" unicode="&#x16e;" horiz-adv-x="662" 
d="M90 680h84v-428q0 -91 39 -141t119 -50q156 0 156 191v428h84v-439q0 -123 -59.5 -189.5t-180.5 -66.5q-242 0 -242 257v438zM289 828q0 -20 11 -31t29 -11t29 11t11 31q0 41 -40 41t-40 -41zM235 828q0 44 25.5 68.5t68.5 24.5t68 -24.5t25 -68.5t-25 -69t-68 -25
t-68.5 25t-25.5 69z" />
    <glyph glyph-name="uring" unicode="&#x16f;" horiz-adv-x="540" 
d="M77 482h82v-300q0 -64 23 -95.5t73 -31.5q32 0 67 13.5t55 29.5v384h82v-482h-58l-9 44h-2q-81 -59 -155 -59q-76 0 -117 46t-41 137v314zM228 638q0 -20 11 -31t29 -11t29 11t11 31q0 41 -40 41t-40 -41zM174 638q0 44 25.5 68.5t68.5 24.5t68 -24.5t25 -68.5t-25 -69
t-68 -25t-68.5 25t-25.5 69z" />
    <glyph glyph-name="Uhungarumlaut" unicode="&#x170;" horiz-adv-x="662" 
d="M90 680h84v-428q0 -91 39 -141t119 -50q156 0 156 191v428h84v-439q0 -123 -59.5 -189.5t-180.5 -66.5q-242 0 -242 257v438zM361 883v-10l-78 -121h-71v10l59 121h90zM516 883v-10l-78 -121h-71v10l59 121h90z" />
    <glyph glyph-name="uhungarumlaut" unicode="&#x171;" horiz-adv-x="540" 
d="M77 482h82v-300q0 -64 23 -95.5t73 -31.5q32 0 67 13.5t55 29.5v384h82v-482h-58l-9 44h-2q-81 -59 -155 -59q-76 0 -117 46t-41 137v314zM304 710v-10l-78 -121h-71v10l59 121h90zM459 710v-10l-78 -121h-71v10l59 121h90z" />
    <glyph glyph-name="Uogonek" unicode="&#x172;" horiz-adv-x="664" 
d="M91 680h84v-428q0 -91 39 -141t119 -50q156 0 156 191v428h84v-439q0 -237 -207 -254q-46 -11 -46 -81q0 -50 42 -50q24 0 54 21l8 -62q-37 -28 -80 -28q-40 0 -67 23.5t-27 71.5q0 68 44 105q-203 19 -203 255v438z" />
    <glyph glyph-name="uogonek" unicode="&#x173;" horiz-adv-x="540" 
d="M394 -213q-41 0 -68.5 23.5t-27.5 71.5q0 70 99 135l-5 27h-2q-81 -59 -155 -59q-76 0 -117 46t-41 137v314h82v-300q0 -64 23 -95.5t73 -31.5q32 0 67 13.5t55 29.5v384h82v-482q-89 -50 -89 -101q0 -43 43 -43q20 0 55 21l8 -62q-37 -28 -82 -28z" />
    <glyph glyph-name="Wcircumflex" unicode="&#x174;" horiz-adv-x="913" 
d="M882 680v-10l-181 -670h-85l-118 427l-40 171h-3l-40 -171l-117 -427h-86l-180 670v10h87l101 -410l36 -169h2l40 169l114 410h89l114 -410l40 -169h2l36 169l101 410h88zM504 883l86 -121v-10h-75l-58 71l-58 -71h-75v10l86 121h94z" />
    <glyph glyph-name="wcircumflex" unicode="&#x175;" horiz-adv-x="767" 
d="M735 482v-10l-151 -472h-79l-99 312l-22 90h-2l-22 -90l-98 -312h-79l-151 472v10h83l89 -305l20 -88h2l21 88l94 305h84l95 -305l21 -88h2l20 88l89 305h83zM431 710l86 -121v-10h-75l-58 84l-58 -84h-75v10l86 121h94z" />
    <glyph glyph-name="Ycircumflex" unicode="&#x176;" horiz-adv-x="528" 
d="M15 680h90l158 -309h2l160 309h89v-10l-208 -382v-288h-84v288l-207 382v10zM313 883l86 -121v-10h-75l-58 71l-58 -71h-75v10l86 121h94z" />
    <glyph glyph-name="ycircumflex" unicode="&#x177;" horiz-adv-x="481" 
d="M450 482v-10l-185 -537q-51 -148 -153 -148q-32 0 -81 13v67q46 -12 74 -12t45 21t33 64l22 65l-178 467v10h81l105 -305l28 -95h2l26 95l101 305h80zM289 710l86 -121v-10h-75l-58 84l-58 -84h-75v10l86 121h94z" />
    <glyph glyph-name="Ydieresis" unicode="&#x178;" horiz-adv-x="528" 
d="M15 680h90l158 -309h2l160 309h89v-10l-208 -382v-288h-84v288l-207 382v10zM112 816q0 25 14 40t38 15q25 0 39 -15t14 -40q0 -26 -14 -40.5t-39 -14.5q-24 0 -38 14.5t-14 40.5zM315 816q0 25 14 40t38 15q25 0 39 -15t14 -40q0 -26 -14 -40.5t-39 -14.5
q-24 0 -38 14.5t-14 40.5z" />
    <glyph glyph-name="Zacute" unicode="&#x179;" horiz-adv-x="521" 
d="M62 680h406v-71l-318 -533v-2h318v-74h-422v71l317 533v2h-301v74zM371 883v-10l-79 -121h-71v10l60 121h90z" />
    <glyph glyph-name="zacute" unicode="&#x17a;" horiz-adv-x="427" 
d="M57 482h320v-50l-232 -364v-2h232v-66h-333v50l232 364v2h-219v66zM333 710v-10l-79 -121h-71v10l59 121h91z" />
    <glyph glyph-name="Zdotaccent" unicode="&#x17b;" horiz-adv-x="521" 
d="M62 680h406v-71l-318 -533v-2h318v-74h-422v71l317 533v2h-301v74zM219 816q0 25 14 40t38 15q25 0 39 -15t14 -40q0 -26 -14 -40.5t-39 -14.5q-24 0 -38 14.5t-14 40.5z" />
    <glyph glyph-name="zdotaccent" unicode="&#x17c;" horiz-adv-x="427" 
d="M57 482h320v-50l-232 -364v-2h232v-66h-333v50l232 364v2h-219v66zM171 634q0 25 14 40t38 15q25 0 39 -15t14 -40q0 -26 -14 -40.5t-39 -14.5q-24 0 -38 14.5t-14 40.5z" />
    <glyph glyph-name="Zcaron" unicode="&#x17d;" horiz-adv-x="521" 
d="M62 680h406v-71l-318 -533v-2h318v-74h-422v71l317 533v2h-301v74zM223 752l-86 121v10h75l58 -71l58 71h75v-10l-86 -121h-94z" />
    <glyph glyph-name="zcaron" unicode="&#x17e;" horiz-adv-x="427" 
d="M57 482h320v-50l-232 -364v-2h232v-66h-333v50l232 364v2h-219v66zM176 579l-86 121v10h75l58 -84l58 84h75v-10l-86 -121h-94z" />
    <glyph glyph-name="florin" unicode="&#x192;" 
d="M242 299h-94l11 69h94l26 170q14 83 53.5 120t109.5 37q28 0 62 -6l-8 -71q-30 7 -55 7q-65 0 -78 -80l-27 -177h112l-11 -69h-112l-59 -355q-14 -83 -52.5 -120t-108.5 -37q-30 0 -62 6l8 71q28 -7 55 -7q64 0 76 80z" />
    <glyph glyph-name="Aringacute" unicode="&#x1fa;" horiz-adv-x="595" 
d="M205 721q0 44 25.5 68.5t68.5 24.5t68 -24.5t25 -68.5q0 -54 -39 -79l223 -642h-88l-57 176h-267l-58 -176h-87l223 642q-37 25 -37 79zM299 595h-2l-53 -184l-55 -165h216l-53 165zM259 721q0 -40 40 -40t40 40q0 39 -40 39t-40 -39zM412 961v-8l-79 -98h-70v8l59 98h90
z" />
    <glyph glyph-name="aringacute" unicode="&#x1fb;" horiz-adv-x="494" 
d="M203 618q0 -40 40 -40t40 40q0 39 -40 39t-40 -39zM149 618q0 44 25 66t69 22q43 0 68 -22t25 -66t-25 -66.5t-68 -22.5t-68.5 22.5t-25.5 66.5zM335 224h-91q-113 0 -113 -93q0 -76 79 -76q77 0 125 41v128zM417 0h-60l-8 44h-2q-73 -59 -155 -59q-67 0 -106 38.5
t-39 107.5q0 151 190 151h98v31q0 52 -25.5 83t-77.5 31q-75 0 -128 -41l-34 57q69 54 165 54q90 0 136 -49t46 -137v-311zM356 841v-8l-79 -98h-70v8l59 98h90z" />
    <glyph glyph-name="AEacute" unicode="&#x1fc;" horiz-adv-x="850" 
d="M0 0v10l364 670h422v-74h-313v-222h284v-74h-284v-236h316v-74h-400v176h-212l-97 -176h-80zM399 595h-2l-71 -142l-111 -207h174v196zM676 883v-10l-79 -121h-71v10l60 121h90z" />
    <glyph glyph-name="aeacute" unicode="&#x1fd;" horiz-adv-x="778" 
d="M341 222h-95q-116 0 -116 -87q0 -40 21.5 -60t58.5 -20q49 0 90 44.5t41 122.5zM378 92q-65 -107 -186 -107q-64 0 -104.5 39t-40.5 109q0 79 51.5 114t135.5 35h106v31q0 51 -27 82.5t-80 31.5q-75 0 -128 -41l-34 57q69 54 160 54q104 0 161 -85q56 85 145 85
q98 0 144 -59.5t46 -148.5q0 -41 -5 -69h-302q0 -69 36 -117t97 -48q41 0 68 11t57 33l31 -61q-74 -53 -163 -53q-64 0 -103 27.5t-65 79.5zM424 282h222q1 7 1 23q0 54 -28 88t-82 34q-53 0 -81 -40t-32 -105zM509 710v-10l-79 -121h-71v10l59 121h91z" />
    <glyph glyph-name="Oslashacute" unicode="&#x1fe;" horiz-adv-x="680" 
d="M153 -25l-53 35l38 63q-75 92 -75 267q0 161 68.5 258t209.5 97q89 0 153 -43l37 58l55 -33l-44 -70q75 -94 75 -267q0 -104 -27 -181.5t-90.5 -125.5t-158.5 -48q-93 0 -154 43zM530 340q0 121 -36 189l-265 -432q43 -36 112 -36q189 0 189 279zM150 340q0 -124 36 -189
l266 432q-44 36 -111 36q-191 0 -191 -279zM464 883v-10l-79 -121h-71v10l60 121h90z" />
    <glyph glyph-name="oslashacute" unicode="&#x1ff;" horiz-adv-x="545" 
d="M125 -29l-52 39l34 48q-52 68 -52 183q0 113 53.5 184.5t163.5 71.5q72 0 122 -33l32 45l54 -37l-38 -53q50 -67 50 -178q0 -113 -54.5 -184.5t-165.5 -71.5q-69 0 -116 29zM408 241q0 57 -18 104l-190 -269q31 -21 72 -21q70 0 103 52t33 134zM139 241q0 -66 19 -111
l192 272q-31 25 -78 25q-70 0 -101.5 -51.5t-31.5 -134.5zM384 710v-10l-79 -121h-71v10l59 121h91z" />
    <glyph glyph-name="Scommaaccent" unicode="&#x218;" horiz-adv-x="505" 
d="M49 57l39 66q68 -62 162 -62q53 0 84.5 30t31.5 85q0 42 -23.5 68.5t-78.5 50.5l-57 24q-144 62 -144 182q0 82 55 138t148 56q97 0 172 -52l-36 -66q-67 42 -140 42q-54 0 -83 -32t-29 -80q0 -36 19 -61.5t67 -45.5l57 -25q80 -35 120 -79.5t40 -114.5
q0 -87 -55.5 -141.5t-147.5 -54.5q-112 0 -201 72zM194 -218v10l18 141h85v-10l-38 -141h-65z" />
    <glyph glyph-name="scommaaccent" unicode="&#x219;" horiz-adv-x="430" 
d="M48 31l29 65q64 -41 131 -41q44 0 66.5 20.5t22.5 53.5q0 25 -15.5 40.5t-49.5 27.5l-54 18q-58 20 -90 51.5t-32 84.5q0 62 45.5 104t120.5 42q77 0 150 -34l-27 -66q-60 30 -120 30q-42 0 -63.5 -21t-21.5 -53q0 -46 63 -67l53 -16q125 -37 125 -140q0 -63 -45.5 -104
t-122.5 -41q-94 0 -165 46zM162 -218v10l18 141h85v-10l-38 -141h-65z" />
    <glyph glyph-name="uni021A" unicode="&#x21a;" horiz-adv-x="523" 
d="M36 680h451v-74h-183v-606h-86v606h-182v74zM200 -218v10l18 141h85v-10l-38 -141h-65z" />
    <glyph glyph-name="uni021B" unicode="&#x21b;" horiz-adv-x="365" 
d="M122 594h82v-112h128v-67h-128v-290q0 -70 58 -70q18 0 70 12v-68q-53 -14 -87 -14q-57 0 -90 33t-33 98v299h-89v48l89 19v112zM174 -218v10l18 141h85v-10l-38 -141h-65z" />
    <glyph glyph-name="dotlessj" unicode="&#x237;" horiz-adv-x="244" 
d="M81 482h82v-542q0 -73 -33 -113t-98 -40q-30 0 -63 7v65q20 -4 55 -4q57 0 57 83v544z" />
    <glyph glyph-name="circumflex" unicode="&#x2c6;" horiz-adv-x="542" 
d="M318 710l86 -121v-10h-75l-58 84l-58 -84h-75v10l86 121h94z" />
    <glyph glyph-name="caron" unicode="&#x2c7;" horiz-adv-x="542" 
d="M224 579l-86 121v10h75l58 -84l58 84h75v-10l-86 -121h-94z" />
    <glyph glyph-name="uni02C9" unicode="&#x2c9;" horiz-adv-x="543" 
d="M392 607h-243v74h243v-74z" />
    <glyph glyph-name="breve" unicode="&#x2d8;" horiz-adv-x="542" 
d="M270 654q61 0 110 32l23 -52q-55 -55 -133 -55q-77 0 -132 55l23 52q49 -32 109 -32z" />
    <glyph glyph-name="dotaccent" unicode="&#x2d9;" horiz-adv-x="542" 
d="M218 634q0 25 14 40t38 15q25 0 39 -15t14 -40q0 -26 -14 -40.5t-39 -14.5q-24 0 -38 14.5t-14 40.5z" />
    <glyph glyph-name="ring" unicode="&#x2da;" horiz-adv-x="542" 
d="M231 638q0 -20 11 -31t29 -11t29 11t11 31q0 41 -40 41t-40 -41zM177 638q0 44 25.5 68.5t68.5 24.5t68 -24.5t25 -68.5t-25 -69t-68 -25t-68.5 25t-25.5 69z" />
    <glyph glyph-name="ogonek" unicode="&#x2db;" horiz-adv-x="542" 
d="M276 -213q-41 0 -68.5 23.5t-27.5 71.5q0 44 33 79.5t93 72.5l34 -30q-88 -63 -88 -105q0 -43 43 -43q20 0 55 21l8 -62q-37 -28 -82 -28z" />
    <glyph glyph-name="tilde" unicode="&#x2dc;" horiz-adv-x="542" 
d="M155 584l-25 50q36 57 83 57q20 0 60.5 -20t59.5 -20q30 0 54 35l25 -50q-40 -57 -83 -57q-21 0 -61 20t-60 20q-28 0 -53 -35z" />
    <glyph glyph-name="hungarumlaut" unicode="&#x2dd;" horiz-adv-x="542" 
d="M268 710v-10l-78 -121h-71v10l59 121h90zM423 710v-10l-78 -121h-71v10l59 121h90z" />
    <glyph glyph-name="tonos" unicode="&#x384;" horiz-adv-x="590" 
d="M387 710v-10l-50 -141h-62v10l29 141h83z" />
    <glyph glyph-name="dieresistonos" unicode="&#x385;" horiz-adv-x="590" 
d="M119 614q0 26 15.5 41t41.5 15q27 0 42.5 -15t15.5 -41t-15.5 -41.5t-42.5 -15.5q-26 0 -41.5 15.5t-15.5 41.5zM406 614q0 26 15.5 41t41.5 15q27 0 42.5 -15t15.5 -41t-15.5 -41.5t-42.5 -15.5q-26 0 -41.5 15.5t-15.5 41.5zM386 710v-10l-45 -151h-72v10l24 151h93z
" />
    <glyph glyph-name="Alphatonos" unicode="&#x386;" horiz-adv-x="621" 
d="M366 680l236 -680h-88l-57 176h-267l-58 -176h-87l236 680h85zM325 595h-2l-53 -184l-55 -165h216l-53 165zM169 680v-10l-45 -141h-64v10l24 141h85z" />
    <glyph glyph-name="anoteleia" unicode="&#x387;" horiz-adv-x="256" 
d="M68 288q0 27 17 44.5t43 17.5q27 0 43.5 -17.5t16.5 -44.5q0 -28 -16.5 -45.5t-43.5 -17.5q-26 0 -43 17.5t-17 45.5z" />
    <glyph glyph-name="Epsilontonos" unicode="&#x388;" horiz-adv-x="669" 
d="M208 680h397v-74h-313v-222h284v-74h-284v-236h316v-74h-400v680zM130 680v-10l-45 -141h-64v10l24 141h85z" />
    <glyph glyph-name="Etatonos" unicode="&#x389;" horiz-adv-x="782" 
d="M602 0v310h-310v-310h-84v680h84v-296h310v296h84v-680h-84zM130 680v-10l-45 -141h-64v10l24 141h85z" />
    <glyph glyph-name="Iotatonos" unicode="&#x38a;" horiz-adv-x="388" 
d="M292 680v-680h-84v680h84zM130 680v-10l-45 -141h-64v10l24 141h85z" />
    <glyph glyph-name="Omicrontonos" unicode="&#x38c;" horiz-adv-x="769" 
d="M239 340q0 -279 191 -279q189 0 189 279t-189 279q-191 0 -191 -279zM706 340q0 -104 -27 -181.5t-90.5 -125.5t-158.5 -48q-141 0 -209.5 97t-68.5 258t68.5 258t209.5 97q95 0 158.5 -48t90.5 -125.5t27 -181.5zM137 680v-10l-45 -141h-64v10l24 141h85z" />
    <glyph glyph-name="Upsilontonos" unicode="&#x38e;" horiz-adv-x="711" 
d="M198 680h90l158 -309h2l160 309h89v-10l-208 -382v-288h-84v288l-207 382v10zM141 680v-10l-45 -141h-64v10l24 141h85z" />
    <glyph glyph-name="Omegatonos" unicode="&#x38f;" horiz-adv-x="773" 
d="M154 0v74h128q-56 43 -94 115t-38 161q0 74 16 135t48.5 109t87 74.5t126.5 26.5q140 0 208.5 -95.5t68.5 -249.5q0 -89 -38 -161t-94 -115h128v-74h-223v70q139 105 139 269q0 280 -189 280q-101 0 -145.5 -76.5t-44.5 -202.5q0 -164 139 -270v-70h-223zM140 680v-10
l-45 -141h-64v10l24 141h85z" />
    <glyph glyph-name="iotadieresistonos" unicode="&#x390;" horiz-adv-x="268" 
d="M82 482h82v-373q0 -31 9.5 -42.5t30.5 -11.5q22 0 36 6v-68q-27 -8 -62 -8q-96 0 -96 125v372zM-58 614q0 26 15.5 41t41.5 15q27 0 42.5 -15t15.5 -41t-15.5 -41.5t-42.5 -15.5q-26 0 -41.5 15.5t-15.5 41.5zM229 614q0 26 15.5 41t41.5 15q27 0 42.5 -15t15.5 -41
t-15.5 -41.5t-42.5 -15.5q-26 0 -41.5 15.5t-15.5 41.5zM209 710v-10l-45 -151h-72v10l24 151h93z" />
    <glyph glyph-name="Alpha" unicode="&#x391;" horiz-adv-x="595" 
d="M340 680l236 -680h-88l-57 176h-267l-58 -176h-87l236 680h85zM299 595h-2l-53 -184l-55 -165h216l-53 165z" />
    <glyph glyph-name="Beta" unicode="&#x392;" horiz-adv-x="593" 
d="M180 303v-229h146q124 0 124 115q0 61 -32 87.5t-93 26.5h-145zM96 680h205q210 0 210 -174q0 -58 -23.5 -99t-58.5 -54v-2q108 -37 108 -168q0 -87 -53 -135t-149 -48h-239v680zM180 606v-229h115q66 0 97.5 24.5t31.5 89.5t-30.5 90t-98.5 25h-115z" />
    <glyph glyph-name="Gamma" unicode="&#x393;" horiz-adv-x="497" 
d="M180 0h-84v680h367v-74h-283v-606z" />
    <glyph glyph-name="uni0394" unicode="&#x394;" horiz-adv-x="597" 
d="M576 5v-5h-555v5l235 675h85zM299 595h-2l-53 -179l-116 -346h341l-117 346z" />
    <glyph glyph-name="Epsilon" unicode="&#x395;" horiz-adv-x="557" 
d="M96 680h397v-74h-313v-222h284v-74h-284v-236h316v-74h-400v680z" />
    <glyph glyph-name="Zeta" unicode="&#x396;" horiz-adv-x="521" 
d="M62 680h406v-71l-318 -533v-2h318v-74h-422v71l317 533v2h-301v74z" />
    <glyph glyph-name="Eta" unicode="&#x397;" horiz-adv-x="670" 
d="M490 0v310h-310v-310h-84v680h84v-296h310v296h84v-680h-84z" />
    <glyph glyph-name="Theta" unicode="&#x398;" horiz-adv-x="680" 
d="M452 305h-223v83h223v-83zM150 340q0 -279 191 -279q189 0 189 279t-189 279q-191 0 -191 -279zM617 340q0 -104 -27 -181.5t-90.5 -125.5t-158.5 -48q-141 0 -209.5 97t-68.5 258t68.5 258t209.5 97q95 0 158.5 -48t90.5 -125.5t27 -181.5z" />
    <glyph glyph-name="Iota" unicode="&#x399;" horiz-adv-x="276" 
d="M180 680v-680h-84v680h84z" />
    <glyph glyph-name="Kappa" unicode="&#x39a;" horiz-adv-x="571" 
d="M182 311h-2v-311h-84v680h84v-335h2l258 335h97v-10l-270 -337l282 -323v-10h-105z" />
    <glyph glyph-name="Lambda" unicode="&#x39b;" horiz-adv-x="595" 
d="M244 411l-138 -411h-87l236 680h85l236 -680h-88l-136 411l-53 174h-2z" />
    <glyph glyph-name="Mu" unicode="&#x39c;" horiz-adv-x="804" 
d="M401 258h1l55 128l171 294h80v-680h-84v427l10 117h-2l-199 -373h-62l-199 373h-2l10 -117v-427h-84v680h80l170 -294z" />
    <glyph glyph-name="Nu" unicode="&#x39d;" horiz-adv-x="678" 
d="M504 126h2l-8 127v427h84v-680h-88l-320 554h-2l8 -127v-427h-84v680h88z" />
    <glyph glyph-name="Xi" unicode="&#x39e;" horiz-adv-x="544" 
d="M65 79h415v-79h-415v79zM448 307h-351v79h351v-79zM477 601h-412v79h412v-79z" />
    <glyph glyph-name="Omicron" unicode="&#x39f;" horiz-adv-x="680" 
d="M150 340q0 -279 191 -279q189 0 189 279t-189 279q-191 0 -191 -279zM617 340q0 -104 -27 -181.5t-90.5 -125.5t-158.5 -48q-141 0 -209.5 97t-68.5 258t68.5 258t209.5 97q95 0 158.5 -48t90.5 -125.5t27 -181.5z" />
    <glyph glyph-name="Pi" unicode="&#x3a0;" horiz-adv-x="666" 
d="M486 0v606h-306v-606h-84v680h474v-680h-84z" />
    <glyph glyph-name="Rho" unicode="&#x3a1;" horiz-adv-x="562" 
d="M181 0h-85v680h214q101 0 155 -54t54 -153q0 -98 -54.5 -152.5t-154.5 -54.5h-129v-266zM181 606v-266h122q64 0 96.5 36t32.5 97q0 60 -32.5 96.5t-96.5 36.5h-122z" />
    <glyph glyph-name="Sigma" unicode="&#x3a3;" horiz-adv-x="528" 
d="M45 0v64l171 282l-157 269v65h417v-74h-319l152 -256l-168 -276h335v-74h-431z" />
    <glyph glyph-name="Tau" unicode="&#x3a4;" horiz-adv-x="523" 
d="M36 680h451v-74h-183v-606h-86v606h-182v74z" />
    <glyph glyph-name="Upsilon" unicode="&#x3a5;" horiz-adv-x="528" 
d="M15 680h90l158 -309h2l160 309h89v-10l-208 -382v-288h-84v288l-207 382v10z" />
    <glyph glyph-name="Phi" unicode="&#x3a6;" horiz-adv-x="746" 
d="M402 680v-63q141 -9 210 -83.5t69 -192.5t-69 -193t-210 -84v-64h-83v64q-141 9 -206 83.5t-65 193.5t64.5 193t206.5 83v63h83zM135 341q0 -192 184 -206v412q-184 -17 -184 -206zM594 341q0 188 -192 206v-412q100 8 146 63.5t46 142.5z" />
    <glyph glyph-name="Chi" unicode="&#x3a7;" horiz-adv-x="553" 
d="M33 680h90l152 -279h2l153 279h90v-10l-191 -330l191 -330v-10h-90l-153 278h-2l-152 -278h-90v10l190 330l-190 330v10z" />
    <glyph glyph-name="Psi" unicode="&#x3a8;" horiz-adv-x="681" 
d="M382 680v-445q149 4 149 184v261h84v-271q0 -249 -233 -250v-159h-84v159q-232 1 -232 251v270h84v-261q0 -180 148 -184v445h84z" />
    <glyph glyph-name="uni03A9" unicode="&#x3a9;" horiz-adv-x="691" 
d="M72 0v74h128q-56 43 -94 115t-38 161q0 74 16 135t48.5 109t87 74.5t126.5 26.5q140 0 208.5 -95.5t68.5 -249.5q0 -89 -38 -161t-94 -115h128v-74h-223v70q139 105 139 269q0 280 -189 280q-101 0 -145.5 -76.5t-44.5 -202.5q0 -164 139 -270v-70h-223z" />
    <glyph glyph-name="Iotadieresis" unicode="&#x3aa;" horiz-adv-x="276" 
d="M180 680v-680h-84v680h84zM-17 816q0 25 14 40t38 15q25 0 39 -15t14 -40q0 -26 -14 -40.5t-39 -14.5q-24 0 -38 14.5t-14 40.5zM186 816q0 25 14 40t38 15q25 0 39 -15t14 -40q0 -26 -14 -40.5t-39 -14.5q-24 0 -38 14.5t-14 40.5z" />
    <glyph glyph-name="Upsilondieresis" unicode="&#x3ab;" horiz-adv-x="528" 
d="M15 680h90l158 -309h2l160 309h89v-10l-208 -382v-288h-84v288l-207 382v10zM103 816q0 25 14 40t38 15q25 0 39 -15t14 -40q0 -26 -14 -40.5t-39 -14.5q-24 0 -38 14.5t-14 40.5zM306 816q0 25 14 40t38 15q25 0 39 -15t14 -40q0 -26 -14 -40.5t-39 -14.5
q-24 0 -38 14.5t-14 40.5z" />
    <glyph glyph-name="alphatonos" unicode="&#x3ac;" horiz-adv-x="572" 
d="M455 242l64 -242h-82l-28 119h-1q-52 -134 -161 -134q-97 0 -144.5 71.5t-47.5 184.5t47.5 184.5t143.5 71.5q110 0 162 -134h1l28 119h82zM380 241q-16 78 -51 132t-83 54q-107 0 -107 -186t107 -186q48 0 83 54t51 132zM377 710v-10l-50 -141h-62v10l29 141h83z" />
    <glyph glyph-name="epsilontonos" unicode="&#x3ad;" horiz-adv-x="458" 
d="M346 281v-67h-120q-39 0 -63 -19t-24 -53q0 -42 29.5 -64.5t83.5 -22.5q80 0 147 30l19 -63q-64 -37 -166 -37q-92 0 -145 40t-53 105q0 90 79 119v2q-65 26 -65 106q0 65 45 102.5t134 37.5q87 0 158 -33l-17 -63q-76 26 -140 26q-95 0 -95 -81q0 -31 23.5 -48t54.5 -17
h115zM339 710v-10l-50 -141h-62v10l29 141h83z" />
    <glyph glyph-name="etatonos" unicode="&#x3ae;" horiz-adv-x="546" 
d="M81 482h58l10 -44h2q25 21 69.5 40t87.5 19q77 0 119 -46t42 -137v-512h-82v498q0 127 -100 127q-31 0 -67 -13.5t-57 -29.5v-384h-82v482zM368 710v-10l-50 -141h-62v10l29 141h83z" />
    <glyph glyph-name="iotatonos" unicode="&#x3af;" horiz-adv-x="268" 
d="M82 482h82v-373q0 -31 9.5 -42.5t30.5 -11.5q22 0 36 6v-68q-27 -8 -62 -8q-96 0 -96 125v372zM209 710v-10l-50 -141h-62v10l29 141h83z" />
    <glyph glyph-name="upsilondieresistonos" unicode="&#x3b0;" horiz-adv-x="523" 
d="M157 482v-274q0 -153 112 -153q113 0 113 189q0 100 -48 238h88q42 -141 42 -238q0 -259 -195 -259q-94 0 -144 55.5t-50 163.5v278h82zM343 710v-10l-50 -141h-62v10l29 141h83z" />
    <glyph glyph-name="alpha" unicode="&#x3b1;" horiz-adv-x="572" 
d="M455 242l64 -242h-82l-28 119h-1q-52 -134 -161 -134q-97 0 -144.5 71.5t-47.5 184.5t47.5 184.5t143.5 71.5q110 0 162 -134h1l28 119h82zM380 241q-16 78 -51 132t-83 54q-107 0 -107 -186t107 -186q48 0 83 54t51 132z" />
    <glyph glyph-name="beta" unicode="&#x3b2;" horiz-adv-x="544" 
d="M167 25h-2v-223h-84v688q0 215 179 215q88 0 135 -51.5t47 -133.5q0 -97 -82 -144v-2q54 -17 93 -62.5t39 -120.5q0 -93 -58 -149.5t-142 -56.5q-74 0 -125 40zM165 483v-386q47 -42 123 -42q54 0 87 38t33 97q0 145 -143 145h-37v65h42q43 0 66 32t23 82q0 52 -26 86.5
t-70 34.5q-50 0 -74 -37t-24 -115z" />
    <glyph glyph-name="gamma" unicode="&#x3b3;" horiz-adv-x="478" 
d="M272 -198h-82v203l-160 467v10h82l92 -287l28 -108h2q9 16 24 56.5t19 49.5q61 137 84 289h81v-10q-33 -205 -170 -469v-201z" />
    <glyph glyph-name="delta" unicode="&#x3b4;" horiz-adv-x="538" 
d="M396 694v-71q-41 12 -90 12q-76 0 -76 -59q0 -25 26.5 -53t64 -57.5t75 -63.5t64 -82.5t26.5 -102.5q0 -97 -55 -164.5t-164 -67.5q-107 0 -160.5 66.5t-53.5 162.5q0 163 154 241q-59 52 -59 112q0 67 43.5 102.5t115.5 35.5q49 0 89 -11zM402 217q0 32 -11 60.5
t-36.5 56.5t-42.5 43t-53 43q-52 -32 -87.5 -85t-35.5 -121q0 -64 32.5 -111.5t98.5 -47.5q69 0 102 48.5t33 113.5z" />
    <glyph glyph-name="epsilon" unicode="&#x3b5;" horiz-adv-x="458" 
d="M346 281v-67h-120q-39 0 -63 -19t-24 -53q0 -42 29.5 -64.5t83.5 -22.5q80 0 147 30l19 -63q-64 -37 -166 -37q-92 0 -145 40t-53 105q0 90 79 119v2q-65 26 -65 106q0 65 45 102.5t134 37.5q87 0 158 -33l-17 -63q-76 26 -140 26q-95 0 -95 -81q0 -31 23.5 -48t54.5 -17
h115z" />
    <glyph glyph-name="zeta" unicode="&#x3b6;" horiz-adv-x="426" 
d="M64 700h338v-61q-164 -213 -217 -295.5t-53 -140.5q0 -42 24.5 -69t60 -41l71 -28.5t60 -42.5t24.5 -71q0 -75 -72 -127l-56 48q45 31 45 69q0 22 -25 37.5t-60 29t-70.5 33.5t-60.5 60.5t-25 99.5q0 47 32.5 111.5t68.5 113l127 165.5l31 40v2h-243v67z" />
    <glyph glyph-name="eta" unicode="&#x3b7;" horiz-adv-x="546" 
d="M81 482h58l10 -44h2q25 21 69.5 40t87.5 19q77 0 119 -46t42 -137v-512h-82v498q0 127 -100 127q-31 0 -67 -13.5t-57 -29.5v-384h-82v482z" />
    <glyph glyph-name="theta" unicode="&#x3b8;" horiz-adv-x="561" 
d="M501 345q0 -360 -220 -360q-222 0 -222 360t222 360q220 0 220 -360zM281 635q-70 0 -102 -68t-36 -195h273q-4 128 -34.5 195.5t-100.5 67.5zM281 55q127 0 135 250h-272q8 -250 137 -250z" />
    <glyph glyph-name="iota" unicode="&#x3b9;" horiz-adv-x="268" 
d="M82 482h82v-373q0 -31 9.5 -42.5t30.5 -11.5q22 0 36 6v-68q-27 -8 -62 -8q-96 0 -96 125v372z" />
    <glyph glyph-name="kappa" unicode="&#x3ba;" horiz-adv-x="475" 
d="M164 217h-2v-217h-81v482h81v-234h2l183 234h92v-7l-191 -238l201 -230v-7h-97z" />
    <glyph glyph-name="lambda" unicode="&#x3bb;" horiz-adv-x="480" 
d="M450 10v-10h-81l-85 256l-38 134h-3l-40 -132l-92 -258h-82v10l177 467l-30 91q-23 67 -62 67q-19 0 -47 -7v67q27 10 61 10q48 0 75.5 -28.5t45.5 -84.5z" />
    <glyph glyph-name="uni03BC" unicode="&#x3bc;" horiz-adv-x="544" 
d="M163 -198h-82v680h82v-300q0 -64 23 -95.5t73 -31.5q32 0 67 13.5t55 29.5v384h82v-482h-58l-9 44h-2q-81 -59 -155 -59q-44 0 -84 28l8 -72v-139z" />
    <glyph glyph-name="nu" unicode="&#x3bd;" horiz-adv-x="477" 
d="M442 482v-10q-32 -202 -172 -472h-78l-162 472v10h82l90 -287l28 -108h2q9 16 24.5 56.5t20.5 51.5q61 138 84 287h81z" />
    <glyph glyph-name="xi" unicode="&#x3be;" horiz-adv-x="452" 
d="M146 631v2h-91v67h357v-67h-130q-63 0 -95.5 -37.5t-32.5 -89.5q0 -51 32.5 -88.5t94.5 -37.5h81v-67h-73q-81 0 -116 -35t-35 -89q0 -42 28 -68t68 -38.5l80 -25t68 -38t28 -65.5q0 -77 -77 -130l-55 48q48 32 48 69q0 21 -28 36t-68 27.5t-80 30.5t-68 55.5t-28 91.5
q0 61 29.5 105.5t78.5 63.5v2q-35 14 -63.5 56.5t-28.5 91.5q0 91 76 130z" />
    <glyph glyph-name="omicron" unicode="&#x3bf;" horiz-adv-x="545" 
d="M138 241q0 -83 31.5 -134.5t101.5 -51.5t103 52t33 134t-33 134t-103 52t-101.5 -51.5t-31.5 -134.5zM491 241q0 -113 -54.5 -184.5t-165.5 -71.5q-110 0 -163.5 71.5t-53.5 184.5t53.5 184.5t163.5 71.5q111 0 165.5 -71.5t54.5 -184.5z" />
    <glyph glyph-name="pi" unicode="&#x3c0;" horiz-adv-x="546" 
d="M20 482h496v-67h-87v-306q0 -31 10 -42.5t30 -11.5q22 0 36 6v-68q-27 -8 -61 -8q-97 0 -97 125v305h-157v-415h-82v415h-88v67z" />
    <glyph glyph-name="rho" unicode="&#x3c1;" horiz-adv-x="540" 
d="M159 261v-159q47 -47 109 -47q70 0 102 52.5t32 133.5q0 80 -31.5 133t-96.5 53q-53 0 -84 -42.5t-31 -123.5zM159 -198h-84v454q0 123 55.5 182t143.5 59q107 0 159.5 -71.5t52.5 -184.5q0 -112 -49.5 -184t-145.5 -72q-76 0 -130 45h-2v-228z" />
    <glyph glyph-name="sigma1" unicode="&#x3c2;" horiz-adv-x="435" 
d="M406 462l-21 -61q-59 26 -116 26q-64 0 -98.5 -56t-34.5 -130q0 -46 25.5 -78.5t62 -51.5l72.5 -37.5t61.5 -48t25.5 -71.5q0 -78 -73 -130l-55 48q15 10 29.5 29t14.5 40q0 22 -18 40t-45.5 30.5t-59.5 32.5t-59.5 42.5t-45.5 62.5t-18 92q0 115 57.5 185.5t157.5 70.5
q66 0 138 -35z" />
    <glyph glyph-name="sigma" unicode="&#x3c3;" horiz-adv-x="551" 
d="M403 415v-2q40 -27 62.5 -76.5t22.5 -102.5q0 -111 -54 -180t-165 -69q-109 0 -161.5 69t-52.5 180t52.5 179.5t161.5 68.5h232v-67h-98zM138 234q0 -79 31.5 -129t99.5 -50q70 0 102.5 50t32.5 129t-32.5 128.5t-102.5 49.5q-68 0 -99.5 -49.5t-31.5 -128.5z" />
    <glyph glyph-name="tau" unicode="&#x3c4;" horiz-adv-x="436" 
d="M31 482h369v-67h-154v-303q0 -57 48 -57q30 0 69 12v-68q-53 -14 -87 -14q-54 0 -83 30.5t-29 88.5v311h-133v67z" />
    <glyph glyph-name="upsilon" unicode="&#x3c5;" horiz-adv-x="523" 
d="M157 482v-274q0 -153 112 -153q113 0 113 189q0 100 -48 238h88q42 -141 42 -238q0 -259 -195 -259q-94 0 -144 55.5t-50 163.5v278h82z" />
    <glyph glyph-name="phi" unicode="&#x3c6;" horiz-adv-x="640" 
d="M111 482h90q-63 -123 -63 -232q0 -181 138 -198v245q0 200 144 200q82 0 123 -67t41 -173q0 -246 -226 -268v-187h-82v187q-116 9 -168 79t-52 181q0 103 55 233zM358 298v-245q142 21 142 203q0 71 -20 121t-60 50q-38 0 -50 -30t-12 -99z" />
    <glyph glyph-name="chi" unicode="&#x3c7;" horiz-adv-x="484" 
d="M30 482h82l92 -188l39 -101h3l40 103l91 186h82v-10l-166 -330l166 -330v-10h-81l-91 184l-41 104h-3l-41 -104l-90 -184h-82v10l166 330l-166 330v10z" />
    <glyph glyph-name="psi" unicode="&#x3c8;" horiz-adv-x="657" 
d="M373 700v-647q66 0 105.5 48t39.5 143q0 101 -55 238h90q47 -143 47 -238q0 -129 -61.5 -192.5t-165.5 -63.5v-186h-82v186q-101 0 -158 55t-57 161v278h81v-270q0 -77 36 -118t98 -41v647h82z" />
    <glyph glyph-name="omega" unicode="&#x3c9;" horiz-adv-x="771" 
d="M554 482h88q72 -109 72 -238q0 -259 -184 -259q-99 0 -143 95h-2q-47 -95 -144 -95q-185 0 -185 259q0 129 73 238h88v-10q-79 -119 -79 -228q0 -189 103 -189q104 0 104 153v151h82v-151q0 -153 103 -153q102 0 102 189q0 109 -78 228v10z" />
    <glyph glyph-name="iotadieresis" unicode="&#x3ca;" horiz-adv-x="268" 
d="M82 482h82v-373q0 -31 9.5 -42.5t30.5 -11.5q22 0 36 6v-68q-27 -8 -62 -8q-96 0 -96 125v372zM163 633q0 25 14 40t38 15q25 0 39 -15t14 -40q0 -26 -14 -40.5t-39 -14.5q-24 0 -38 14.5t-14 40.5zM-20 633q0 25 14 40t38 15q25 0 39 -15t14 -40q0 -26 -14 -40.5
t-39 -14.5q-24 0 -38 14.5t-14 40.5z" />
    <glyph glyph-name="upsilondieresis" unicode="&#x3cb;" horiz-adv-x="523" 
d="M157 482v-274q0 -153 112 -153q113 0 113 189q0 100 -48 238h88q42 -141 42 -238q0 -259 -195 -259q-94 0 -144 55.5t-50 163.5v278h82zM296 633q0 25 14 40t38 15q25 0 39 -15t14 -40q0 -26 -14 -40.5t-39 -14.5q-24 0 -38 14.5t-14 40.5zM113 633q0 25 14 40t38 15
q25 0 39 -15t14 -40q0 -26 -14 -40.5t-39 -14.5q-24 0 -38 14.5t-14 40.5z" />
    <glyph glyph-name="omicrontonos" unicode="&#x3cc;" horiz-adv-x="545" 
d="M138 241q0 -83 31.5 -134.5t101.5 -51.5t103 52t33 134t-33 134t-103 52t-101.5 -51.5t-31.5 -134.5zM491 241q0 -113 -54.5 -184.5t-165.5 -71.5q-110 0 -163.5 71.5t-53.5 184.5t53.5 184.5t163.5 71.5q111 0 165.5 -71.5t54.5 -184.5zM358 710v-10l-50 -141h-62v10
l29 141h83z" />
    <glyph glyph-name="upsilontonos" unicode="&#x3cd;" horiz-adv-x="523" 
d="M157 482v-274q0 -153 112 -153q113 0 113 189q0 100 -48 238h88q42 -141 42 -238q0 -259 -195 -259q-94 0 -144 55.5t-50 163.5v278h82zM340 710v-10l-50 -141h-62v10l29 141h83z" />
    <glyph glyph-name="omegatonos" unicode="&#x3ce;" horiz-adv-x="771" 
d="M554 482h88q72 -109 72 -238q0 -259 -184 -259q-99 0 -143 95h-2q-47 -95 -144 -95q-185 0 -185 259q0 129 73 238h88v-10q-79 -119 -79 -228q0 -189 103 -189q104 0 104 153v151h82v-151q0 -153 103 -153q102 0 102 189q0 109 -78 228v10zM471 710v-10l-50 -141h-62v10
l29 141h83z" />
    <glyph glyph-name="uni0400" unicode="&#x400;" horiz-adv-x="557" 
d="M96 680h397v-74h-313v-222h284v-74h-284v-236h316v-74h-400v680zM192 873v10h90l60 -121v-10h-71z" />
    <glyph glyph-name="uni0401" unicode="&#x401;" horiz-adv-x="557" 
d="M96 680h397v-74h-313v-222h284v-74h-284v-236h316v-74h-400v680zM146 816q0 25 14 40t38 15q25 0 39 -15t14 -40q0 -26 -14 -40.5t-39 -14.5q-24 0 -38 14.5t-14 40.5zM349 816q0 25 14 40t38 15q25 0 39 -15t14 -40q0 -26 -14 -40.5t-39 -14.5q-24 0 -38 14.5t-14 40.5z
" />
    <glyph glyph-name="uni0402" unicode="&#x402;" horiz-adv-x="649" 
d="M476 -108l-59 51q101 125 101 246q0 65 -33.5 103.5t-91.5 38.5q-56 0 -141 -27v-304h-83v606h-135v74h412v-74h-194v-228q77 27 154 27q94 0 146.5 -56t52.5 -160q0 -138 -129 -297z" />
    <glyph glyph-name="uni0403" unicode="&#x403;" horiz-adv-x="524" 
d="M96 680h394v-74h-310v-606h-84v680zM413 883v-10l-79 -121h-71v10l60 121h90z" />
    <glyph glyph-name="uni0404" unicode="&#x404;" horiz-adv-x="565" 
d="M62 340q0 162 75.5 258.5t213.5 96.5q79 0 167 -44l-23 -64q-67 32 -144 32q-94 0 -144.5 -63.5t-56.5 -176.5h272v-75h-272q6 -115 56 -179t145 -64q77 0 144 32l23 -64q-88 -44 -167 -44q-138 0 -213.5 96.5t-75.5 258.5z" />
    <glyph glyph-name="uni0405" unicode="&#x405;" horiz-adv-x="505" 
d="M49 57l39 66q68 -62 162 -62q53 0 84.5 30t31.5 85q0 42 -23.5 68.5t-78.5 50.5l-57 24q-144 62 -144 182q0 82 55 138t148 56q97 0 172 -52l-36 -66q-67 42 -140 42q-54 0 -83 -32t-29 -80q0 -36 19 -61.5t67 -45.5l57 -25q80 -35 120 -79.5t40 -114.5
q0 -87 -55.5 -141.5t-147.5 -54.5q-112 0 -201 72z" />
    <glyph glyph-name="uni0406" unicode="&#x406;" horiz-adv-x="276" 
d="M180 680v-680h-84v680h84z" />
    <glyph glyph-name="uni0407" unicode="&#x407;" horiz-adv-x="276" 
d="M180 680v-680h-84v680h84zM-16 816q0 25 14 40t38 15q25 0 39 -15t14 -40q0 -26 -14 -40.5t-39 -14.5q-24 0 -38 14.5t-14 40.5zM187 816q0 25 14 40t38 15q25 0 39 -15t14 -40q0 -26 -14 -40.5t-39 -14.5q-24 0 -38 14.5t-14 40.5z" />
    <glyph glyph-name="uni0408" unicode="&#x408;" horiz-adv-x="444" 
d="M25 58l42 55q1 -1 8 -7t8.5 -7.5t8 -7t9.5 -7.5t9.5 -6t10.5 -5.5t11 -4.5t13 -4t13 -2t15 -1q48 0 72 33t24 115v471h84v-478q0 -110 -47 -163.5t-133 -53.5q-83 0 -148 73z" />
    <glyph glyph-name="uni0409" unicode="&#x409;" horiz-adv-x="900" 
d="M139 680h365v-276h143q98 0 150.5 -52t52.5 -150q0 -96 -52.5 -149t-150.5 -53h-227v606h-204l-9 -239q-4 -88 -10.5 -149t-18 -103.5t-24.5 -67t-35.5 -37.5t-44 -16.5t-57.5 -3.5v74q39 0 58 16t33 82.5t19 204.5zM504 330v-256h134q60 0 93 32t33 96q0 128 -126 128
h-134z" />
    <glyph glyph-name="uni040A" unicode="&#x40a;" horiz-adv-x="931" 
d="M451 680h83v-276h144q97 0 150 -52.5t53 -150.5q0 -96 -53 -148.5t-150 -52.5h-227v330h-271v-330h-84v680h84v-276h271v276zM534 330v-256h135q60 0 93 31.5t33 95.5t-33.5 96.5t-92.5 32.5h-135z" />
    <glyph glyph-name="uni040B" unicode="&#x40b;" horiz-adv-x="669" 
d="M608 0h-84v261q0 128 -120 128q-46 0 -151 -29v-360h-84v606h-135v74h412v-74h-193v-170q81 27 168 27t137 -45.5t50 -134.5v-283z" />
    <glyph glyph-name="uni040C" unicode="&#x40c;" horiz-adv-x="571" 
d="M182 311h-2v-311h-84v680h84v-335h2l258 335h97v-10l-270 -337l282 -323v-10h-105zM401 883v-10l-79 -121h-71v10l60 121h90z" />
    <glyph glyph-name="uni040D" unicode="&#x40d;" horiz-adv-x="665" 
d="M172 126h2l304 554h91v-680h-84v427l8 127h-2l-304 -554h-91v680h84v-427zM224 873v10h90l60 -121v-10h-71z" />
    <glyph glyph-name="uni040E" unicode="&#x40e;" horiz-adv-x="520" 
d="M501 680v-10l-200 -519q-30 -82 -72.5 -116.5t-114.5 -34.5h-35v75h26q42 0 66.5 19.5t44.5 69.5l15 35l-204 471v10h87l104 -251l54 -151h3l48 151l92 251h86zM278 838q61 0 110 32l23 -52q-55 -55 -133 -55q-77 0 -132 55l23 52q49 -32 109 -32z" />
    <glyph glyph-name="uni040F" unicode="&#x40f;" horiz-adv-x="657" 
d="M361 -141h-66l-8 141h-191v680h84v-606h297v606h84v-680h-193z" />
    <glyph glyph-name="uni0410" unicode="&#x410;" horiz-adv-x="595" 
d="M340 680l236 -680h-88l-57 176h-267l-58 -176h-87l236 680h85zM299 595h-2l-53 -184l-55 -165h216l-53 165z" />
    <glyph glyph-name="uni0411" unicode="&#x411;" horiz-adv-x="579" 
d="M96 680h393v-74h-309v-203h143q98 0 150.5 -52t52.5 -150q0 -96 -52.5 -148.5t-150.5 -52.5h-227v680zM180 329v-255h134q60 0 93 31.5t33 95.5q0 128 -126 128h-134z" />
    <glyph glyph-name="uni0412" unicode="&#x412;" horiz-adv-x="593" 
d="M180 303v-229h146q124 0 124 115q0 61 -32 87.5t-93 26.5h-145zM96 680h205q210 0 210 -174q0 -58 -23.5 -99t-58.5 -54v-2q108 -37 108 -168q0 -87 -53 -135t-149 -48h-239v680zM180 606v-229h115q66 0 97.5 24.5t31.5 89.5t-30.5 90t-98.5 25h-115z" />
    <glyph glyph-name="uni0413" unicode="&#x413;" horiz-adv-x="524" 
d="M96 680h394v-74h-310v-606h-84v680z" />
    <glyph glyph-name="uni0414" unicode="&#x414;" horiz-adv-x="645" 
d="M95 -141h-65l-12 215h45q40 55 60 123.5t28 193.5l16 289h368v-606h55l-12 -215h-65l-7 141h-403zM156 74h295v532h-206l-14 -221q-8 -127 -25.5 -197.5t-49.5 -113.5z" />
    <glyph glyph-name="uni0415" unicode="&#x415;" horiz-adv-x="557" 
d="M96 680h397v-74h-313v-222h284v-74h-284v-236h316v-74h-400v680z" />
    <glyph glyph-name="uni0416" unicode="&#x416;" horiz-adv-x="859" 
d="M387 310h-1l-260 -310h-104v10l273 323l-261 337v10h99l253 -334h1v334h84v-334h2l252 334h99v-10l-261 -337l274 -323v-10h-105l-259 310h-2v-310h-84v310z" />
    <glyph glyph-name="uni0417" unicode="&#x417;" horiz-adv-x="508" 
d="M128 309v76h109q57 0 85 32.5t28 82.5q0 49 -30 84t-83 35q-77 0 -155 -35l-26 66q78 45 182 45q95 0 147 -51t52 -139q0 -51 -26.5 -94t-59.5 -58v-2q46 -19 73.5 -63.5t27.5 -105.5q0 -89 -61.5 -143t-158.5 -54q-115 0 -192 51l29 66q74 -41 162 -41q58 0 96 34t38 92
q0 122 -133 122h-104z" />
    <glyph glyph-name="uni0418" unicode="&#x418;" horiz-adv-x="665" 
d="M172 126h2l304 554h91v-680h-84v427l8 127h-2l-304 -554h-91v680h84v-427z" />
    <glyph glyph-name="uni0419" unicode="&#x419;" horiz-adv-x="665" 
d="M349 838q61 0 110 32l23 -52q-55 -55 -133 -55q-77 0 -132 55l23 52q49 -32 109 -32zM172 126h2l304 554h91v-680h-84v427l8 127h-2l-304 -554h-91v680h84v-427z" />
    <glyph glyph-name="uni041A" unicode="&#x41a;" horiz-adv-x="571" 
d="M182 311h-2v-311h-84v680h84v-335h2l258 335h97v-10l-270 -337l282 -323v-10h-105z" />
    <glyph glyph-name="uni041B" unicode="&#x41b;" horiz-adv-x="636" 
d="M456 0v606h-240l-9 -239q-5 -105 -14.5 -173.5t-22.5 -110t-37.5 -61.5t-49 -26t-66.5 -6v74q39 0 58 16t33 82.5t19 204.5l12 313h401v-680h-84z" />
    <glyph glyph-name="uni041C" unicode="&#x41c;" horiz-adv-x="804" 
d="M401 258h1l55 128l171 294h80v-680h-84v427l10 117h-2l-199 -373h-62l-199 373h-2l10 -117v-427h-84v680h80l170 -294z" />
    <glyph glyph-name="uni041D" unicode="&#x41d;" horiz-adv-x="670" 
d="M490 0v310h-310v-310h-84v680h84v-296h310v296h84v-680h-84z" />
    <glyph glyph-name="uni041E" unicode="&#x41e;" horiz-adv-x="680" 
d="M150 340q0 -279 191 -279q189 0 189 279t-189 279q-191 0 -191 -279zM617 340q0 -104 -27 -181.5t-90.5 -125.5t-158.5 -48q-141 0 -209.5 97t-68.5 258t68.5 258t209.5 97q95 0 158.5 -48t90.5 -125.5t27 -181.5z" />
    <glyph glyph-name="uni041F" unicode="&#x41f;" horiz-adv-x="666" 
d="M486 0v606h-306v-606h-84v680h474v-680h-84z" />
    <glyph glyph-name="uni0420" unicode="&#x420;" horiz-adv-x="562" 
d="M181 0h-85v680h214q101 0 155 -54t54 -153q0 -98 -54.5 -152.5t-154.5 -54.5h-129v-266zM181 606v-266h122q64 0 96.5 36t32.5 97q0 60 -32.5 96.5t-96.5 36.5h-122z" />
    <glyph glyph-name="uni0421" unicode="&#x421;" horiz-adv-x="569" 
d="M62 340q0 162 75.5 258.5t213.5 96.5q79 0 167 -44l-23 -64q-67 32 -144 32q-102 0 -152 -74t-50 -205t50 -205t152 -74q77 0 144 32l23 -64q-88 -44 -167 -44q-138 0 -213.5 96.5t-75.5 258.5z" />
    <glyph glyph-name="uni0422" unicode="&#x422;" horiz-adv-x="523" 
d="M36 680h451v-74h-183v-606h-86v606h-182v74z" />
    <glyph glyph-name="uni0423" unicode="&#x423;" horiz-adv-x="520" 
d="M501 680v-10l-200 -519q-30 -82 -72.5 -116.5t-114.5 -34.5h-35v75h26q42 0 66.5 19.5t44.5 69.5l15 35l-204 471v10h87l104 -251l54 -151h3l48 151l92 251h86z" />
    <glyph glyph-name="uni0424" unicode="&#x424;" horiz-adv-x="746" 
d="M402 680v-63q141 -9 210 -83.5t69 -192.5t-69 -193t-210 -84v-64h-83v64q-141 9 -206 83.5t-65 193.5t64.5 193t206.5 83v63h83zM135 341q0 -192 184 -206v412q-184 -17 -184 -206zM594 341q0 188 -192 206v-412q100 8 146 63.5t46 142.5z" />
    <glyph glyph-name="uni0425" unicode="&#x425;" horiz-adv-x="553" 
d="M33 680h90l152 -279h2l153 279h90v-10l-191 -330l191 -330v-10h-90l-153 278h-2l-152 -278h-90v10l190 330l-190 330v10z" />
    <glyph glyph-name="uni0426" unicode="&#x426;" horiz-adv-x="671" 
d="M604 -141h-65l-7 141h-436v680h84v-606h297v606h84v-606h55z" />
    <glyph glyph-name="uni0427" unicode="&#x427;" horiz-adv-x="605" 
d="M70 680h84v-291q0 -128 120 -128q46 0 151 29v390h84v-680h-84v214q-81 -27 -168 -27t-137 45.5t-50 134.5v313z" />
    <glyph glyph-name="uni0428" unicode="&#x428;" horiz-adv-x="948" 
d="M852 0h-756v680h84v-606h252v606h84v-606h252v606h84v-680z" />
    <glyph glyph-name="uni0429" unicode="&#x429;" horiz-adv-x="963" 
d="M896 -141h-66l-7 141h-727v680h84v-606h252v606h84v-606h252v606h84v-606h56z" />
    <glyph glyph-name="uni042A" unicode="&#x42a;" horiz-adv-x="642" 
d="M34 606v74h211v-275h144q97 0 150 -52.5t53 -150.5q0 -96 -53 -149t-150 -53h-228v606h-127zM245 331v-257h135q59 0 92 32t33 96t-33 96.5t-92 32.5h-135z" />
    <glyph glyph-name="uni042B" unicode="&#x42b;" horiz-adv-x="791" 
d="M695 680v-680h-84v680h84zM96 0v680h84v-275h144q97 0 150 -52.5t53 -150.5q0 -96 -53 -149t-150 -53h-228zM180 331v-257h135q59 0 92 32t33 96t-33 96.5t-92 32.5h-135z" />
    <glyph glyph-name="uni042C" unicode="&#x42c;" horiz-adv-x="577" 
d="M96 0v680h84v-275h144q97 0 150 -52.5t53 -150.5q0 -96 -53 -149t-150 -53h-228zM180 331v-257h135q59 0 92 32t33 96t-33 96.5t-92 32.5h-135z" />
    <glyph glyph-name="uni042D" unicode="&#x42d;" horiz-adv-x="569" 
d="M507 340q0 -162 -75.5 -258.5t-213.5 -96.5q-79 0 -167 44l23 64q67 -32 144 -32q95 0 145 64t56 179h-272v75h272q-6 113 -56.5 176.5t-144.5 63.5q-77 0 -144 -32l-23 64q88 44 167 44q138 0 213.5 -96.5t75.5 -258.5z" />
    <glyph glyph-name="uni042E" unicode="&#x42e;" horiz-adv-x="926" 
d="M863 340q0 -104 -27 -181.5t-90.5 -125.5t-158.5 -48q-135 0 -203.5 88t-74.5 237h-129v-310h-84v680h84v-296h130q9 143 77 227t200 84q95 0 158.5 -48t90.5 -125.5t27 -181.5zM396 340q0 -279 191 -279q189 0 189 279t-189 279q-191 0 -191 -279z" />
    <glyph glyph-name="uni042F" unicode="&#x42f;" horiz-adv-x="611" 
d="M515 0h-84v287h-113l-190 -287h-92v16l188 276q-70 13 -109.5 62.5t-39.5 128.5q0 95 54.5 146t150.5 51h235v-680zM285 361h146v245h-146q-59 0 -91 -32.5t-32 -90.5t32 -90t91 -32z" />
    <glyph glyph-name="uni0430" unicode="&#x430;" horiz-adv-x="494" 
d="M335 224h-91q-113 0 -113 -93q0 -76 79 -76q77 0 125 41v128zM417 0h-60l-8 44h-2q-73 -59 -155 -59q-67 0 -106 38.5t-39 107.5q0 151 190 151h98v31q0 52 -25.5 83t-77.5 31q-75 0 -128 -41l-34 57q69 54 165 54q90 0 136 -49t46 -137v-311z" />
    <glyph glyph-name="uni0431" unicode="&#x431;" horiz-adv-x="554" 
d="M145 368l2 -2q62 79 155 79q89 0 143 -62.5t54 -164.5t-58 -167.5t-160 -65.5q-107 0 -163 73.5t-56 208.5q0 49 0.5 76t4 70.5t10.5 69.5t20 60t32.5 55.5t48.5 42t67 33.5q40 14 131 25.5t98 13.5v-75q-13 -2 -57.5 -7t-84.5 -11.5t-68 -17.5q-67 -27 -93 -80.5
t-26 -153.5zM416 218q0 69 -37.5 113t-97.5 44q-62 0 -99 -43.5t-37 -113.5q0 -69 37.5 -116t98.5 -47q59 0 97 47.5t38 115.5z" />
    <glyph glyph-name="uni0432" unicode="&#x432;" horiz-adv-x="490" 
d="M162 213v-146h101q88 0 88 75q0 71 -87 71h-102zM81 482h165q85 0 127 -31t42 -98q0 -75 -62 -102v-1q83 -28 83 -114q0 -136 -166 -136h-189v482zM162 415v-136h80q46 0 67 15t21 50q0 37 -20 54t-67 17h-81z" />
    <glyph glyph-name="uni0433" unicode="&#x433;" horiz-adv-x="422" 
d="M81 482h311v-67h-230v-415h-81v482z" />
    <glyph glyph-name="uni0434" unicode="&#x434;" horiz-adv-x="536" 
d="M96 -120h-59l-12 189h39q55 66 62 218l11 195h301v-413h49l-13 -189h-58l-8 120h-305zM154 69h203v346h-148l-8 -130q-12 -165 -47 -216z" />
    <glyph glyph-name="uni0435" unicode="&#x435;" horiz-adv-x="511" 
d="M455 220h-322q0 -68 41.5 -116.5t103.5 -48.5q72 0 133 44l31 -61q-74 -53 -171 -53q-108 0 -162.5 73t-54.5 185q0 105 54.5 179.5t153.5 74.5t148.5 -60t49.5 -148q0 -41 -5 -69zM137 282h242q1 7 1 23q0 53 -31 87.5t-87 34.5q-54 0 -87.5 -41.5t-37.5 -103.5z" />
    <glyph glyph-name="uni0436" unicode="&#x436;" horiz-adv-x="708" 
d="M312 0v217l-189 -217h-97v7l205 230l-196 238v7h94l183 -234v234h82v-234h2l183 234h93v-7l-195 -238l205 -230v-7h-97l-189 217h-2v-217h-82z" />
    <glyph glyph-name="uni0437" unicode="&#x437;" horiz-adv-x="445" 
d="M110 214v67h112q30 0 52 17t22 48q0 81 -91 81q-61 0 -136 -26l-16 63q68 33 153 33q87 0 131 -37.5t44 -102.5q0 -80 -63 -106v-2q76 -30 76 -119q0 -66 -51 -105.5t-141 -39.5q-99 0 -162 37l19 63q64 -30 143 -30q52 0 80 22.5t28 64.5q0 34 -23 53t-61 19h-116z" />
    <glyph glyph-name="uni0438" unicode="&#x438;" horiz-adv-x="543" 
d="M157 107h2l41 82l170 293h92v-482h-81v269l5 106h-2l-55 -106l-156 -269h-92v482h81v-293z" />
    <glyph glyph-name="uni0439" unicode="&#x439;" horiz-adv-x="543" 
d="M157 107h2l41 82l170 293h92v-482h-81v269l5 106h-2l-55 -106l-156 -269h-92v482h81v-293zM287 654q61 0 110 32l23 -52q-55 -55 -133 -55q-77 0 -132 55l23 52q49 -32 109 -32z" />
    <glyph glyph-name="uni043A" unicode="&#x43a;" horiz-adv-x="475" 
d="M164 217h-2v-217h-81v482h81v-234h2l183 234h92v-7l-191 -238l201 -230v-7h-97z" />
    <glyph glyph-name="uni043B" unicode="&#x43b;" horiz-adv-x="533" 
d="M371 0v415h-172l-9 -160q-6 -114 -25.5 -171.5t-49.5 -74t-88 -16.5v68q29 0 44.5 12.5t27 56.5t15.5 129l10 223h328v-482h-81z" />
    <glyph glyph-name="uni043C" unicode="&#x43c;" horiz-adv-x="634" 
d="M316 208h1l33 65l125 209h78v-482h-81v246l5 101h-2l-53 -100l-75 -126h-61l-75 127l-52 99h-2l5 -100v-247h-81v482h78l124 -209z" />
    <glyph glyph-name="uni043D" unicode="&#x43d;" horiz-adv-x="542" 
d="M380 0v210h-218v-210h-81v482h81v-202h218v202h81v-482h-81z" />
    <glyph glyph-name="uni043E" unicode="&#x43e;" horiz-adv-x="545" 
d="M138 241q0 -83 31.5 -134.5t101.5 -51.5t103 52t33 134t-33 134t-103 52t-101.5 -51.5t-31.5 -134.5zM491 241q0 -113 -54.5 -184.5t-165.5 -71.5q-110 0 -163.5 71.5t-53.5 184.5t53.5 184.5t163.5 71.5q111 0 165.5 -71.5t54.5 -184.5z" />
    <glyph glyph-name="uni043F" unicode="&#x43f;" horiz-adv-x="542" 
d="M380 0v415h-218v-415h-81v482h380v-482h-81z" />
    <glyph glyph-name="uni0440" unicode="&#x440;" horiz-adv-x="546" 
d="M163 383v-284q44 -44 121 -44q65 0 94 52t29 134t-29 134t-94 52q-77 0 -121 -44zM81 482h58l10 -44h1q76 59 156 59q93 0 139 -71.5t46 -184.5t-46 -184.5t-139 -71.5q-81 0 -141 49h-2v-232h-82v680z" />
    <glyph glyph-name="uni0441" unicode="&#x441;" horiz-adv-x="463" 
d="M54 241q0 117 56.5 186.5t161.5 69.5q72 0 142 -36l-22 -61q-61 27 -117 27q-67 0 -102 -53.5t-35 -132.5q0 -78 35.5 -132t101.5 -54q56 0 117 27l22 -61q-70 -36 -142 -36q-105 0 -161.5 69.5t-56.5 186.5z" />
    <glyph glyph-name="uni0442" unicode="&#x442;" horiz-adv-x="417" 
d="M31 482h355v-67h-138v-415h-81v415h-136v67z" />
    <glyph glyph-name="uni0443" unicode="&#x443;" horiz-adv-x="481" 
d="M450 482v-10l-185 -537q-51 -148 -153 -148q-32 0 -81 13v67q46 -12 74 -12t45 21t33 64l22 65l-178 467v10h81l105 -305l28 -95h2l26 95l101 305h80z" />
    <glyph glyph-name="uni0444" unicode="&#x444;" horiz-adv-x="798" 
d="M440 392v-302q43 -35 106 -35q112 0 112 186t-112 186q-63 0 -106 -35zM358 90v302q-44 35 -105 35q-113 0 -113 -186t113 -186q61 0 105 35zM440 461h2q49 36 125 36q88 0 131.5 -71.5t43.5 -184.5t-43.5 -184.5t-131.5 -71.5q-48 0 -74 8.5t-51 28.5h-2v-220h-82v220
h-2q-25 -20 -51 -28.5t-74 -8.5q-88 0 -131.5 71.5t-43.5 184.5t43.5 184.5t131.5 71.5q76 0 125 -36h2v239h82v-239z" />
    <glyph glyph-name="uni0445" unicode="&#x445;" horiz-adv-x="469" 
d="M236 189h-2l-114 -189h-85v10l152 231l-152 231v10h85l114 -190h2l113 190h85v-10l-152 -231l152 -231v-10h-85z" />
    <glyph glyph-name="uni0446" unicode="&#x446;" horiz-adv-x="552" 
d="M490 -120h-58l-7 120h-344v482h81v-415h211v415h81v-415h49z" />
    <glyph glyph-name="uni0447" unicode="&#x447;" horiz-adv-x="490" 
d="M59 482h81v-203q0 -80 83 -80q65 0 105 19v264h81v-482h-81v150q-49 -20 -125 -20q-67 0 -105.5 36t-38.5 99v217z" />
    <glyph glyph-name="uni0448" unicode="&#x448;" horiz-adv-x="758" 
d="M677 0h-596v482h81v-415h176v415h81v-415h176v415h82v-482z" />
    <glyph glyph-name="uni0449" unicode="&#x449;" horiz-adv-x="775" 
d="M713 -120h-59l-7 120h-566v482h81v-415h176v415h81v-415h176v415h82v-415h49z" />
    <glyph glyph-name="uni044A" unicode="&#x44a;" horiz-adv-x="520" 
d="M34 415v67h176v-187h104q79 0 120 -37.5t41 -110.5q0 -72 -41 -109.5t-120 -37.5h-185v415h-95zM210 228v-161h97q41 0 63 21.5t22 58.5t-22 59t-63 22h-97z" />
    <glyph glyph-name="uni044B" unicode="&#x44b;" horiz-adv-x="660" 
d="M81 482h81v-187h104q79 0 120.5 -37.5t41.5 -110.5q0 -72 -41.5 -109.5t-120.5 -37.5h-185v482zM162 228v-161h98q41 0 62.5 21.5t21.5 58.5t-22 59t-62 22h-98zM579 0h-82v482h82v-482z" />
    <glyph glyph-name="uni044C" unicode="&#x44c;" horiz-adv-x="473" 
d="M81 482h81v-187h104q79 0 120.5 -37.5t41.5 -110.5q0 -72 -41.5 -109.5t-120.5 -37.5h-185v482zM162 228v-161h98q41 0 62.5 21.5t21.5 58.5t-22 59t-62 22h-98z" />
    <glyph glyph-name="uni044D" unicode="&#x44d;" horiz-adv-x="460" 
d="M406 241q0 -114 -59.5 -183t-167.5 -69q-65 0 -131 32l22 61q56 -24 109 -24q64 0 99.5 39.5t40.5 110.5h-198v67h198q-5 71 -41 110t-99 39q-53 0 -109 -24l-22 62q67 31 131 31q108 0 167.5 -69t59.5 -183z" />
    <glyph glyph-name="uni044E" unicode="&#x44e;" horiz-adv-x="754" 
d="M700 241q0 -113 -54.5 -184.5t-165.5 -71.5q-102 0 -156 62.5t-60 162.5h-102v-210h-81v482h81v-204h102q9 99 62.5 159t153.5 60q111 0 165.5 -71.5t54.5 -184.5zM347 241q0 -83 31.5 -134.5t101.5 -51.5t103 52t33 134t-33 134t-103 52t-101.5 -51.5t-31.5 -134.5z" />
    <glyph glyph-name="uni044F" unicode="&#x44f;" horiz-adv-x="507" 
d="M426 0h-82v181h-78l-144 -181h-86v11l142 176q-54 11 -84 49.5t-30 95.5q0 70 43.5 110t122.5 40h196v-482zM344 250v163h-109q-41 0 -63.5 -22.5t-22.5 -58.5t22.5 -59t63.5 -23h109z" />
    <glyph glyph-name="uni0450" unicode="&#x450;" horiz-adv-x="511" 
d="M455 220h-322q0 -68 41.5 -116.5t103.5 -48.5q72 0 133 44l31 -61q-74 -53 -171 -53q-108 0 -162.5 73t-54.5 185q0 105 54.5 179.5t153.5 74.5t148.5 -60t49.5 -148q0 -41 -5 -69zM137 282h242q1 7 1 23q0 53 -31 87.5t-87 34.5q-54 0 -87.5 -41.5t-37.5 -103.5z
M161 700v10h91l59 -121v-10h-71z" />
    <glyph glyph-name="uni0451" unicode="&#x451;" horiz-adv-x="511" 
d="M455 220h-322q0 -68 41.5 -116.5t103.5 -48.5q72 0 133 44l31 -61q-74 -53 -171 -53q-108 0 -162.5 73t-54.5 185q0 105 54.5 179.5t153.5 74.5t148.5 -60t49.5 -148q0 -41 -5 -69zM137 282h242q1 7 1 23q0 53 -31 87.5t-87 34.5q-54 0 -87.5 -41.5t-37.5 -103.5z
M305 633q0 25 14 40t38 15q25 0 39 -15t14 -40q0 -26 -14 -40.5t-39 -14.5q-24 0 -38 14.5t-14 40.5zM122 633q0 25 14 40t38 15q25 0 39 -15t14 -40q0 -26 -14 -40.5t-39 -14.5q-24 0 -38 14.5t-14 40.5z" />
    <glyph glyph-name="uni0452" unicode="&#x452;" horiz-adv-x="530" 
d="M163 0h-82v562h-55v64h55v74h82v-74h104v-64h-104v-114h2q70 49 141 49q162 0 162 -231q0 -200 -101 -428l-67 35q84 194 84 393q0 84 -24 122.5t-74 38.5q-61 0 -123 -47v-380z" />
    <glyph glyph-name="uni0453" unicode="&#x453;" horiz-adv-x="422" 
d="M81 482h311v-67h-230v-415h-81v482zM354 710v-10l-79 -121h-71v10l59 121h91z" />
    <glyph glyph-name="uni0454" unicode="&#x454;" horiz-adv-x="456" 
d="M54 241q0 114 59.5 183t167.5 69q64 0 131 -31l-22 -62q-56 24 -109 24q-63 0 -99 -39t-41 -110h198v-67h-198q5 -71 40.5 -110.5t99.5 -39.5q53 0 109 24l22 -61q-66 -32 -131 -32q-108 0 -167.5 69t-59.5 183z" />
    <glyph glyph-name="uni0455" unicode="&#x455;" horiz-adv-x="430" 
d="M48 31l29 65q64 -41 131 -41q44 0 66.5 20.5t22.5 53.5q0 25 -15.5 40.5t-49.5 27.5l-54 18q-58 20 -90 51.5t-32 84.5q0 62 45.5 104t120.5 42q77 0 150 -34l-27 -66q-60 30 -120 30q-42 0 -63.5 -21t-21.5 -53q0 -46 63 -67l53 -16q125 -37 125 -140q0 -63 -45.5 -104
t-122.5 -41q-94 0 -165 46z" />
    <glyph glyph-name="uni0456" unicode="&#x456;" horiz-adv-x="244" 
d="M163 0h-82v482h82v-482zM70 633q0 25 14 40t38 15q25 0 39 -15t14 -40q0 -26 -14 -40.5t-39 -14.5q-24 0 -38 14.5t-14 40.5z" />
    <glyph glyph-name="uni0457" unicode="&#x457;" horiz-adv-x="244" 
d="M163 0h-82v482h82v-482zM157 633q0 25 14 40t38 15q25 0 39 -15t14 -40q0 -26 -14 -40.5t-39 -14.5q-24 0 -38 14.5t-14 40.5zM-26 633q0 25 14 40t38 15q25 0 39 -15t14 -40q0 -26 -14 -40.5t-39 -14.5q-24 0 -38 14.5t-14 40.5z" />
    <glyph glyph-name="uni0458" unicode="&#x458;" horiz-adv-x="244" 
d="M81 482h82v-542q0 -73 -33 -113t-98 -40q-30 0 -63 7v65q20 -4 55 -4q57 0 57 83v544zM70 633q0 25 14 40t38 15q25 0 39 -15t14 -40q0 -26 -14 -40.5t-39 -14.5q-24 0 -38 14.5t-14 40.5z" />
    <glyph glyph-name="uni0459" unicode="&#x459;" horiz-adv-x="731" 
d="M124 482h297v-187h104q79 0 120 -37.5t41 -110.5q0 -72 -41 -109.5t-120 -37.5h-186v415h-141l-8 -160q-6 -114 -25.5 -171.5t-49.5 -74t-88 -16.5v68q29 0 44.5 12.5t27 56.5t15.5 129zM421 228v-161h97q40 0 62 21.5t22 58.5t-22 59t-62 22h-97z" />
    <glyph glyph-name="uni045A" unicode="&#x45a;" horiz-adv-x="748" 
d="M357 482h81v-187h104q79 0 120 -37.5t41 -110.5q0 -72 -41 -109.5t-120 -37.5h-185v229h-195v-229h-81v482h81v-187h195v187zM438 229v-162h97q40 0 62 21.5t22 58.5q0 38 -22 60t-62 22h-97z" />
    <glyph glyph-name="uni045B" unicode="&#x45b;" horiz-adv-x="546" 
d="M469 0h-82v300q0 127 -100 127q-32 0 -68 -13t-56 -29v-385h-82v562h-58v64h58v74h82v-74h104v-64h-104v-113h2q68 48 143 48q77 0 119 -46t42 -137v-314z" />
    <glyph glyph-name="uni045C" unicode="&#x45c;" horiz-adv-x="475" 
d="M164 217h-2v-217h-81v482h81v-234h2l183 234h92v-7l-191 -238l201 -230v-7h-97zM364 710v-10l-79 -121h-71v10l59 121h91z" />
    <glyph glyph-name="uni045D" unicode="&#x45d;" horiz-adv-x="543" 
d="M157 107h2l41 82l170 293h92v-482h-81v269l5 106h-2l-55 -106l-156 -269h-92v482h81v-293zM174 700v10h91l59 -121v-10h-71z" />
    <glyph glyph-name="uni045E" unicode="&#x45e;" horiz-adv-x="481" 
d="M450 482v-10l-185 -537q-51 -148 -153 -148q-32 0 -81 13v67q46 -12 74 -12t45 21t33 64l22 65l-178 467v10h81l105 -305l28 -95h2l26 95l101 305h80zM252 654q61 0 110 32l23 -52q-55 -55 -133 -55q-77 0 -132 55l23 52q49 -32 109 -32z" />
    <glyph glyph-name="uni045F" unicode="&#x45f;" horiz-adv-x="535" 
d="M296 -120h-58l-8 120h-149v482h81v-415h211v415h81v-482h-149z" />
    <glyph glyph-name="uni0462" unicode="&#x462;" horiz-adv-x="654" 
d="M178 680h83v-76h193v-74h-193v-127h144q97 0 150 -52t53 -150q0 -96 -53 -148.5t-150 -52.5h-227v530h-136v74h136v76zM261 329v-255h135q59 0 92.5 31.5t33.5 95.5t-33 96t-93 32h-135z" />
    <glyph glyph-name="uni0463" unicode="&#x463;" horiz-adv-x="516" 
d="M129 701h81v-219h149v-67h-149v-120h104q79 0 120.5 -37.5t41.5 -110.5q0 -72 -41.5 -109.5t-120.5 -37.5h-185v415h-95v67h95v219zM210 228v-161h98q41 0 62.5 21.5t21.5 58.5t-22 59t-62 22h-98z" />
    <glyph glyph-name="uni0472" unicode="&#x472;" horiz-adv-x="680" 
d="M617 340q0 -104 -27 -181.5t-90.5 -125.5t-158.5 -48q-141 0 -209.5 97t-68.5 258t68.5 258t209.5 97q95 0 158.5 -48t90.5 -125.5t27 -181.5zM341 61q179 0 188 247h-378q9 -247 190 -247zM341 619q-176 0 -190 -238h377q-14 238 -187 238z" />
    <glyph glyph-name="uni0473" unicode="&#x473;" horiz-adv-x="545" 
d="M491 241q0 -113 -54.5 -184.5t-165.5 -71.5q-110 0 -163.5 71.5t-53.5 184.5t53.5 184.5t163.5 71.5q111 0 165.5 -71.5t54.5 -184.5zM271 55q62 0 95 41t39 110h-266q14 -151 132 -151zM271 427q-60 0 -93 -41t-39 -108h266q-7 67 -39.5 108t-94.5 41z" />
    <glyph glyph-name="uni0474" unicode="&#x474;" horiz-adv-x="621" 
d="M522 550l-184 -550h-84l-233 670v10h88l136 -411l51 -186h2l51 187l100 303q24 69 56.5 95.5t91.5 26.5v-76q-28 0 -45 -15.5t-30 -53.5z" />
    <glyph glyph-name="uni0475" unicode="&#x475;" horiz-adv-x="507" 
d="M267 177l80 222q18 51 46 72.5t80 21.5v-71q-36 0 -55 -50l-138 -372h-78l-173 472v10h81l103 -305l26 -93h2z" />
    <glyph glyph-name="uni0490" unicode="&#x490;" horiz-adv-x="522" 
d="M414 821h65l11 -215h-310v-606h-84v680h307z" />
    <glyph glyph-name="uni0491" unicode="&#x491;" horiz-adv-x="421" 
d="M317 587h66l9 -172h-230v-415h-81v482h227z" />
    <glyph glyph-name="uni0E3F" unicode="&#xe3f;" 
d="M302 770v-91q167 -14 167 -174q0 -57 -21 -97t-54 -55v-2q99 -36 99 -167q0 -88 -49 -136t-142 -48v-108h-63v108h-157v680h157v90h63zM404 191q0 59 -26 87t-76 27v-231q102 0 102 117zM167 305v-231h72v231h-72zM167 606v-227h72v227h-72zM381 490q0 110 -79 114v-224
q79 6 79 110z" />
    <glyph glyph-name="Wgrave" unicode="&#x1e80;" horiz-adv-x="913" 
d="M882 680v-10l-181 -670h-85l-118 427l-40 171h-3l-40 -171l-117 -427h-86l-180 670v10h87l101 -410l36 -169h2l40 169l114 410h89l114 -410l40 -169h2l36 169l101 410h88zM343 873v10h90l60 -121v-10h-71z" />
    <glyph glyph-name="wgrave" unicode="&#x1e81;" horiz-adv-x="767" 
d="M735 482v-10l-151 -472h-79l-99 312l-22 90h-2l-22 -90l-98 -312h-79l-151 472v10h83l89 -305l20 -88h2l21 88l94 305h84l95 -305l21 -88h2l20 88l89 305h83zM269 700v10h91l59 -121v-10h-71z" />
    <glyph glyph-name="Wacute" unicode="&#x1e82;" horiz-adv-x="913" 
d="M882 680v-10l-181 -670h-85l-118 427l-40 171h-3l-40 -171l-117 -427h-86l-180 670v10h87l101 -410l36 -169h2l40 169l114 410h89l114 -410l40 -169h2l36 169l101 410h88zM576 883v-10l-79 -121h-71v10l60 121h90z" />
    <glyph glyph-name="wacute" unicode="&#x1e83;" horiz-adv-x="767" 
d="M735 482v-10l-151 -472h-79l-99 312l-22 90h-2l-22 -90l-98 -312h-79l-151 472v10h83l89 -305l20 -88h2l21 88l94 305h84l95 -305l21 -88h2l20 88l89 305h83zM505 710v-10l-79 -121h-71v10l59 121h91z" />
    <glyph glyph-name="Wdieresis" unicode="&#x1e84;" horiz-adv-x="913" 
d="M882 680v-10l-181 -670h-85l-118 427l-40 171h-3l-40 -171l-117 -427h-86l-180 670v10h87l101 -410l36 -169h2l40 169l114 410h89l114 -410l40 -169h2l36 169l101 410h88zM303 816q0 25 14 40t38 15q25 0 39 -15t14 -40q0 -26 -14 -40.5t-39 -14.5q-24 0 -38 14.5
t-14 40.5zM506 816q0 25 14 40t38 15q25 0 39 -15t14 -40q0 -26 -14 -40.5t-39 -14.5q-24 0 -38 14.5t-14 40.5z" />
    <glyph glyph-name="wdieresis" unicode="&#x1e85;" horiz-adv-x="767" 
d="M735 482v-10l-151 -472h-79l-99 312l-22 90h-2l-22 -90l-98 -312h-79l-151 472v10h83l89 -305l20 -88h2l21 88l94 305h84l95 -305l21 -88h2l20 88l89 305h83zM423 633q0 25 14 40t38 15q25 0 39 -15t14 -40q0 -26 -14 -40.5t-39 -14.5q-24 0 -38 14.5t-14 40.5zM240 633
q0 25 14 40t38 15q25 0 39 -15t14 -40q0 -26 -14 -40.5t-39 -14.5q-24 0 -38 14.5t-14 40.5z" />
    <glyph glyph-name="uni1E9E" unicode="&#x1e9e;" horiz-adv-x="632" 
d="M91 0v455q0 113 55.5 176.5t170.5 63.5q113 0 206 -67v-54l-116 -189v-2q74 0 126.5 -53t52.5 -138q0 -94 -57.5 -150.5t-144.5 -56.5q-62 0 -108 10v76q62 -10 100 -10q57 0 90.5 38.5t33.5 92.5q0 59 -36 90t-102 31h-52v52l129 220q-44 34 -122 34q-142 0 -142 -161
v-458h-84z" />
    <glyph glyph-name="Ygrave" unicode="&#x1ef2;" horiz-adv-x="528" 
d="M15 680h90l158 -309h2l160 309h89v-10l-208 -382v-288h-84v288l-207 382v10zM155 873v10h90l60 -121v-10h-71z" />
    <glyph glyph-name="ygrave" unicode="&#x1ef3;" horiz-adv-x="481" 
d="M450 482v-10l-185 -537q-51 -148 -153 -148q-32 0 -81 13v67q46 -12 74 -12t45 21t33 64l22 65l-178 467v10h81l105 -305l28 -95h2l26 95l101 305h80zM128 700v10h91l59 -121v-10h-71z" />
    <glyph glyph-name="endash" unicode="&#x2013;" horiz-adv-x="538" 
d="M463 233h-388v74h388v-74z" />
    <glyph glyph-name="emdash" unicode="&#x2014;" horiz-adv-x="836" 
d="M761 233h-686v74h686v-74z" />
    <glyph glyph-name="quoteleft" unicode="&#x2018;" horiz-adv-x="247" 
d="M188 680v-10l-38 -249h-93v10l66 249h65z" />
    <glyph glyph-name="quoteright" unicode="&#x2019;" horiz-adv-x="243" 
d="M63 421v10l38 249h93v-10l-66 -249h-65z" />
    <glyph glyph-name="quotesinglbase" unicode="&#x201a;" horiz-adv-x="243" 
d="M43 -161v10l38 249h93v-10l-66 -249h-65z" />
    <glyph glyph-name="quotedblleft" unicode="&#x201c;" horiz-adv-x="424" 
d="M365 680v-10l-38 -249h-93v10l66 249h65zM188 680v-10l-38 -249h-93v10l66 249h65z" />
    <glyph glyph-name="quotedblright" unicode="&#x201d;" horiz-adv-x="420" 
d="M63 421v10l38 249h93v-10l-66 -249h-65zM240 421v10l38 249h93v-10l-66 -249h-65z" />
    <glyph glyph-name="quotedblbase" unicode="&#x201e;" horiz-adv-x="420" 
d="M43 -161v10l38 249h93v-10l-66 -249h-65zM220 -161v10l38 249h93v-10l-66 -249h-65z" />
    <glyph glyph-name="dagger" unicode="&#x2020;" horiz-adv-x="441" 
d="M32 482h156v218h66v-218h155v-64h-155v-616h-66v616h-156v64z" />
    <glyph glyph-name="daggerdbl" unicode="&#x2021;" horiz-adv-x="486" 
d="M55 482h156v218h66v-218h154v-64h-154v-334h154v-64h-154v-218h-66v218h-156v64h156v334h-156v64z" />
    <glyph glyph-name="bullet" unicode="&#x2022;" horiz-adv-x="348" 
d="M89 291q0 39 23 62.5t62 23.5t62 -23.5t23 -62.5t-23 -62.5t-62 -23.5t-62 23.5t-23 62.5z" />
    <glyph glyph-name="ellipsis" unicode="&#x2026;" horiz-adv-x="676" 
d="M64 48q0 27 17 44.5t43 17.5q27 0 43.5 -17.5t16.5 -44.5q0 -28 -16.5 -45.5t-43.5 -17.5q-26 0 -43 17.5t-17 45.5zM277 48q0 27 17 44.5t43 17.5q27 0 43.5 -17.5t16.5 -44.5q0 -28 -16.5 -45.5t-43.5 -17.5q-26 0 -43 17.5t-17 45.5zM492 48q0 27 17 44.5t43 17.5
q27 0 43.5 -17.5t16.5 -44.5q0 -28 -16.5 -45.5t-43.5 -17.5q-26 0 -43 17.5t-17 45.5z" />
    <glyph glyph-name="perthousand" unicode="&#x2030;" horiz-adv-x="1076" 
d="M826 168q0 -115 70 -115q69 0 69 115t-69 115q-70 0 -70 -115zM1032 168q0 -81 -35 -128.5t-101 -47.5q-67 0 -102 47.5t-35 128.5t35 128.5t102 47.5q66 0 101 -47.5t35 -128.5zM116 508q0 -115 70 -115q69 0 69 115t-69 115q-70 0 -70 -115zM322 508q0 -81 -35 -128.5
t-101 -47.5q-67 0 -102 47.5t-35 128.5t35 128.5t102 47.5q66 0 101 -47.5t35 -128.5zM492 168q0 -115 70 -115q69 0 69 115t-69 115q-70 0 -70 -115zM698 168q0 -81 -35 -128.5t-101 -47.5q-67 0 -102 47.5t-35 128.5t35 128.5t102 47.5q66 0 101 -47.5t35 -128.5zM194 0
h-76v10l447 670h76v-10z" />
    <glyph glyph-name="guilsinglleft" unicode="&#x2039;" horiz-adv-x="301" 
d="M47 264v12l141 209l57 -38l-106 -177l106 -177l-57 -38z" />
    <glyph glyph-name="guilsinglright" unicode="&#x203a;" horiz-adv-x="301" 
d="M254 276v-12l-141 -209l-57 38l106 177l-106 177l57 38z" />
    <glyph glyph-name="fraction" unicode="&#x2044;" horiz-adv-x="120" 
d="M-125 0h-76v10l447 670h76v-10z" />
    <glyph glyph-name="zerosuperior" unicode="&#x2070;" horiz-adv-x="345" 
d="M103 630q0 -115 70 -115q69 0 69 115t-69 115q-70 0 -70 -115zM309 630q0 -81 -35 -128.5t-101 -47.5q-67 0 -102 47.5t-35 128.5t35 128.5t102 47.5q66 0 101 -47.5t35 -128.5z" />
    <glyph glyph-name="foursuperior" unicode="&#x2074;" horiz-adv-x="322" 
d="M188 593v108h65v-108h38v-59h-38v-72h-65v72h-164v52l89 214h69l-85 -206v-1h91z" />
    <glyph glyph-name="fivesuperior" unicode="&#x2075;" horiz-adv-x="294" 
d="M59 613l-9 11l18 176h178v-59h-123l-8 -64h23q56 0 89 -27t33 -81t-36.5 -84.5t-100.5 -30.5q-46 0 -97 19l15 60q40 -18 84 -18q68 0 68 54q0 47 -62 47q-39 0 -72 -3z" />
    <glyph glyph-name="sixsuperior" unicode="&#x2076;" horiz-adv-x="312" 
d="M218 800v-5l-77 -114v-1q14 7 39 7q46 0 76 -33t30 -82t-33.5 -83.5t-92.5 -34.5q-60 0 -93.5 33.5t-33.5 84.5q0 38 23 77l93 151h69zM219 570q0 54 -59 54t-59 -54q0 -55 59 -55t59 55z" />
    <glyph glyph-name="sevensuperior" unicode="&#x2077;" horiz-adv-x="274" 
d="M59 462v5l124 273v1h-158v59h228v-51l-126 -287h-68z" />
    <glyph glyph-name="eightsuperior" unicode="&#x2078;" horiz-adv-x="322" 
d="M162 515q60 0 60 45q0 47 -60 47q-61 0 -61 -47q0 -45 61 -45zM162 808q51 0 82 -26t31 -68q0 -50 -48 -73v-1q59 -25 59 -87q0 -45 -34.5 -72t-89.5 -27q-57 0 -92 27t-35 72q0 61 61 87v1q-48 22 -48 73q0 42 31.5 68t82.5 26zM162 669q48 0 48 37q0 18 -12.5 28.5
t-35.5 10.5q-48 0 -48 -39q0 -37 48 -37z" />
    <glyph glyph-name="ninesuperior" unicode="&#x2079;" horiz-adv-x="313" 
d="M93 462v5l79 114v1q-16 -7 -39 -7q-47 0 -77 33t-30 83q0 49 33.5 83t92.5 34q60 0 94 -33.5t34 -83.5q0 -40 -23 -79l-93 -150h-71zM93 693q0 -27 16 -41t43 -14q60 0 60 55q0 54 -60 54q-59 0 -59 -54z" />
    <glyph glyph-name="plussuperior" unicode="&#x207a;" horiz-adv-x="248" 
d="M151 737v-73h64v-50h-64v-75h-55v75h-63v50h63v73h55z" />
    <glyph glyph-name="minussuperior" unicode="&#x207b;" horiz-adv-x="278" 
d="M230 614h-182v50h182v-50z" />
    <glyph glyph-name="parenleftsuperior" unicode="&#x207d;" horiz-adv-x="172" 
d="M32 631q0 113 71 234l41 -22q-50 -105 -50 -212q0 -108 50 -213l-41 -22q-71 119 -71 235z" />
    <glyph glyph-name="parenrightsuperior" unicode="&#x207e;" horiz-adv-x="172" 
d="M140 631q0 -116 -71 -235l-41 22q50 105 50 213q0 100 -50 212l41 22q71 -121 71 -234z" />
    <glyph glyph-name="zeroinferior" unicode="&#x2080;" horiz-adv-x="345" 
d="M103 48q0 -115 70 -115q69 0 69 115t-69 115q-70 0 -70 -115zM309 48q0 -81 -35 -128.5t-101 -47.5q-67 0 -102 47.5t-35 128.5t35 128.5t102 47.5q66 0 101 -47.5t35 -128.5z" />
    <glyph glyph-name="oneinferior" unicode="&#x2081;" horiz-adv-x="245" 
d="M31 106h-7v58l118 54h48v-338h-64v266h-1z" />
    <glyph glyph-name="twoinferior" unicode="&#x2082;" horiz-adv-x="301" 
d="M126 -59v-1h138v-60h-230v51l127 117q32 29 32 64q0 27 -15.5 40t-38.5 13q-35 0 -72 -37l-34 48q50 50 111 50q50 0 83 -29t33 -79q0 -61 -52 -105z" />
    <glyph glyph-name="threeinferior" unicode="&#x2083;" horiz-adv-x="302" 
d="M78 20v60h56q56 0 56 42q0 43 -55 43q-43 0 -80 -17l-19 55q43 23 102 23q56 0 87.5 -25.5t31.5 -68.5q0 -30 -15 -49.5t-35 -25.5v-1q58 -21 58 -85q0 -46 -33.5 -72.5t-97.5 -26.5q-59 0 -106 26l17 57q46 -22 87 -22q67 0 67 47q0 40 -65 40h-56z" />
    <glyph glyph-name="fourinferior" unicode="&#x2084;" horiz-adv-x="322" 
d="M188 11v108h65v-108h38v-59h-38v-72h-65v72h-164v52l89 214h69l-85 -206v-1h91z" />
    <glyph glyph-name="fiveinferior" unicode="&#x2085;" horiz-adv-x="294" 
d="M59 31l-9 11l18 176h178v-59h-123l-8 -64h23q56 0 89 -27t33 -81t-36.5 -84.5t-100.5 -30.5q-46 0 -97 19l15 60q40 -18 84 -18q68 0 68 54q0 47 -62 47q-39 0 -72 -3z" />
    <glyph glyph-name="sixinferior" unicode="&#x2086;" horiz-adv-x="312" 
d="M218 218v-5l-77 -114v-1q14 7 39 7q46 0 76 -33t30 -82t-33.5 -83.5t-92.5 -34.5q-60 0 -93.5 33.5t-33.5 84.5q0 38 23 77l93 151h69zM219 -12q0 54 -59 54t-59 -54q0 -55 59 -55t59 55z" />
    <glyph glyph-name="seveninferior" unicode="&#x2087;" horiz-adv-x="274" 
d="M59 -120v5l124 273v1h-158v59h228v-51l-126 -287h-68z" />
    <glyph glyph-name="eightinferior" unicode="&#x2088;" horiz-adv-x="322" 
d="M162 -67q60 0 60 45q0 47 -60 47q-61 0 -61 -47q0 -45 61 -45zM162 226q51 0 82 -26t31 -68q0 -50 -48 -73v-1q59 -25 59 -87q0 -45 -34.5 -72t-89.5 -27q-57 0 -92 27t-35 72q0 61 61 87v1q-48 22 -48 73q0 42 31.5 68t82.5 26zM162 87q48 0 48 37q0 18 -12.5 28.5
t-35.5 10.5q-48 0 -48 -39q0 -37 48 -37z" />
    <glyph glyph-name="nineinferior" unicode="&#x2089;" horiz-adv-x="313" 
d="M93 -120v5l79 114v1q-16 -7 -39 -7q-47 0 -77 33t-30 83q0 49 33.5 83t92.5 34q60 0 94 -33.5t34 -83.5q0 -40 -23 -79l-93 -150h-71zM93 111q0 -27 16 -41t43 -14q60 0 60 55q0 54 -60 54q-59 0 -59 -54z" />
    <glyph glyph-name="parenleftinferior" unicode="&#x208d;" horiz-adv-x="172" 
d="M32 49q0 113 71 234l41 -22q-50 -105 -50 -212q0 -108 50 -213l-41 -22q-71 119 -71 235z" />
    <glyph glyph-name="parenrightinferior" unicode="&#x208e;" horiz-adv-x="172" 
d="M140 49q0 -116 -71 -235l-41 22q50 105 50 213q0 100 -50 212l41 22q71 -121 71 -234z" />
    <glyph glyph-name="uni20A1" unicode="&#x20a1;" 
d="M458 770l-16 -95q27 -10 52 -24l-23 -64q-18 8 -43 18l-84 -544q64 0 127 32l23 -64q-80 -44 -157 -44q-1 0 -4 0.5t-4 0.5l-15 -94h-55l17 100q-31 6 -53 19l-20 -119h-54l24 152q-108 92 -108 296q0 143 57 237t158 114l13 79h54l-12 -75q25 -1 55 -6l14 81h54z
M320 618l-82 -528q23 -17 53 -24l85 551q-26 2 -39 2q-3 0 -8 -0.5t-9 -0.5zM154 340q0 -133 38 -199l72 464q-110 -51 -110 -265z" />
    <glyph glyph-name="lira" unicode="&#x20a4;" horiz-adv-x="518" 
d="M394 223h-162q0 -47 -17 -90t-36 -57v-2h284v-74h-392v62q72 57 72 131v30h-82v66h77l-11 99h-66v66h60q-2 34 -2 46q0 94 50.5 144.5t136.5 50.5q72 0 159 -46l-24 -65q-74 35 -135 35q-43 0 -71 -31t-28 -89q0 -32 2 -45h185v-66h-178l10 -99h168v-66z" />
    <glyph glyph-name="uni20A6" unicode="&#x20a6;" 
d="M528 226h-51v-226h-109l-86 226h-128v-226h-86v226h-45v66h45v79h-45v66h45v243h106l95 -243h123v243h85v-243h51v-66h-51v-79h51v-66zM299 371l29 -79h67l-2 79h-94zM224 371h-74l3 -79h99zM399 106h2l-4 120h-40zM146 555h-2l4 -118h47z" />
    <glyph glyph-name="rupee" unicode="&#x20a8;" 
d="M476 443h-85q-9 -80 -65.5 -122t-134.5 -44l209 -261v-16h-92l-230 294v63h97q61 0 90.5 21.5t38.5 64.5h-235l18 66h215q-20 88 -127 88h-106l18 83h407l-18 -66h-163v-2q60 -33 76 -103h105z" />
    <glyph glyph-name="uni20AA" unicode="&#x20aa;" horiz-adv-x="667" 
d="M454 184h-86v250q0 55 -4.5 84.5t-20 51.5t-44 29t-78.5 7h-68v-606h-86v680h166q126 0 173.5 -52.5t47.5 -193.5v-250zM518 680h86v-434q0 -141 -47.5 -193.5t-174.5 -52.5h-165v496h85v-422h68q95 0 121.5 33.5t26.5 138.5v434z" />
    <glyph glyph-name="dong" unicode="&#x20ab;" 
d="M495 585h-52v-460h-60l-10 35h-2q-70 -48 -142 -48q-87 0 -131.5 58.5t-44.5 149.5q0 90 44.5 148t131.5 58q73 0 128 -39h2v98h-95v64h95v51h84v-51h52v-64zM359 211v217q-44 31 -107 31q-59 0 -86 -39t-27 -100q0 -62 27 -101t86 -39q63 0 107 31zM443 0h-362v63h362
v-63z" />
    <glyph glyph-name="Euro" unicode="&#x20ac;" 
d="M400 223h-208q15 -78 56 -120t109 -42q72 0 132 32l23 -64q-80 -44 -155 -44q-102 0 -165.5 62.5t-85.5 175.5h-78l20 66h50q-2 11 -2 51q0 32 1 48h-69l21 66h57q21 113 85 177t166 64q78 0 155 -44l-23 -64q-60 32 -132 32q-68 0 -109.5 -43t-56.5 -122h267l-19 -66
h-258q-1 -16 -1 -48q0 -35 1 -51h238z" />
    <glyph glyph-name="uni20AD" unicode="&#x20ad;" 
d="M471 301h-156l198 -291v-10h-106l-195 301h-20v-301h-86v301h-60v66h60v313h86v-313h20l188 313h101v-10l-188 -303h158v-66z" />
    <glyph glyph-name="uni20AE" unicode="&#x20ae;" 
d="M411 328v-72l-92 -36v-220h-85v186l-94 -36v72l94 36v68l-94 -36v72l94 36v208h-186v74h455v-74h-184v-174l92 36v-72l-92 -36v-68z" />
    <glyph glyph-name="uni20B1" unicode="&#x20b1;" 
d="M520 323h-55q-38 -141 -192 -141h-92v-182h-86v323h-53v74h53v65h-53v74h53v144h178q154 0 193 -144h54v-74h-43q1 -11 1 -31q0 -22 -1 -34h43v-74zM389 431q0 20 -1 31h-207v-65h207q1 11 1 34zM181 256h85q87 0 107 67h-192v-67zM181 606v-70h194q-24 70 -109 70h-85z
" />
    <glyph glyph-name="uni20B2" unicode="&#x20b2;" 
d="M314 770v-75q89 -4 171 -63l-29 -64q-68 46 -142 51v-558q56 2 88 30v171l-52 14v63h139v-285q-75 -63 -175 -69v-93h-62v97q-100 17 -150 111t-50 240q0 145 49 238t151 112v80h62zM140 340q0 -109 27 -183t85 -91v545q-112 -37 -112 -271z" />
    <glyph glyph-name="uni20B4" unicode="&#x20b4;" 
d="M493 209h-318q-4 -15 -4 -30q0 -56 29.5 -87t79.5 -31q85 0 157 62l35 -64q-90 -74 -192 -74q-88 0 -138.5 54.5t-50.5 138.5q0 24 2 31h-40v66h74q22 26 68 56l81 55h-223v66h310q15 25 15 54q0 47 -31 80t-84 33q-62 0 -134 -45l-32 65q83 56 166 56q91 0 142.5 -53
t51.5 -133q0 -30 -10 -57h46v-66h-100q-28 -28 -57 -48l-92 -63h249v-66z" />
    <glyph glyph-name="uni20B5" unicode="&#x20b5;" 
d="M341 770v-75q70 -1 150 -44l-23 -64q-61 30 -127 32v-558q63 0 127 32l23 -64q-80 -43 -150 -44v-93h-66v99q-103 20 -158 112.5t-55 236.5t55 236t158 113v81h66zM149 340q0 -108 31.5 -179.5t94.5 -91.5v542q-63 -20 -94.5 -91.5t-31.5 -179.5z" />
    <glyph glyph-name="afii61289" unicode="&#x2113;" horiz-adv-x="402" 
d="M351 92l22 -57q-60 -50 -123 -50q-113 0 -113 124v138q-51 -42 -81 -62l-35 56q68 44 116 85v237q0 152 112 152q51 0 79 -31t28 -90q0 -159 -154 -306v-175q0 -64 48 -64q51 0 101 43zM288 586q0 65 -40 65q-46 0 -46 -91v-184q86 101 86 210z" />
    <glyph glyph-name="afii61352" unicode="&#x2116;" horiz-adv-x="1003" 
d="M505 126h2l-8 127v427h84v-680h-88l-320 554h-2l8 -127v-427h-84v680h88zM726 502q0 -98 75 -98q77 0 77 98t-77 98q-75 0 -75 -98zM949 502q0 -70 -38 -115.5t-110 -45.5q-71 0 -108.5 45.5t-37.5 115.5t37.5 115.5t108.5 45.5q72 0 110 -45.5t38 -115.5zM923 213h-243
v59h243v-59z" />
    <glyph glyph-name="uni2117" unicode="&#x2117;" horiz-adv-x="828" 
d="M59 340q0 151 102 253t253 102t253 -102t102 -253t-102 -253t-253 -102t-253 102t-102 253zM115 340q0 -129 85 -215.5t214 -86.5t214 86.5t85 215.5t-85 215.5t-214 86.5t-214 -86.5t-85 -215.5zM362 153h-70v374h144q66 0 97.5 -32.5t31.5 -89.5q0 -56 -32 -89t-97 -33
h-74v-130zM362 467v-124h69q61 0 61 62t-61 62h-69z" />
    <glyph glyph-name="trademark" unicode="&#x2122;" horiz-adv-x="741" 
d="M66 700h234v-53h-84v-227h-65v227h-85v53zM476 615l31 -66l29 64l49 87h74v-280h-64v127l5 69h-1l-67 -129h-51l-66 129h-1l5 -69v-127h-65v280h74z" />
    <glyph glyph-name="Omega" unicode="&#x2126;" horiz-adv-x="693" 
d="M73 0v74h128q-56 43 -94 115t-38 161q0 74 16 135t48.5 109t87 74.5t126.5 26.5q140 0 208.5 -95.5t68.5 -249.5q0 -89 -38 -161t-94 -115h128v-74h-223v70q139 105 139 269q0 280 -189 280q-101 0 -145.5 -76.5t-44.5 -202.5q0 -164 139 -270v-70h-223z" />
    <glyph glyph-name="estimated" unicode="&#x212e;" horiz-adv-x="684" 
d="M554 133l37 -27q-47 -65 -104 -93t-138 -28q-126 0 -205 88t-79 217q0 130 78.5 216t205.5 86q125 0 204 -81t83 -211l-7 -10h-445v-201q65 -62 165 -62q135 0 205 106zM515 330v161q-67 63 -166 63q-103 0 -165 -63v-161h331z" />
    <glyph glyph-name="onethird" unicode="&#x2153;" horiz-adv-x="714" 
d="M475 140v60h56q56 0 56 42q0 43 -55 43q-43 0 -80 -17l-19 55q43 23 102 23q56 0 87.5 -25.5t31.5 -68.5q0 -30 -15 -49.5t-35 -25.5v-1q58 -21 58 -85q0 -46 -33.5 -72.5t-97.5 -26.5q-59 0 -106 26l17 57q46 -22 87 -22q67 0 67 47q0 40 -65 40h-56zM51 568h-7v58
l118 54h48v-338h-64v266h-1zM156 0h-76v10l447 670h76v-10z" />
    <glyph glyph-name="twothirds" unicode="&#x2154;" horiz-adv-x="771" 
d="M532 140v60h56q56 0 56 42q0 43 -55 43q-43 0 -80 -17l-19 55q43 23 102 23q56 0 87.5 -25.5t31.5 -68.5q0 -30 -15 -49.5t-35 -25.5v-1q58 -21 58 -85q0 -46 -33.5 -72.5t-97.5 -26.5q-59 0 -106 26l17 57q46 -22 87 -22q67 0 67 47q0 40 -65 40h-56zM147 401v-1h138
v-60h-230v51l127 117q32 29 32 64q0 27 -15.5 40t-38.5 13q-35 0 -72 -37l-34 48q50 50 111 50q50 0 83 -29t33 -79q0 -61 -52 -105zM213 0h-76v10l447 670h76v-10z" />
    <glyph glyph-name="oneeighth" unicode="&#x215b;" horiz-adv-x="715" 
d="M51 568h-7v58l118 54h48v-338h-64v266h-1zM156 0h-76v10l447 670h76v-10zM540 53q60 0 60 45q0 47 -60 47q-61 0 -61 -47q0 -45 61 -45zM540 346q51 0 82 -26t31 -68q0 -50 -48 -73v-1q59 -25 59 -87q0 -45 -34.5 -72t-89.5 -27q-57 0 -92 27t-35 72q0 61 61 87v1
q-48 22 -48 73q0 42 31.5 68t82.5 26zM540 207q48 0 48 37q0 18 -12.5 28.5t-35.5 10.5q-48 0 -48 -39q0 -37 48 -37z" />
    <glyph glyph-name="threeeighths" unicode="&#x215c;" horiz-adv-x="760" 
d="M585 53q60 0 60 45q0 47 -60 47q-61 0 -61 -47q0 -45 61 -45zM585 346q51 0 82 -26t31 -68q0 -50 -48 -73v-1q59 -25 59 -87q0 -45 -34.5 -72t-89.5 -27q-57 0 -92 27t-35 72q0 61 61 87v1q-48 22 -48 73q0 42 31.5 68t82.5 26zM585 207q48 0 48 37q0 18 -12.5 28.5
t-35.5 10.5q-48 0 -48 -39q0 -37 48 -37zM98 479v60h56q56 0 56 42q0 43 -55 43q-43 0 -80 -17l-19 55q43 23 102 23q56 0 87.5 -25.5t31.5 -68.5q0 -30 -15 -49.5t-35 -25.5v-1q58 -21 58 -85q0 -46 -33.5 -72.5t-97.5 -26.5q-59 0 -106 26l17 57q46 -22 87 -22q67 0 67 47
q0 40 -65 40h-56zM201 0h-76v10l447 670h76v-10z" />
    <glyph glyph-name="fiveeighths" unicode="&#x215d;" horiz-adv-x="747" 
d="M572 53q60 0 60 45q0 47 -60 47q-61 0 -61 -47q0 -45 61 -45zM572 346q51 0 82 -26t31 -68q0 -50 -48 -73v-1q59 -25 59 -87q0 -45 -34.5 -72t-89.5 -27q-57 0 -92 27t-35 72q0 61 61 87v1q-48 22 -48 73q0 42 31.5 68t82.5 26zM572 207q48 0 48 37q0 18 -12.5 28.5
t-35.5 10.5q-48 0 -48 -39q0 -37 48 -37zM81 493l-9 11l18 176h178v-59h-123l-8 -64h23q56 0 89 -27t33 -81t-36.5 -84.5t-100.5 -30.5q-46 0 -97 19l15 60q40 -18 84 -18q68 0 68 54q0 47 -62 47q-39 0 -72 -3zM188 0h-76v10l447 670h76v-10z" />
    <glyph glyph-name="seveneighths" unicode="&#x215e;" horiz-adv-x="703" 
d="M528 53q60 0 60 45q0 47 -60 47q-61 0 -61 -47q0 -45 61 -45zM528 346q51 0 82 -26t31 -68q0 -50 -48 -73v-1q59 -25 59 -87q0 -45 -34.5 -72t-89.5 -27q-57 0 -92 27t-35 72q0 61 61 87v1q-48 22 -48 73q0 42 31.5 68t82.5 26zM528 207q48 0 48 37q0 18 -12.5 28.5
t-35.5 10.5q-48 0 -48 -39q0 -37 48 -37zM85 342v5l124 273v1h-158v59h228v-51l-126 -287h-68zM144 0h-76v10l447 670h76v-10z" />
    <glyph glyph-name="arrowleft" unicode="&#x2190;" horiz-adv-x="892" 
d="M40 339l380 380l56 -57l-295 -285h711v-76h-711l295 -286l-56 -56z" />
    <glyph glyph-name="arrowup" unicode="&#x2191;" horiz-adv-x="892" 
d="M465 763l380 -380l-57 -55l-285 294l-1 -710h-76l1 710l-286 -294l-56 55z" />
    <glyph glyph-name="arrowright" unicode="&#x2192;" horiz-adv-x="892" 
d="M892 339l-380 -380l-57 56l296 286h-711v76h711l-296 285l57 57z" />
    <glyph glyph-name="arrowdown" unicode="&#x2193;" horiz-adv-x="892" 
d="M465 -88l-380 380l56 55l286 -294l1 710h75v-710l285 294l57 -55z" />
    <glyph glyph-name="uni2196" unicode="&#x2196;" horiz-adv-x="896" 
d="M159 662h539v-81l-412 6l503 -503l-54 -52l-501 503l6 -412h-81v539z" />
    <glyph glyph-name="uni2197" unicode="&#x2197;" horiz-adv-x="895" 
d="M804 662v-538h-81l6 412l-501 -503l-53 54l502 501l-412 -7v81h539z" />
    <glyph glyph-name="uni2198" unicode="&#x2198;" horiz-adv-x="895" 
d="M805 18h-539v81l412 -6l-503 501l54 53l501 -502l-6 412h81v-539z" />
    <glyph glyph-name="uni2199" unicode="&#x2199;" horiz-adv-x="896" 
d="M159 18v539h81l-6 -412l501 502l54 -53l-503 -501l412 6v-81h-539z" />
    <glyph glyph-name="partialdiff" unicode="&#x2202;" horiz-adv-x="558" 
d="M153 625l15 75q165 0 245.5 -100.5t80.5 -263.5q0 -176 -64 -263.5t-167 -87.5q-101 0 -157.5 68t-56.5 175q0 110 57.5 177.5t150.5 67.5q41 0 79.5 -17.5t61.5 -43.5l2 1q-13 114 -77 162t-170 50zM405 326q-61 71 -140 71q-60 0 -95 -45t-35 -125q0 -69 35.5 -117.5
t91.5 -48.5q143 0 143 265z" />
    <glyph glyph-name="Delta" unicode="&#x2206;" horiz-adv-x="609" 
d="M582 5v-5h-555v5l235 675h85zM305 595h-2l-53 -179l-116 -346h341l-117 346z" />
    <glyph glyph-name="product" unicode="&#x220f;" horiz-adv-x="667" 
d="M489 -198v824h-311v-824h-84v898h479v-898h-84z" />
    <glyph glyph-name="summation" unicode="&#x2211;" horiz-adv-x="551" 
d="M43 -198v73l238 383l-223 368v74h435v-74h-347l229 -364l-244 -386h376v-74h-464z" />
    <glyph glyph-name="minus" unicode="&#x2212;" 
d="M56 307h437v-74h-437v74z" />
    <glyph glyph-name="uni2215" unicode="&#x2215;" horiz-adv-x="552" 
d="M91 0h-76v10l447 670h76v-10z" />
    <glyph glyph-name="uni2219" unicode="&#x2219;" horiz-adv-x="256" 
d="M68 288q0 27 17 44.5t43 17.5q27 0 43.5 -17.5t16.5 -44.5q0 -28 -16.5 -45.5t-43.5 -17.5q-26 0 -43 17.5t-17 45.5z" />
    <glyph glyph-name="radical" unicode="&#x221a;" horiz-adv-x="583" 
d="M26 212v10h81l83 -210l38 -126h2l32 124l226 670h77l-290 -878h-84z" />
    <glyph glyph-name="infinity" unicode="&#x221e;" horiz-adv-x="709" 
d="M503 120q-41 0 -73.5 20.5t-74.5 70.5q-44 -50 -77 -70.5t-73 -20.5q-61 0 -102 42t-41 109t41 108t104 41q38 0 70 -21t77 -73q46 54 77.5 74t71.5 20q61 0 102.5 -41t41.5 -108t-41 -109t-103 -42zM503 193q32 0 52 23t20 55q0 33 -20 54.5t-52 21.5q-22 0 -44.5 -16.5
t-57.5 -59.5q37 -44 59 -61t43 -17zM207 193q36 0 101 78q-61 76 -101 76q-33 0 -53 -21.5t-20 -54.5t20 -55.5t53 -22.5z" />
    <glyph glyph-name="integral" unicode="&#x222b;" horiz-adv-x="501" 
d="M159 -63l97 601q14 83 53.5 120t109.5 37q28 0 62 -6l-8 -71q-30 7 -55 7q-65 0 -78 -80l-97 -601q-14 -83 -52.5 -120t-108.5 -37q-30 0 -62 6l8 71q28 -7 55 -7q63 0 76 80z" />
    <glyph glyph-name="approxequal" unicode="&#x2248;" 
d="M102 334l-33 49q33 60 112 60q31 0 101 -25.5t93 -25.5q42 0 73 34l33 -50q-41 -58 -111 -58q-29 0 -99.5 25.5t-91.5 25.5q-44 0 -77 -35zM102 117l-33 49q33 60 112 60q31 0 101 -25.5t93 -25.5q42 0 73 34l33 -50q-41 -58 -111 -58q-29 0 -99.5 25.5t-91.5 25.5
q-44 0 -77 -35z" />
    <glyph glyph-name="notequal" unicode="&#x2260;" 
d="M56 200h156l50 143h-206v74h233l44 124h72v-10l-41 -114h129v-74h-155l-51 -143h206v-74h-232l-44 -126h-73v10l41 116h-129v74z" />
    <glyph glyph-name="lessequal" unicode="&#x2264;" 
d="M487 155h-8l-429 201v69l429 201h8v-84l-350 -150v-3l350 -150v-84zM50 74h437v-74h-437v74z" />
    <glyph glyph-name="greaterequal" unicode="&#x2265;" 
d="M71 155h-8v84l350 150v3l-350 150v84h8l429 -201v-69zM63 74h437v-74h-437v74z" />
    <glyph glyph-name="lozenge" unicode="&#x25ca;" horiz-adv-x="518" 
d="M233 0l-204 327l201 353h53l205 -333l-201 -347h-54zM263 85l140 257l-148 252l-141 -264z" />
    <glyph glyph-name="whitecircle" unicode="&#x25cb;" horiz-adv-x="800" 
d="M60 341q0 144 97.5 241.5t241.5 97.5q145 0 243 -97.5t98 -241.5q0 -145 -98 -243t-243 -98q-144 0 -241.5 98t-97.5 243zM125 341q0 -118 78.5 -197.5t195.5 -79.5t196 79.5t79 197.5q0 117 -79 196t-196 79t-195.5 -79t-78.5 -196z" />
    <glyph glyph-name="blackcircle" unicode="&#x25cf;" horiz-adv-x="800" 
d="M60 340q0 146 97 243t243 97q145 0 242.5 -97.5t97.5 -242.5t-97.5 -242.5t-242.5 -97.5t-242.5 97.5t-97.5 242.5z" />
    <glyph glyph-name="uni25DC" unicode="&#x25dc;" horiz-adv-x="339" 
d="M339 680v-64q-117 0 -195.5 -79t-78.5 -196h-65q0 144 97.5 241.5t241.5 97.5z" />
    <glyph glyph-name="uni25DD" unicode="&#x25dd;" horiz-adv-x="341" 
d="M0 616v64q145 0 243 -97.5t98 -241.5h-66q0 117 -79 196t-196 79z" />
    <glyph glyph-name="uni25DE" unicode="&#x25de;" horiz-adv-x="341" 
d="M0 0v64q117 0 196 79.5t79 197.5h66q0 -145 -98 -243t-243 -98z" />
    <glyph glyph-name="uni25DF" unicode="&#x25df;" horiz-adv-x="339" 
d="M339 64v-64q-144 0 -241.5 98t-97.5 243h65q0 -118 78.5 -197.5t195.5 -79.5z" />
    <glyph glyph-name="uniEA01" unicode="&#xea01;" horiz-adv-x="1000" 
d="M69 -96v861h861v-861h-861zM142 -23h715v715h-715v-715zM598 110v195h-195v-195h-98v469h98v-192h195v192h98v-469h-98z" />
    <glyph glyph-name="uniEA02" unicode="&#xea02;" horiz-adv-x="1000" 
d="M69 -96v861h861v-861h-861zM142 -23h715v715h-715v-715zM295 344q0 112 60.5 178.5t168.5 66.5q69 0 135 -30l-27 -78q-51 24 -108 24t-91.5 -44.5t-34.5 -116.5t34.5 -116.5t91.5 -44.5t108 24l27 -78q-69 -30 -135 -30q-109 0 -169 66.5t-60 178.5z" />
    <glyph glyph-name="uniEA03" unicode="&#xea03;" horiz-adv-x="1000" 
d="M69 -96v861h861v-861h-861zM142 -23h715v715h-715v-715zM331 144l30 78q59 -40 134 -40q73 0 73 56q0 22 -14 34.5t-52 24.5l-51 16q-62 20 -87.5 52.5t-25.5 79.5q0 67 44.5 105.5t124.5 38.5q76 0 141 -33l-28 -78q-55 28 -114 28q-68 0 -68 -51q0 -38 49 -53l50 -16
q69 -23 100 -54t31 -83q0 -68 -47 -109t-123 -41q-90 0 -167 45z" />
    <glyph glyph-name="uniEA04" unicode="&#xea04;" horiz-adv-x="1000" 
d="M69 -96v861h861v-861h-861zM598 305v-195h98v469h-98v-192h-195v192h-98v-469h98v195h195z" />
    <glyph glyph-name="uniEA05" unicode="&#xea05;" horiz-adv-x="1000" 
d="M69 -96v861h861v-861h-861zM295 344q0 -112 60 -178.5t169 -66.5q66 0 135 30l-27 78q-51 -24 -108 -24t-91.5 44.5t-34.5 116.5t34.5 116.5t91.5 44.5t108 -24l27 78q-66 30 -135 30q-108 0 -168.5 -66.5t-60.5 -178.5z" />
    <glyph glyph-name="uniEA06" unicode="&#xea06;" horiz-adv-x="1000" 
d="M69 -96v861h861v-861h-861zM361 222l-30 -78q77 -45 167 -45q76 0 123 41t47 109q0 52 -31 83t-100 54l-50 16q-49 15 -49 53q0 51 68 51q59 0 114 -28l28 78q-65 33 -141 33q-80 0 -124.5 -38.5t-44.5 -105.5q0 -47 25.5 -79.5t87.5 -52.5l51 -16q38 -12 52 -24.5
t14 -34.5q0 -56 -73 -56q-75 0 -134 40z" />
    <glyph glyph-name="commaaccent" unicode="&#xf6c3;" horiz-adv-x="542" 
d="M219 -218v10l18 141h85v-10l-38 -141h-65z" />
    <glyph glyph-name="commainferior" unicode="&#xf6e1;" horiz-adv-x="186" 
d="M28 -221v10l26 180h89v-9l-53 -181h-62z" />
    <glyph glyph-name="commasuperior" unicode="&#xf6e2;" horiz-adv-x="186" 
d="M28 361v10l26 180h89v-9l-53 -181h-62z" />
    <glyph glyph-name="hypheninferior" unicode="&#xf6e5;" horiz-adv-x="242" 
d="M194 32h-146v50h146v-50z" />
    <glyph glyph-name="hyphensuperior" unicode="&#xf6e6;" horiz-adv-x="242" 
d="M194 614h-146v50h146v-50z" />
    <glyph glyph-name="periodinferior" unicode="&#xf6e7;" horiz-adv-x="181" 
d="M40 -77q0 23 14.5 37t36.5 14t36 -13.5t14 -37.5q0 -23 -14 -36.5t-36 -13.5t-36.5 13.5t-14.5 36.5z" />
    <glyph glyph-name="periodsuperior" unicode="&#xf6e8;" horiz-adv-x="181" 
d="M40 505q0 23 14.5 37t36.5 14t36 -13.5t14 -37.5q0 -23 -14 -36.5t-36 -13.5t-36.5 13.5t-14.5 36.5z" />
    <glyph glyph-name="uniF8FF" unicode="&#xf8ff;" horiz-adv-x="595" 
d="M91 0v680h413v-680h-413zM149 58h297v564h-297v-564z" />
    <glyph glyph-name="fi" unicode="&#xfb01;" horiz-adv-x="576" 
d="M496 0h-82v408h-217v-408h-83v408h-79v54l79 20v66q0 82 35.5 119.5t105.5 37.5q29 0 63 -6v-80q-30 7 -55 7q-34 0 -50 -15.5t-16 -55.5v-73h299v-482zM403 624q0 26 14 41t38 15q25 0 39 -15t14 -41t-14 -41.5t-39 -15.5q-24 0 -38 15.5t-14 41.5z" />
    <glyph glyph-name="fl" unicode="&#xfb02;" horiz-adv-x="588" 
d="M196 0h-82v415h-79v48l79 19v66q0 157 136 157q35 0 67 -6v-71q-28 7 -55 7q-66 0 -66 -77v-76h121v-67h-121v-415zM503 0h-82v700h82v-700z" />
    <glyph glyph-name="zero.lf" horiz-adv-x="597" 
d="M153 340q0 -137 33 -208t114 -71q79 0 111.5 71t32.5 208t-32.5 208t-111.5 71q-81 0 -114 -71t-33 -208zM531 340q0 -355 -231 -355q-234 0 -234 355t234 355q231 0 231 -355z" />
    <glyph glyph-name="one.lf" horiz-adv-x="374" 
d="M52 534h-13v77l167 69h71v-680h-87v587h-2z" />
    <glyph glyph-name="two.lf" horiz-adv-x="514" 
d="M165 76v-2h288v-74h-398v70l226 254l41 50t24.5 45.5t13.5 63.5q0 58 -33 97t-92 39q-76 0 -143 -63l-42 59q87 80 190 80q89 0 148 -59t59 -153q0 -61 -23 -104t-74 -101z" />
    <glyph glyph-name="three.lf" horiz-adv-x="523" 
d="M135 309v76h109q57 0 85 32.5t28 82.5q0 49 -30 84t-83 35q-77 0 -155 -35l-26 66q78 45 182 45q95 0 147 -51t52 -139q0 -51 -26.5 -94t-59.5 -58v-2q46 -19 73.5 -63.5t27.5 -105.5q0 -89 -61.5 -143t-158.5 -54q-115 0 -192 51l29 66q74 -41 162 -41q58 0 96 34t38 92
q0 122 -133 122h-104z" />
    <glyph glyph-name="four.lf" horiz-adv-x="565" 
d="M359 222v258h84v-258h77v-74h-77v-148h-84v148h-321v61l192 471h85l-184 -456v-2h228z" />
    <glyph glyph-name="five.lf" horiz-adv-x="511" 
d="M98 332l-12 14l37 334h308v-74h-240l-21 -195q40 2 63 2q221 0 221 -210q0 -105 -65 -161.5t-173 -56.5q-39 0 -88 12t-82 28l22 71q80 -35 148 -35q151 0 151 142q0 134 -142 134q-69 0 -127 -5z" />
    <glyph glyph-name="six.lf" horiz-adv-x="537" 
d="M348 680v-10l-156 -260l2 -2q14 13 42.5 24.5t55.5 11.5q88 0 143 -62t55 -164t-58.5 -167.5t-160.5 -65.5q-103 0 -161.5 65.5t-58.5 167.5q0 96 52 185l154 277h91zM403 218q0 69 -36 109.5t-96 40.5q-61 0 -97 -40.5t-36 -109.5q0 -70 36.5 -113.5t96.5 -43.5t96 43.5
t36 113.5z" />
    <glyph glyph-name="seven.lf" horiz-adv-x="468" 
d="M124 0v10l216 594v2h-303v74h394v-67l-218 -613h-89z" />
    <glyph glyph-name="eight.lf" horiz-adv-x="569" 
d="M285 61q67 0 101 34.5t34 93.5t-34 94t-101 35q-69 0 -102.5 -35t-33.5 -94t34.5 -93.5t101.5 -34.5zM285 695q99 0 148.5 -51.5t49.5 -136.5q0 -96 -86 -148v-2q47 -23 78.5 -68.5t31.5 -103.5q0 -90 -57.5 -145t-164.5 -55q-108 0 -165.5 55t-57.5 145q0 58 31.5 103.5
t79.5 68.5v2q-88 53 -88 148q0 85 50.5 136.5t149.5 51.5zM285 394q54 0 82.5 29.5t28.5 82.5t-28.5 83t-82.5 30q-55 0 -84 -30t-29 -83t29 -82.5t84 -29.5z" />
    <glyph glyph-name="nine.lf" horiz-adv-x="537" 
d="M189 0v10l156 260q-1 1 -1 2q-14 -13 -43 -24.5t-56 -11.5q-88 0 -143 62t-55 164t58.5 167.5t160.5 65.5q103 0 161.5 -65.5t58.5 -167.5q0 -92 -52 -185l-154 -277h-91zM134 462q0 -69 36 -109.5t96 -40.5q62 0 97.5 40.5t35.5 109.5q0 70 -36 113.5t-97 43.5
q-59 0 -95.5 -44t-36.5 -113z" />
    <glyph glyph-name="a.alt" horiz-adv-x="546" 
d="M383 99v284q-44 44 -120 44q-64 0 -94 -52.5t-30 -133.5t30 -133.5t94 -52.5q76 0 120 44zM465 482v-482h-58l-9 44h-1q-79 -59 -155 -59q-93 0 -140 72t-47 184t47 184t140 72q76 0 155 -59h1l9 44h58z" />
    <glyph glyph-name="agrave.alt" horiz-adv-x="546" 
d="M383 99v284q-44 44 -120 44q-64 0 -94 -52.5t-30 -133.5t30 -133.5t94 -52.5q76 0 120 44zM465 482v-482h-58l-9 44h-1q-79 -59 -155 -59q-93 0 -140 72t-47 184t47 184t140 72q76 0 155 -59h1l9 44h58zM168 700v10h91l59 -121v-10h-71z" />
    <glyph glyph-name="aacute.alt" horiz-adv-x="546" 
d="M383 99v284q-44 44 -120 44q-64 0 -94 -52.5t-30 -133.5t30 -133.5t94 -52.5q76 0 120 44zM465 482v-482h-58l-9 44h-1q-79 -59 -155 -59q-93 0 -140 72t-47 184t47 184t140 72q76 0 155 -59h1l9 44h58zM392 710v-10l-79 -121h-71v10l59 121h91z" />
    <glyph glyph-name="acircumflex.alt" horiz-adv-x="546" 
d="M383 99v284q-44 44 -120 44q-64 0 -94 -52.5t-30 -133.5t30 -133.5t94 -52.5q76 0 120 44zM465 482v-482h-58l-9 44h-1q-79 -59 -155 -59q-93 0 -140 72t-47 184t47 184t140 72q76 0 155 -59h1l9 44h58zM327 710l86 -121v-10h-75l-58 84l-58 -84h-75v10l86 121h94z" />
    <glyph glyph-name="atilde.alt" horiz-adv-x="546" 
d="M383 99v284q-44 44 -120 44q-64 0 -94 -52.5t-30 -133.5t30 -133.5t94 -52.5q76 0 120 44zM465 482v-482h-58l-9 44h-1q-79 -59 -155 -59q-93 0 -140 72t-47 184t47 184t140 72q76 0 155 -59h1l9 44h58zM164 584l-25 50q36 57 83 57q20 0 60.5 -20t59.5 -20q30 0 54 35
l25 -50q-40 -57 -83 -57q-21 0 -61 20t-60 20q-28 0 -53 -35z" />
    <glyph glyph-name="adieresis.alt" horiz-adv-x="546" 
d="M383 99v284q-44 44 -120 44q-64 0 -94 -52.5t-30 -133.5t30 -133.5t94 -52.5q76 0 120 44zM465 482v-482h-58l-9 44h-1q-79 -59 -155 -59q-93 0 -140 72t-47 184t47 184t140 72q76 0 155 -59h1l9 44h58zM318 633q0 25 14 40t38 15q25 0 39 -15t14 -40q0 -26 -14 -40.5
t-39 -14.5q-24 0 -38 14.5t-14 40.5zM135 633q0 25 14 40t38 15q25 0 39 -15t14 -40q0 -26 -14 -40.5t-39 -14.5q-24 0 -38 14.5t-14 40.5z" />
    <glyph glyph-name="aring.alt" horiz-adv-x="546" 
d="M383 99v284q-44 44 -120 44q-64 0 -94 -52.5t-30 -133.5t30 -133.5t94 -52.5q76 0 120 44zM465 482v-482h-58l-9 44h-1q-79 -59 -155 -59q-93 0 -140 72t-47 184t47 184t140 72q76 0 155 -59h1l9 44h58zM240 638q0 -20 11 -31t29 -11t29 11t11 31q0 41 -40 41t-40 -41z
M186 638q0 44 25.5 68.5t68.5 24.5t68 -24.5t25 -68.5t-25 -69t-68 -25t-68.5 25t-25.5 69z" />
    <glyph glyph-name="amacron.alt" horiz-adv-x="546" 
d="M383 99v284q-44 44 -120 44q-64 0 -94 -52.5t-30 -133.5t30 -133.5t94 -52.5q76 0 120 44zM465 482v-482h-58l-9 44h-1q-79 -59 -155 -59q-93 0 -140 72t-47 184t47 184t140 72q76 0 155 -59h1l9 44h58zM401 597h-243v74h243v-74z" />
    <glyph glyph-name="abreve.alt" horiz-adv-x="546" 
d="M383 99v284q-44 44 -120 44q-64 0 -94 -52.5t-30 -133.5t30 -133.5t94 -52.5q76 0 120 44zM465 482v-482h-58l-9 44h-1q-79 -59 -155 -59q-93 0 -140 72t-47 184t47 184t140 72q76 0 155 -59h1l9 44h58zM280 654q61 0 110 32l23 -52q-55 -55 -133 -55q-77 0 -132 55
l23 52q49 -32 109 -32z" />
    <glyph glyph-name="aogonek.alt" horiz-adv-x="546" 
d="M400 -213q-41 0 -68.5 23.5t-27.5 71.5q0 70 99 135l-5 27h-1q-79 -59 -155 -59q-93 0 -140 72t-47 184t47 184t140 72q76 0 155 -59h1l9 44h58v-482q-89 -52 -89 -101q0 -43 43 -43q20 0 55 21l8 -62q-37 -28 -82 -28zM383 99v284q-44 44 -120 44q-64 0 -94 -52.5
t-30 -133.5t30 -133.5t94 -52.5q76 0 120 44z" />
    <glyph glyph-name="aringacute.alt" horiz-adv-x="546" 
d="M239 615q0 -40 40 -40t40 40q0 39 -40 39t-40 -39zM185 615q0 44 25 66t69 22q43 0 68 -22t25 -66t-25 -66.5t-68 -22.5t-68.5 22.5t-25.5 66.5zM383 99v284q-44 44 -120 44q-64 0 -94 -52.5t-30 -133.5t30 -133.5t94 -52.5q76 0 120 44zM465 482v-482h-58l-9 44h-1
q-79 -59 -155 -59q-93 0 -140 72t-47 184t47 184t140 72q76 0 155 -59h1l9 44h58zM394 841v-8l-79 -98h-70v8l59 98h90z" />
    <glyph glyph-name="uni0444.alt" horiz-adv-x="633" 
d="M55 241q0 231 219 252v207h82v-207q222 -21 222 -252t-222 -252v-187h-82v187q-79 6 -129.5 42.5t-70 88.5t-19.5 121zM139 241q0 -164 135 -180v359q-135 -16 -135 -179zM494 241q0 75 -30.5 121.5t-107.5 57.5v-358q77 11 107.5 57.5t30.5 121.5z" />
    <glyph glyph-name="Euro.alt" 
d="M400 223h-208q15 -78 56 -120t109 -42q72 0 132 32l23 -64q-80 -44 -155 -44q-102 0 -165.5 62.5t-85.5 175.5h-78v66h70q-2 11 -2 51q0 32 1 48h-69v66h78q21 113 85 177t166 64q78 0 155 -44l-23 -64q-60 32 -132 32q-68 0 -109.5 -43t-56.5 -122h208v-66h-218
q-1 -16 -1 -48q0 -35 1 -51h219v-66z" />
    <glyph glyph-name="rupee.alt" 
d="M480 443h-73q-11 -80 -70 -122t-139 -44l238 -261v-16h-93l-264 294v55h102q119 0 138 94h-241v66h239q-11 42 -45 69t-91 27h-103v75h402v-66h-135v-2q46 -37 59 -103h76v-66z" />
    <glyph glyph-name="registered.alt" horiz-adv-x="828" 
d="M59 340q0 151 102 253t253 102t253 -102t102 -253t-102 -253t-253 -102t-253 102t-102 253zM115 340q0 -129 85 -215.5t214 -86.5t214 86.5t85 215.5t-85 215.5t-214 86.5t-214 -86.5t-85 -215.5zM338 153h-70v374h158q132 0 132 -111q0 -88 -88 -108l110 -146v-9h-77
l-108 151h-57v-151zM338 363h84q63 0 63 53q0 51 -63 51h-84v-104z" />
    <glyph glyph-name="guillemotleft.case" horiz-adv-x="501" 
d="M56 335v12l141 209l57 -38l-106 -177l106 -177l-57 -38zM237 335v12l141 209l57 -38l-106 -177l106 -177l-57 -38z" />
    <glyph glyph-name="bracketleft.case" horiz-adv-x="334" 
d="M94 790h195v-47l-111 -23v-758l111 -23v-47h-195v898z" />
    <glyph glyph-name="guilsinglright.case" horiz-adv-x="320" 
d="M264 347v-12l-141 -209l-57 38l106 177l-106 177l57 38z" />
    <glyph glyph-name="bar.case" horiz-adv-x="254" 
d="M160 790v-898h-66v898h66z" />
    <glyph glyph-name="periodcentered.case" horiz-adv-x="264" 
d="M72 339q0 27 17 44.5t43 17.5q27 0 43.5 -17.5t16.5 -44.5q0 -28 -16.5 -45.5t-43.5 -17.5q-26 0 -43 17.5t-17 45.5z" />
    <glyph glyph-name="bullet.case" horiz-adv-x="346" 
d="M88 340q0 39 23 62.5t62 23.5t62 -23.5t23 -62.5t-23 -62.5t-62 -23.5t-62 23.5t-23 62.5z" />
    <glyph glyph-name="emdash.case" horiz-adv-x="844" 
d="M765 304h-686v74h686v-74z" />
    <glyph glyph-name="bracketright.case" horiz-adv-x="334" 
d="M45 790h195v-898h-195v47l111 23v758l-111 23v47z" />
    <glyph glyph-name="endash.case" horiz-adv-x="546" 
d="M467 304h-388v74h388v-74z" />
    <glyph glyph-name="hyphen.case" horiz-adv-x="422" 
d="M343 304h-264v74h264v-74z" />
    <glyph glyph-name="guillemotright.case" horiz-adv-x="501" 
d="M264 347v-12l-141 -209l-57 38l106 177l-106 177l57 38zM445 347v-12l-141 -209l-57 38l106 177l-106 177l57 38z" />
    <glyph glyph-name="parenleft.case" horiz-adv-x="287" 
d="M61 341q0 251 115 465l59 -30q-87 -203 -87 -436q0 -234 87 -437l-59 -29q-115 214 -115 467z" />
    <glyph glyph-name="guilsinglleft.case" horiz-adv-x="320" 
d="M56 335v12l141 209l57 -38l-106 -177l106 -177l-57 -38z" />
    <glyph glyph-name="braceright.case" horiz-adv-x="331" 
d="M288 378v-74q-37 0 -54 -16.5t-17 -55.5v-194q0 -73 -31 -109.5t-120 -36.5h-18v52q52 0 69.5 20t17.5 76v183q0 93 71 117v2q-71 24 -71 117v183q0 56 -17.5 76t-69.5 20v52h18q89 0 120 -36.5t31 -109.5v-194q0 -39 17 -55.5t54 -16.5z" />
    <glyph glyph-name="braceleft.case" horiz-adv-x="331" 
d="M43 304v74q37 0 54 16.5t17 55.5v194q0 73 31 109.5t120 36.5h18v-52q-53 0 -70 -19.5t-17 -76.5v-183q0 -92 -71 -117v-2q71 -25 71 -117v-183q0 -57 17 -76.5t70 -19.5v-52h-18q-89 0 -120 36.5t-31 109.5v194q0 39 -17 55.5t-54 16.5z" />
    <glyph glyph-name="parenright.case" horiz-adv-x="287" 
d="M226 341q0 -253 -115 -467l-59 29q87 196 87 437q0 240 -87 436l59 30q115 -214 115 -465z" />
    <glyph glyph-name="minus.case" horiz-adv-x="800" 
d="M609 299h-418v74h418v-74z" />
    <glyph glyph-name="zero.num" horiz-adv-x="345" 
d="M103 510q0 -115 70 -115q69 0 69 115t-69 115q-70 0 -70 -115zM309 510q0 -81 -35 -128.5t-101 -47.5q-67 0 -102 47.5t-35 128.5t35 128.5t102 47.5q66 0 101 -47.5t35 -128.5z" />
    <glyph glyph-name="one.num" horiz-adv-x="245" 
d="M31 568h-7v58l118 54h48v-338h-64v266h-1z" />
    <glyph glyph-name="two.num" horiz-adv-x="301" 
d="M126 403v-1h138v-60h-230v51l127 117q32 29 32 64q0 27 -15.5 40t-38.5 13q-35 0 -72 -37l-34 48q50 50 111 50q50 0 83 -29t33 -79q0 -61 -52 -105z" />
    <glyph glyph-name="three.num" horiz-adv-x="302" 
d="M78 482v60h56q56 0 56 42q0 43 -55 43q-43 0 -80 -17l-19 55q43 23 102 23q56 0 87.5 -25.5t31.5 -68.5q0 -30 -15 -49.5t-35 -25.5v-1q58 -21 58 -85q0 -46 -33.5 -72.5t-97.5 -26.5q-59 0 -106 26l17 57q46 -22 87 -22q67 0 67 47q0 40 -65 40h-56z" />
    <glyph glyph-name="four.num" horiz-adv-x="322" 
d="M188 473v108h65v-108h38v-59h-38v-72h-65v72h-164v52l89 214h69l-85 -206v-1h91z" />
    <glyph glyph-name="five.num" horiz-adv-x="294" 
d="M59 493l-9 11l18 176h178v-59h-123l-8 -64h23q56 0 89 -27t33 -81t-36.5 -84.5t-100.5 -30.5q-46 0 -97 19l15 60q40 -18 84 -18q68 0 68 54q0 47 -62 47q-39 0 -72 -3z" />
    <glyph glyph-name="six.num" horiz-adv-x="312" 
d="M218 680v-5l-77 -114v-1q14 7 39 7q46 0 76 -33t30 -82t-33.5 -83.5t-92.5 -34.5q-60 0 -93.5 33.5t-33.5 84.5q0 38 23 77l93 151h69zM219 450q0 54 -59 54t-59 -54q0 -55 59 -55t59 55z" />
    <glyph glyph-name="seven.num" horiz-adv-x="274" 
d="M59 342v5l124 273v1h-158v59h228v-51l-126 -287h-68z" />
    <glyph glyph-name="eight.num" horiz-adv-x="322" 
d="M162 395q60 0 60 45q0 47 -60 47q-61 0 -61 -47q0 -45 61 -45zM162 688q51 0 82 -26t31 -68q0 -50 -48 -73v-1q59 -25 59 -87q0 -45 -34.5 -72t-89.5 -27q-57 0 -92 27t-35 72q0 61 61 87v1q-48 22 -48 73q0 42 31.5 68t82.5 26zM162 549q48 0 48 37q0 18 -12.5 28.5
t-35.5 10.5q-48 0 -48 -39q0 -37 48 -37z" />
    <glyph glyph-name="nine.num" horiz-adv-x="313" 
d="M93 342v5l79 114v1q-16 -7 -39 -7q-47 0 -77 33t-30 83q0 49 33.5 83t92.5 34q60 0 94 -33.5t34 -83.5q0 -40 -23 -79l-93 -150h-71zM93 573q0 -27 16 -41t43 -14q60 0 60 55q0 54 -60 54q-59 0 -59 -54z" />
    <glyph glyph-name="comma.num" horiz-adv-x="186" 
d="M28 241v10l26 180h89v-9l-53 -181h-62z" />
    <glyph glyph-name="plus.num" horiz-adv-x="248" 
d="M151 617v-73h64v-50h-64v-75h-55v75h-63v50h63v73h55z" />
    <glyph glyph-name="hyphen.num" horiz-adv-x="242" 
d="M194 494h-146v50h146v-50z" />
    <glyph glyph-name="minus.num" horiz-adv-x="278" 
d="M230 494h-182v50h182v-50z" />
    <glyph glyph-name="parenleft.num" horiz-adv-x="172" 
d="M32 511q0 113 71 234l41 -22q-50 -105 -50 -212q0 -108 50 -213l-41 -22q-71 119 -71 235z" />
    <glyph glyph-name="period.num" horiz-adv-x="181" 
d="M40 385q0 23 14.5 37t36.5 14t36 -13.5t14 -37.5q0 -23 -14 -36.5t-36 -13.5t-36.5 13.5t-14.5 36.5z" />
    <glyph glyph-name="parenright.num" horiz-adv-x="172" 
d="M140 511q0 -116 -71 -235l-41 22q50 105 50 213q0 100 -50 212l41 22q71 -121 71 -234z" />
    <glyph glyph-name="zero.denom" horiz-adv-x="345" 
d="M103 168q0 -115 70 -115q69 0 69 115t-69 115q-70 0 -70 -115zM309 168q0 -81 -35 -128.5t-101 -47.5q-67 0 -102 47.5t-35 128.5t35 128.5t102 47.5q66 0 101 -47.5t35 -128.5z" />
    <glyph glyph-name="one.denom" horiz-adv-x="245" 
d="M31 226h-7v58l118 54h48v-338h-64v266h-1z" />
    <glyph glyph-name="two.denom" horiz-adv-x="301" 
d="M126 61v-1h138v-60h-230v51l127 117q32 29 32 64q0 27 -15.5 40t-38.5 13q-35 0 -72 -37l-34 48q50 50 111 50q50 0 83 -29t33 -79q0 -61 -52 -105z" />
    <glyph glyph-name="three.denom" horiz-adv-x="302" 
d="M78 140v60h56q56 0 56 42q0 43 -55 43q-43 0 -80 -17l-19 55q43 23 102 23q56 0 87.5 -25.5t31.5 -68.5q0 -30 -15 -49.5t-35 -25.5v-1q58 -21 58 -85q0 -46 -33.5 -72.5t-97.5 -26.5q-59 0 -106 26l17 57q46 -22 87 -22q67 0 67 47q0 40 -65 40h-56z" />
    <glyph glyph-name="four.denom" horiz-adv-x="322" 
d="M188 131v108h65v-108h38v-59h-38v-72h-65v72h-164v52l89 214h69l-85 -206v-1h91z" />
    <glyph glyph-name="five.denom" horiz-adv-x="294" 
d="M59 151l-9 11l18 176h178v-59h-123l-8 -64h23q56 0 89 -27t33 -81t-36.5 -84.5t-100.5 -30.5q-46 0 -97 19l15 60q40 -18 84 -18q68 0 68 54q0 47 -62 47q-39 0 -72 -3z" />
    <glyph glyph-name="six.denom" horiz-adv-x="312" 
d="M218 338v-5l-77 -114v-1q14 7 39 7q46 0 76 -33t30 -82t-33.5 -83.5t-92.5 -34.5q-60 0 -93.5 33.5t-33.5 84.5q0 38 23 77l93 151h69zM219 108q0 54 -59 54t-59 -54q0 -55 59 -55t59 55z" />
    <glyph glyph-name="seven.denom" horiz-adv-x="274" 
d="M59 0v5l124 273v1h-158v59h228v-51l-126 -287h-68z" />
    <glyph glyph-name="eight.denom" horiz-adv-x="322" 
d="M162 53q60 0 60 45q0 47 -60 47q-61 0 -61 -47q0 -45 61 -45zM162 346q51 0 82 -26t31 -68q0 -50 -48 -73v-1q59 -25 59 -87q0 -45 -34.5 -72t-89.5 -27q-57 0 -92 27t-35 72q0 61 61 87v1q-48 22 -48 73q0 42 31.5 68t82.5 26zM162 207q48 0 48 37q0 18 -12.5 28.5
t-35.5 10.5q-48 0 -48 -39q0 -37 48 -37z" />
    <glyph glyph-name="nine.denom" horiz-adv-x="313" 
d="M93 0v5l79 114v1q-16 -7 -39 -7q-47 0 -77 33t-30 83q0 49 33.5 83t92.5 34q60 0 94 -33.5t34 -83.5q0 -40 -23 -79l-93 -150h-71zM93 231q0 -27 16 -41t43 -14q60 0 60 55q0 54 -60 54q-59 0 -59 -54z" />
    <glyph glyph-name="comma.denom" horiz-adv-x="186" 
d="M28 -101v10l26 180h89v-9l-53 -181h-62z" />
    <glyph glyph-name="plus.denom" horiz-adv-x="248" 
d="M151 275v-73h64v-50h-64v-75h-55v75h-63v50h63v73h55z" />
    <glyph glyph-name="parenright.denom" horiz-adv-x="172" 
d="M140 169q0 -116 -71 -235l-41 22q50 105 50 213q0 100 -50 212l41 22q71 -121 71 -234z" />
    <glyph glyph-name="hyphen.denom" horiz-adv-x="242" 
d="M194 152h-146v50h146v-50z" />
    <glyph glyph-name="minus.denom" horiz-adv-x="278" 
d="M230 152h-182v50h182v-50z" />
    <glyph glyph-name="parenleft.denom" horiz-adv-x="172" 
d="M32 169q0 113 71 234l41 -22q-50 -105 -50 -212q0 -108 50 -213l-41 -22q-71 119 -71 235z" />
    <glyph glyph-name="period.denom" horiz-adv-x="181" 
d="M40 43q0 23 14.5 37t36.5 14t36 -13.5t14 -37.5q0 -23 -14 -36.5t-36 -13.5t-36.5 13.5t-14.5 36.5z" />
    <glyph glyph-name="minusinferior" horiz-adv-x="278" 
d="M230 32h-182v50h182v-50z" />
    <glyph glyph-name="plusinferior" horiz-adv-x="248" 
d="M151 155v-73h64v-50h-64v-75h-55v75h-63v50h63v73h55z" />
    <glyph glyph-name="commaaccent.alt" horiz-adv-x="542" 
d="M322 720v-10l-18 -141h-85v10l38 141h65z" />
    <glyph glyph-name="caron.alt" horiz-adv-x="542" 
d="M219 529v10l18 141h85v-10l-38 -141h-65z" />
    <glyph glyph-name="commaaccent.cap" horiz-adv-x="542" 
d="M219 -218v10l18 141h85v-10l-38 -141h-65z" />
    <glyph glyph-name="grave.cap" horiz-adv-x="542" 
d="M191 873v10h90l60 -121v-10h-71z" />
    <glyph glyph-name="acute.cap" horiz-adv-x="542" 
d="M351 883v-10l-79 -121h-71v10l60 121h90z" />
    <glyph glyph-name="circumflex.cap" horiz-adv-x="542" 
d="M318 883l86 -121v-10h-75l-58 71l-58 -71h-75v10l86 121h94z" />
    <glyph glyph-name="caron.cap" horiz-adv-x="542" 
d="M224 752l-86 121v10h75l58 -71l58 71h75v-10l-86 -121h-94z" />
    <glyph glyph-name="tilde.cap" horiz-adv-x="542" 
d="M155 767l-25 50q36 57 83 57q20 0 60.5 -20t59.5 -20q30 0 54 35l25 -50q-40 -57 -83 -57q-21 0 -61 20t-60 20q-28 0 -53 -35z" />
    <glyph glyph-name="dieresis.cap" horiz-adv-x="542" 
d="M117 816q0 25 14 40t38 15q25 0 39 -15t14 -40q0 -26 -14 -40.5t-39 -14.5q-24 0 -38 14.5t-14 40.5zM320 816q0 25 14 40t38 15q25 0 39 -15t14 -40q0 -26 -14 -40.5t-39 -14.5q-24 0 -38 14.5t-14 40.5z" />
    <glyph glyph-name="macron.cap" horiz-adv-x="542" 
d="M392 777h-243v74h243v-74z" />
    <glyph glyph-name="tonos.cap" horiz-adv-x="590" 
d="M365 680v-10l-45 -141h-64v10l24 141h85z" />
    <glyph glyph-name="breve.cap" horiz-adv-x="542" 
d="M270 838q61 0 110 32l23 -52q-55 -55 -133 -55q-77 0 -132 55l23 52q49 -32 109 -32z" />
    <glyph glyph-name="ring.cap" horiz-adv-x="542" 
d="M231 828q0 -20 11 -31t29 -11t29 11t11 31q0 41 -40 41t-40 -41zM177 828q0 44 25.5 68.5t68.5 24.5t68 -24.5t25 -68.5t-25 -69t-68 -25t-68.5 25t-25.5 69z" />
    <glyph glyph-name="hungarumlaut.cap" horiz-adv-x="542" 
d="M268 883v-10l-78 -121h-71v10l59 121h90zM423 883v-10l-78 -121h-71v10l59 121h90z" />
    <glyph glyph-name="dotaccent.cap" horiz-adv-x="542" 
d="M218 816q0 25 14 40t38 15q25 0 39 -15t14 -40q0 -26 -14 -40.5t-39 -14.5q-24 0 -38 14.5t-14 40.5z" />
    </font>
</defs>
</svg>
